<?xml version="1.0" encoding="UTF-8" standalone="no"?>
<!-- Created with Inkscape (http://www.inkscape.org/) -->

<svg
   xmlns:dc="http://purl.org/dc/elements/1.1/"
   xmlns:cc="http://creativecommons.org/ns#"
   xmlns:rdf="http://www.w3.org/1999/02/22-rdf-syntax-ns#"
   xmlns:svg="http://www.w3.org/2000/svg"
   xmlns="http://www.w3.org/2000/svg"
   xmlns:xlink="http://www.w3.org/1999/xlink"
   xmlns:sodipodi="http://sodipodi.sourceforge.net/DTD/sodipodi-0.dtd"
   xmlns:inkscape="http://www.inkscape.org/namespaces/inkscape"
   width="1024"
   height="1024"
   id="svg3117"
   version="1.1"
   inkscape:version="0.48.2 r9819"
   sodipodi:docname="createDatabaseIcon.svg"
   inkscape:export-filename="/Users/pgalex/Documents/projects/NetBeans/JShooting/src/com/jshooting/resources/createDatabaseIcon.png"
   inkscape:export-xdpi="8.0859375"
   inkscape:export-ydpi="8.0859375">
  <defs
     id="defs3119">
    <linearGradient
       id="linearGradient3955">
      <stop
         style="stop-color:#bdb519;stop-opacity:1;"
         offset="0"
         id="stop3957" />
      <stop
         style="stop-color:#eaea5e;stop-opacity:1;"
         offset="1"
         id="stop3959" />
    </linearGradient>
    <radialGradient
       inkscape:collect="always"
       xlink:href="#linearGradient3955"
       id="radialGradient3961"
       cx="1430"
       cy="113.28571"
       fx="1430"
       fy="113.28571"
       r="22.5"
       gradientTransform="matrix(0.57997558,0,0,7.5212706,15.520673,-647.24746)"
       gradientUnits="userSpaceOnUse" />
    <radialGradient
       inkscape:collect="always"
       xlink:href="#linearGradient3955"
       id="radialGradient3971"
       cx="1431.7856"
       cy="142.00504"
       fx="1431.7856"
       fy="142.00504"
       r="213.56766"
       gradientTransform="matrix(0.57997558,0,0,0.57997558,15.520673,122.65273)"
       gradientUnits="userSpaceOnUse" />
    <radialGradient
       inkscape:collect="always"
       xlink:href="#linearGradient3955"
       id="radialGradient3979"
       cx="1431.4286"
       cy="115.42857"
       fx="1431.4286"
       fy="115.42857"
       r="292.5"
       gradientTransform="matrix(0.57997558,0,0,0.04461351,15.520673,200.89819)"
       gradientUnits="userSpaceOnUse" />
    <radialGradient
       inkscape:collect="always"
       xlink:href="#linearGradient3955"
       id="radialGradient3987"
       cx="1429.6428"
       cy="143.43362"
       fx="1429.6428"
       fy="143.43362"
       r="212.14285"
       gradientTransform="matrix(0.57997558,0,0,0.57997558,15.520673,122.65273)"
       gradientUnits="userSpaceOnUse" />
    <linearGradient
       inkscape:collect="always"
       xlink:href="#linearGradient3933"
       id="linearGradient3939"
       x1="633.37415"
       y1="816.59528"
       x2="633.90894"
       y2="908.15588"
       gradientUnits="userSpaceOnUse"
       gradientTransform="matrix(2.2308691,0,0,2.2308691,-882.65047,-1106.4361)" />
    <linearGradient
       id="linearGradient3933">
      <stop
         style="stop-color:#f3f3f3;stop-opacity:1;"
         offset="0"
         id="stop3935" />
      <stop
         style="stop-color:#b3b3b3;stop-opacity:1;"
         offset="1"
         id="stop3937" />
    </linearGradient>
    <linearGradient
       inkscape:collect="always"
       xlink:href="#linearGradient3853"
       id="linearGradient3883"
       x1="92.206444"
       y1="714.88312"
       x2="344.53763"
       y2="714.88312"
       gradientUnits="userSpaceOnUse"
       gradientTransform="matrix(2.3569827,0,0,2.2280511,3.407115,-697.37466)" />
    <linearGradient
       id="linearGradient3853">
      <stop
         style="stop-color:#c1b7c1;stop-opacity:1;"
         offset="0"
         id="stop3855" />
      <stop
         style="stop-color:#746474;stop-opacity:1;"
         offset="1"
         id="stop3857" />
    </linearGradient>
    <linearGradient
       inkscape:collect="always"
       xlink:href="#linearGradient3853"
       id="linearGradient3873"
       x1="92.206429"
       y1="596.09149"
       x2="344.53763"
       y2="596.09149"
       gradientUnits="userSpaceOnUse"
       gradientTransform="matrix(2.3577973,0,0,2.2444627,2.246029,-700.74421)" />
    <linearGradient
       id="linearGradient3192">
      <stop
         style="stop-color:#c1b7c1;stop-opacity:1;"
         offset="0"
         id="stop3194" />
      <stop
         style="stop-color:#746474;stop-opacity:1;"
         offset="1"
         id="stop3196" />
    </linearGradient>
    <linearGradient
       inkscape:collect="always"
       xlink:href="#linearGradient3843"
       id="linearGradient3885"
       x1="88.077408"
       y1="408.65869"
       x2="348.79803"
       y2="408.65869"
       gradientUnits="userSpaceOnUse" />
    <linearGradient
       id="linearGradient3843">
      <stop
         style="stop-color:#e8e6e8;stop-opacity:1;"
         offset="0"
         id="stop3845" />
      <stop
         style="stop-color:#867387;stop-opacity:1;"
         offset="1"
         id="stop3847" />
    </linearGradient>
    <linearGradient
       inkscape:collect="always"
       xlink:href="#linearGradient3853"
       id="linearGradient3859"
       x1="91.924393"
       y1="478.62579"
       x2="344.31323"
       y2="478.62579"
       gradientUnits="userSpaceOnUse"
       gradientTransform="matrix(1.0585396,0,0,1.011409,-19.621142,97.766265)" />
    <linearGradient
       id="linearGradient3203">
      <stop
         style="stop-color:#c1b7c1;stop-opacity:1;"
         offset="0"
         id="stop3205" />
      <stop
         style="stop-color:#746474;stop-opacity:1;"
         offset="1"
         id="stop3207" />
    </linearGradient>
    <linearGradient
       y2="478.62579"
       x2="344.31323"
       y1="478.62579"
       x1="91.924393"
       gradientTransform="matrix(2.3614631,0,0,2.256321,3.771167,-695.62852)"
       gradientUnits="userSpaceOnUse"
       id="linearGradient3235"
       xlink:href="#linearGradient3853"
       inkscape:collect="always" />
  </defs>
  <sodipodi:namedview
     id="base"
     pagecolor="#ffffff"
     bordercolor="#666666"
     borderopacity="1.0"
     inkscape:pageopacity="0"
     inkscape:pageshadow="2"
     inkscape:zoom="0.24748737"
     inkscape:cx="9.4237777"
     inkscape:cy="119.98599"
     inkscape:document-units="px"
     inkscape:current-layer="layer1"
     showgrid="false"
     inkscape:window-width="1920"
     inkscape:window-height="1032"
     inkscape:window-x="0"
     inkscape:window-y="0"
     inkscape:window-maximized="1" />
  <metadata
     id="metadata3122">
    <rdf:RDF>
      <cc:Work
         rdf:about="">
        <dc:format>image/svg+xml</dc:format>
        <dc:type
           rdf:resource="http://purl.org/dc/dcmitype/StillImage" />
        <dc:title></dc:title>
      </cc:Work>
    </rdf:RDF>
  </metadata>
  <g
     inkscape:label="Layer 1"
     inkscape:groupmode="layer"
     id="layer1"
     transform="translate(0,-28.362183)">
    <path
       style="fill:url(#linearGradient3235);fill-opacity:1;stroke:none;display:inline"
       d="m 438.94441,522.95212 c -114.89038,-4.43211 -199.95942,-15.25984 -214.80697,-27.341 -3.07502,-2.50209 -3.29022,-10.82985 -3.29022,-127.31433 0,-122.62547 0.0586,-124.6071 3.63308,-122.77926 15.0036,7.67214 78.1447,16.48835 157.11955,21.93811 45.62451,3.14845 230.83505,3.17788 275.44174,0.0438 71.6442,-5.03372 122.18014,-11.44043 145.60768,-18.45961 6.26156,-1.87601 12.01923,-3.42138 12.79481,-3.43413 0.77554,-0.0134 1.41009,56.20583 1.41009,124.93016 l 0,124.95333 -8.83619,3.73468 c -18.9365,8.00355 -69.57274,15.27453 -142.07783,20.40134 -35.79098,2.53074 -189.3092,4.78079 -226.99574,3.32691 l 0,0 z"
       id="path3851"
       inkscape:connector-curvature="0" />
    <path
       sodipodi:type="arc"
       style="color:#000000;fill:url(#linearGradient3885);fill-opacity:1;fill-rule:nonzero;stroke:#564756;stroke-width:4;stroke-miterlimit:4;stroke-opacity:1;stroke-dasharray:none;marker:none;visibility:visible;display:inline;overflow:visible;enable-background:accumulate"
       id="path3778"
       sodipodi:cx="218.43771"
       sodipodi:cy="408.65869"
       sodipodi:rx="128.36031"
       sodipodi:ry="15.200563"
       d="m 346.79802,408.65869 a 128.36031,15.200563 0 1 1 -256.720612,0 128.36031,15.200563 0 1 1 256.720612,0 z"
       transform="matrix(2.3284099,0,0,2.1654354,4.62278,-642.91532)" />
    <path
       style="fill:none;stroke:none;display:inline"
       d="m 468.85626,774.76093 c -93.40495,-2.04824 -172.9624,-8.31587 -213.65414,-16.83194 -11.5147,-2.40984 -24.7925,-6.52641 -28.4559,-8.82234 l -3.05924,-1.91732 -0.23497,-122.25284 c -0.22353,-116.23733 -0.15482,-122.22163 1.39039,-121.61821 30.07572,11.74365 96.51764,19.60334 201.37567,23.82151 34.717,1.39657 146.56025,1.40277 181.67554,0.0114 104.05522,-4.12693 173.92913,-12.38166 201.37251,-23.78967 1.54061,-0.64047 1.62208,5.47634 1.62208,121.81483 l 0,122.48914 -5.51832,2.59062 c -22.85394,10.72916 -97.29843,19.56986 -196.08591,23.28624 -24.37635,0.91702 -117.39106,1.72503 -140.42776,1.21988 z"
       id="path3863"
       inkscape:connector-curvature="0" />
    <path
       style="fill:url(#linearGradient3873);fill-opacity:1;stroke:none;display:inline"
       d="m 468.2471,777.77234 c -94.58385,-2.12303 -175.1454,-8.61937 -216.35071,-17.44626 -11.66008,-2.49775 -25.10544,-6.76456 -28.81504,-9.14427 l -3.09787,-1.98727 -0.23766,-126.71446 c -0.22621,-120.47943 -0.15683,-126.6821 1.40794,-126.05671 30.45534,12.1723 97.73578,20.31876 203.91727,24.69091 35.15513,1.44756 148.41,1.454 183.9685,0.0114 105.36852,-4.27753 176.12434,-12.83355 203.91404,-24.6579 1.56011,-0.66384 1.6426,5.67623 1.6426,126.26048 l 0,126.95936 -5.58799,2.68521 c -23.14241,11.1207 -98.52646,20.28402 -198.56072,24.13602 -24.68405,0.95055 -118.87272,1.78802 -142.20014,1.26441 z"
       id="path3865"
       inkscape:connector-curvature="0" />
    <path
       transform="matrix(2.3284099,0,0,2.1654354,8.6634038,-393.85643)"
       sodipodi:type="arc"
       style="color:#000000;fill:none;stroke:#564756;stroke-width:4;stroke-miterlimit:4;stroke-opacity:1;stroke-dasharray:none;marker:none;visibility:visible;display:inline;overflow:visible;enable-background:accumulate"
       id="path3778-8-4"
       sodipodi:cx="218.43771"
       sodipodi:cy="408.65869"
       sodipodi:rx="128.36031"
       sodipodi:ry="15.200563"
       d="m 346.79802,408.65869 a 128.36031,15.200563 0 1 1 -256.720612,0"
       sodipodi:start="0"
       sodipodi:end="3.1415927"
       sodipodi:open="true" />
    <path
       style="fill:url(#linearGradient3883);fill-opacity:1;fill-rule:nonzero;stroke:none;display:inline"
       d="m 493.17351,1036.3333 c -92.39764,-0.7033 -190.36964,-7.6716 -236.44919,-16.8176 -13.24826,-2.6297 -26.63512,-6.5848 -31.90182,-9.4257 l -3.75317,-2.0244 -0.23766,-127.12552 c -0.2262,-120.87231 -0.15683,-127.09332 1.40744,-126.47252 30.40475,12.06745 99.06063,20.3029 204.31592,24.50827 35.47941,1.41751 147.90771,1.4164 183.43575,-0.002 104.42832,-4.16871 176.19671,-12.78165 203.84356,-24.46321 1.55957,-0.65901 1.64203,5.67096 1.64203,126.09946 0,119.63872 -0.0926,126.87112 -1.64203,128.17292 -4.21148,3.5384 -20.66353,8.3272 -41.51933,12.0851 -56.25335,10.1361 -167.7458,16.3131 -279.14138,15.4652 z"
       id="path3875"
       inkscape:connector-curvature="0" />
    <path
       style="fill:none;stroke:#564756;stroke-width:8.9609642;stroke-linecap:round;stroke-linejoin:miter;stroke-miterlimit:4;stroke-opacity:1;stroke-dasharray:none;display:inline"
       d="m 816.15136,237.57759 0,768.90831"
       id="path3808"
       inkscape:connector-curvature="0" />
    <path
       style="fill:none;stroke:#564756;stroke-width:8.9959898;stroke-linecap:round;stroke-linejoin:miter;stroke-miterlimit:4;stroke-opacity:1;stroke-dasharray:none;display:inline"
       d="m 217.93707,237.31518 0,768.02252"
       id="path3806"
       inkscape:connector-curvature="0" />
    <path
       transform="matrix(2.3284099,0,0,2.1654354,8.6634038,-137.84439)"
       sodipodi:type="arc"
       style="color:#000000;fill:none;stroke:#564756;stroke-width:4;stroke-miterlimit:4;stroke-opacity:1;stroke-dasharray:none;marker:none;visibility:visible;display:inline;overflow:visible;enable-background:accumulate"
       id="path3778-8-6"
       sodipodi:cx="218.43771"
       sodipodi:cy="408.65869"
       sodipodi:rx="128.36031"
       sodipodi:ry="15.200563"
       d="m 346.79802,408.65869 a 128.36031,15.200563 0 1 1 -256.720612,0"
       sodipodi:start="0"
       sodipodi:end="3.1415927"
       sodipodi:open="true" />
    <path
       transform="matrix(2.3284099,0,0,2.1654354,8.6634058,120.41472)"
       sodipodi:type="arc"
       style="color:#000000;fill:none;stroke:#564756;stroke-width:4;stroke-miterlimit:4;stroke-opacity:1;stroke-dasharray:none;marker:none;visibility:visible;display:inline;overflow:visible;enable-background:accumulate"
       id="path3778-8"
       sodipodi:cx="218.43771"
       sodipodi:cy="408.65869"
       sodipodi:rx="128.36031"
       sodipodi:ry="15.200563"
       d="m 346.79802,408.65869 a 128.36031,15.200563 0 1 1 -256.720612,0"
       sodipodi:start="0"
       sodipodi:end="3.1415927"
       sodipodi:open="true" />
    <rect
       style="fill:url(#linearGradient3939);fill-opacity:1;stroke:#000000;stroke-width:8.82085609;stroke-linejoin:bevel;stroke-miterlimit:4;stroke-opacity:1;stroke-dasharray:none;display:inline"
       id="rect3163"
       width="704.61719"
       height="207.81204"
       x="163.51476"
       y="714.39301"
       ry="0" />
    <g
       style="display:inline"
       transform="matrix(0.22489414,0,0,0.22489414,220.84838,640.91772)"
       id="layer1-4"
       inkscape:label="Layer 1">
      <path
         transform="matrix(1.0601064,0,0,1.1113547,52.086017,592.40412)"
         d="m 384.86813,182.72137 a 191.67645,182.83762 0 1 1 -383.3529017,0 191.67645,182.83762 0 1 1 383.3529017,0 z"
         sodipodi:ry="182.83762"
         sodipodi:rx="191.67645"
         sodipodi:cy="182.72137"
         sodipodi:cx="193.19168"
         id="path2987"
         style="fill:#141414;fill-opacity:1;stroke:#000000;stroke-opacity:1"
         sodipodi:type="arc" />
      <path
         transform="matrix(1.4893553,0,0,1.4683785,-70.333774,498.61504)"
         d="m 272.74118,202.16681 a 53.033009,53.790623 0 1 1 -106.06601,0 53.033009,53.790623 0 1 1 106.06601,0 z"
         sodipodi:ry="53.790623"
         sodipodi:rx="53.033009"
         sodipodi:cy="202.16681"
         sodipodi:cx="219.70818"
         id="path3769"
         style="color:#000000;fill:#000000;fill-opacity:1;stroke:#000000;stroke-width:1px;stroke-opacity:1;marker:none;visibility:visible;display:inline;overflow:visible;enable-background:accumulate"
         sodipodi:type="arc" />
    </g>
    <g
       style="display:inline"
       inkscape:label="Layer 1"
       id="g3139"
       transform="matrix(0.22489414,0,0,0.22489414,344.09944,640.91772)">
      <path
         sodipodi:type="arc"
         style="fill:#141414;fill-opacity:1;stroke:#000000;stroke-opacity:1"
         id="path3141"
         sodipodi:cx="193.19168"
         sodipodi:cy="182.72137"
         sodipodi:rx="191.67645"
         sodipodi:ry="182.83762"
         d="m 384.86813,182.72137 a 191.67645,182.83762 0 1 1 -383.3529017,0 191.67645,182.83762 0 1 1 383.3529017,0 z"
         transform="matrix(1.0601064,0,0,1.1113547,52.086017,592.40412)" />
      <path
         sodipodi:type="arc"
         style="color:#000000;fill:#000000;fill-opacity:1;stroke:#000000;stroke-width:1px;stroke-opacity:1;marker:none;visibility:visible;display:inline;overflow:visible;enable-background:accumulate"
         id="path3143"
         sodipodi:cx="219.70818"
         sodipodi:cy="202.16681"
         sodipodi:rx="53.033009"
         sodipodi:ry="53.790623"
         d="m 272.74118,202.16681 a 53.033009,53.790623 0 1 1 -106.06601,0 53.033009,53.790623 0 1 1 106.06601,0 z"
         transform="matrix(1.4893553,0,0,1.4683785,-70.333774,498.61504)" />
    </g>
    <g
       style="display:inline"
       inkscape:label="Layer 1"
       id="g3145"
       transform="matrix(0.22489414,0,0,0.22489414,462.40776,640.91772)">
      <path
         sodipodi:type="arc"
         style="fill:#141414;fill-opacity:1;stroke:#000000;stroke-opacity:1"
         id="path3147"
         sodipodi:cx="193.19168"
         sodipodi:cy="182.72137"
         sodipodi:rx="191.67645"
         sodipodi:ry="182.83762"
         d="m 384.86813,182.72137 a 191.67645,182.83762 0 1 1 -383.3529017,0 191.67645,182.83762 0 1 1 383.3529017,0 z"
         transform="matrix(1.0601064,0,0,1.1113547,52.086017,592.40412)" />
      <path
         sodipodi:type="arc"
         style="color:#000000;fill:#000000;fill-opacity:1;stroke:#000000;stroke-width:1px;stroke-opacity:1;marker:none;visibility:visible;display:inline;overflow:visible;enable-background:accumulate"
         id="path3149"
         sodipodi:cx="219.70818"
         sodipodi:cy="202.16681"
         sodipodi:rx="53.033009"
         sodipodi:ry="53.790623"
         d="m 272.74118,202.16681 a 53.033009,53.790623 0 1 1 -106.06601,0 53.033009,53.790623 0 1 1 106.06601,0 z"
         transform="matrix(1.4893553,0,0,1.4683785,-70.333774,498.61504)" />
    </g>
    <g
       style="display:inline"
       transform="matrix(0.22489414,0,0,0.22489414,582.10645,640.91772)"
       id="g3151"
       inkscape:label="Layer 1">
      <path
         transform="matrix(1.0601064,0,0,1.1113547,52.086017,592.40412)"
         d="m 384.86813,182.72137 a 191.67645,182.83762 0 1 1 -383.3529017,0 191.67645,182.83762 0 1 1 383.3529017,0 z"
         sodipodi:ry="182.83762"
         sodipodi:rx="191.67645"
         sodipodi:cy="182.72137"
         sodipodi:cx="193.19168"
         id="path3153"
         style="fill:#141414;fill-opacity:1;stroke:#000000;stroke-opacity:1"
         sodipodi:type="arc" />
      <path
         transform="matrix(1.4893553,0,0,1.4683785,-70.333774,498.61504)"
         d="m 272.74118,202.16681 a 53.033009,53.790623 0 1 1 -106.06601,0 53.033009,53.790623 0 1 1 106.06601,0 z"
         sodipodi:ry="53.790623"
         sodipodi:rx="53.033009"
         sodipodi:cy="202.16681"
         sodipodi:cx="219.70818"
         id="path3155"
         style="color:#000000;fill:#000000;fill-opacity:1;stroke:#000000;stroke-width:1px;stroke-opacity:1;marker:none;visibility:visible;display:inline;overflow:visible;enable-background:accumulate"
         sodipodi:type="arc" />
    </g>
    <g
       style="display:inline"
       inkscape:label="Layer 1"
       id="g3157"
       transform="matrix(0.22489414,0,0,0.22489414,699.33378,640.91772)">
      <path
         sodipodi:type="arc"
         style="fill:#141414;fill-opacity:1;stroke:#000000;stroke-opacity:1"
         id="path3159"
         sodipodi:cx="193.19168"
         sodipodi:cy="182.72137"
         sodipodi:rx="191.67645"
         sodipodi:ry="182.83762"
         d="m 384.86813,182.72137 a 191.67645,182.83762 0 1 1 -383.3529017,0 191.67645,182.83762 0 1 1 383.3529017,0 z"
         transform="matrix(1.0601064,0,0,1.1113547,52.086017,592.40412)" />
      <path
         sodipodi:type="arc"
         style="color:#000000;fill:#000000;fill-opacity:1;stroke:#000000;stroke-width:1px;stroke-opacity:1;marker:none;visibility:visible;display:inline;overflow:visible;enable-background:accumulate"
         id="path3161"
         sodipodi:cx="219.70818"
         sodipodi:cy="202.16681"
         sodipodi:rx="53.033009"
         sodipodi:ry="53.790623"
         d="m 272.74118,202.16681 a 53.033009,53.790623 0 1 1 -106.06601,0 53.033009,53.790623 0 1 1 106.06601,0 z"
         transform="matrix(1.4893553,0,0,1.4683785,-70.333774,498.61504)" />
    </g>
    <path
       style="fill:none;stroke:url(#radialGradient3961);stroke-width:26.09890175;stroke-linecap:round;stroke-linejoin:miter;stroke-miterlimit:4;stroke-opacity:1;stroke-dasharray:none"
       d="m 844.88574,48.625914 0,312.358276"
       id="path3920"
       inkscape:connector-curvature="0" />
    <path
       style="fill:none;stroke:url(#radialGradient3979);stroke-width:26.09890175;stroke-linecap:round;stroke-linejoin:miter;stroke-miterlimit:4;stroke-opacity:1;stroke-dasharray:none"
       d="m 689.12094,206.04786 313.18676,0"
       id="path3922"
       inkscape:connector-curvature="0" />
    <path
       style="fill:none;stroke:url(#radialGradient3971);stroke-width:26.09890175;stroke-linecap:round;stroke-linejoin:miter;stroke-miterlimit:4;stroke-opacity:1;stroke-dasharray:none"
       d="M 956.73594,94.197607 735.10684,315.82677"
       id="path3924"
       inkscape:connector-curvature="0" />
    <path
       style="fill:#808000;stroke:url(#radialGradient3987);stroke-width:26.09890175;stroke-linecap:round;stroke-linejoin:miter;stroke-miterlimit:4;stroke-opacity:1;stroke-dasharray:none"
       d="M 734.69034,95.852501 954.66684,315.82896"
       id="path3926"
       inkscape:connector-curvature="0" />
  </g>
</svg>
