<?xml version="1.0" encoding="UTF-8" standalone="no"?>
<!-- Created with Inkscape (http://www.inkscape.org/) -->

<svg
   xmlns:dc="http://purl.org/dc/elements/1.1/"
   xmlns:cc="http://creativecommons.org/ns#"
   xmlns:rdf="http://www.w3.org/1999/02/22-rdf-syntax-ns#"
   xmlns:svg="http://www.w3.org/2000/svg"
   xmlns="http://www.w3.org/2000/svg"
   xmlns:xlink="http://www.w3.org/1999/xlink"
   xmlns:sodipodi="http://sodipodi.sourceforge.net/DTD/sodipodi-0.dtd"
   xmlns:inkscape="http://www.inkscape.org/namespaces/inkscape"
   width="1024"
   height="1024"
   id="svg2"
   version="1.1"
   inkscape:version="0.48.4 r9939"
   sodipodi:docname="notepad.svg">
  <defs
     id="defs4">
    <linearGradient
       id="linearGradient3904">
      <stop
         style="stop-color:#9d9d9d;stop-opacity:1;"
         offset="0"
         id="stop3906" />
      <stop
         style="stop-color:#000000;stop-opacity:1;"
         offset="1"
         id="stop3908" />
    </linearGradient>
    <radialGradient
       inkscape:collect="always"
       xlink:href="#linearGradient3904"
       id="radialGradient3860"
       cx="688.61304"
       cy="173.56285"
       fx="688.61304"
       fy="173.56285"
       r="12.167078"
       gradientTransform="matrix(1,0,0,3.6563189,0,-461.03828)"
       gradientUnits="userSpaceOnUse" />
    <radialGradient
       inkscape:collect="always"
       xlink:href="#linearGradient3904"
       id="radialGradient3862"
       cx="631.85614"
       cy="172.06032"
       fx="631.85614"
       fy="172.06032"
       r="12.495392"
       gradientTransform="matrix(1,0,0,3.582912,0,-444.41666)"
       gradientUnits="userSpaceOnUse" />
    <radialGradient
       inkscape:collect="always"
       xlink:href="#linearGradient3904"
       id="radialGradient3864"
       cx="574.71832"
       cy="173.16541"
       fx="574.71832"
       fy="173.16541"
       r="13.561798"
       gradientTransform="matrix(1,0,0,3.256934,0,-390.8229)"
       gradientUnits="userSpaceOnUse" />
    <radialGradient
       inkscape:collect="always"
       xlink:href="#linearGradient3904"
       id="radialGradient3866"
       cx="524.58411"
       cy="168.02715"
       fx="524.58411"
       fy="168.02715"
       r="13.33887"
       gradientTransform="matrix(1,0,0,3.3217315,0,-390.11391)"
       gradientUnits="userSpaceOnUse" />
    <radialGradient
       inkscape:collect="always"
       xlink:href="#linearGradient3904"
       id="radialGradient3868"
       cx="464.85416"
       cy="166.24142"
       fx="464.85416"
       fy="166.24142"
       r="13.425952"
       gradientTransform="matrix(1,0,0,3.3001866,0,-382.38632)"
       gradientUnits="userSpaceOnUse" />
    <radialGradient
       inkscape:collect="always"
       xlink:href="#linearGradient3904"
       id="radialGradient3870"
       cx="416.63989"
       cy="168.99304"
       fx="416.63989"
       fy="168.99304"
       r="13.068807"
       gradientTransform="matrix(1,0,0,3.3984498,0,-405.32131)"
       gradientUnits="userSpaceOnUse" />
    <radialGradient
       inkscape:collect="always"
       xlink:href="#linearGradient3904"
       id="radialGradient3872"
       cx="359.49701"
       cy="170.77875"
       fx="359.49701"
       fy="170.77875"
       r="13.068807"
       gradientTransform="matrix(1,0,0,3.3984498,0,-409.60425)"
       gradientUnits="userSpaceOnUse" />
    <radialGradient
       inkscape:collect="always"
       xlink:href="#linearGradient3904"
       id="radialGradient3874"
       cx="309.61176"
       cy="171.17812"
       fx="309.61176"
       fy="171.17812"
       r="13.961675"
       gradientTransform="matrix(1,0,0,3.1886864,0,-374.65519)"
       gradientUnits="userSpaceOnUse" />
    <radialGradient
       inkscape:collect="always"
       xlink:href="#linearGradient3904"
       id="radialGradient3876"
       cx="334.2674"
       cy="151.48074"
       fx="334.2674"
       fy="151.48074"
       r="27.310163"
       gradientTransform="matrix(1,0,0,0.90884918,0,13.807594)"
       gradientUnits="userSpaceOnUse" />
    <radialGradient
       inkscape:collect="always"
       xlink:href="#linearGradient3904"
       id="radialGradient3878"
       cx="252.15608"
       cy="171.90955"
       fx="252.15608"
       fy="171.90955"
       r="14.745015"
       gradientTransform="matrix(1,0,0,2.774672,0,-305.08304)"
       gradientUnits="userSpaceOnUse" />
    <radialGradient
       inkscape:collect="always"
       xlink:href="#linearGradient3904"
       id="radialGradient3880"
       cx="239.15363"
       cy="171.95934"
       fx="239.15363"
       fy="171.95934"
       r="16.234526"
       gradientTransform="matrix(1,0,0,2.3830324,0,-237.82533)"
       gradientUnits="userSpaceOnUse" />
    <radialGradient
       inkscape:collect="always"
       xlink:href="#linearGradient3904"
       id="radialGradient3882"
       cx="278.62463"
       cy="152.74342"
       fx="278.62463"
       fy="152.74342"
       r="27.053082"
       gradientTransform="matrix(1,0,0,0.87081132,0,19.732722)"
       gradientUnits="userSpaceOnUse" />
    <radialGradient
       inkscape:collect="always"
       xlink:href="#linearGradient3904"
       id="radialGradient3884"
       cx="389.16125"
       cy="151.58038"
       fx="389.16125"
       fy="151.58038"
       r="30.881741"
       gradientTransform="matrix(1,0,0,0.78415586,0,32.717738)"
       gradientUnits="userSpaceOnUse" />
    <radialGradient
       inkscape:collect="always"
       xlink:href="#linearGradient3904"
       id="radialGradient3886"
       cx="440.94699"
       cy="149.43752"
       fx="440.94699"
       fy="149.43752"
       r="26.596025"
       gradientTransform="matrix(1,0,0,0.91051566,0,13.372318)"
       gradientUnits="userSpaceOnUse" />
    <radialGradient
       inkscape:collect="always"
       xlink:href="#linearGradient3904"
       id="radialGradient3888"
       cx="492.55411"
       cy="149.08038"
       fx="492.55411"
       fy="149.08038"
       r="27.846025"
       gradientTransform="matrix(1,0,0,0.88246859,0,17.521628)"
       gradientUnits="userSpaceOnUse" />
    <radialGradient
       inkscape:collect="always"
       xlink:href="#linearGradient3904"
       id="radialGradient3890"
       cx="546.30414"
       cy="148.15858"
       fx="546.30414"
       fy="148.15858"
       r="25.524595"
       gradientTransform="matrix(1,0,0,0.95686571,0,6.3907157)"
       gradientUnits="userSpaceOnUse" />
    <radialGradient
       inkscape:collect="always"
       xlink:href="#linearGradient3904"
       id="radialGradient3892"
       cx="599.57349"
       cy="150.55232"
       fx="599.57349"
       fy="150.55232"
       r="25.57967"
       gradientTransform="matrix(1,0,0,0.84726381,0,22.994788)"
       gradientUnits="userSpaceOnUse" />
    <radialGradient
       inkscape:collect="always"
       xlink:href="#linearGradient3904"
       id="radialGradient3894"
       cx="653.64899"
       cy="150.30099"
       fx="653.64899"
       fy="150.30099"
       r="25.69389"
       gradientTransform="matrix(1,0,0,0.83937901,0,24.141495)"
       gradientUnits="userSpaceOnUse" />
    <radialGradient
       inkscape:collect="always"
       xlink:href="#linearGradient3904"
       id="radialGradient3896"
       cx="697.32141"
       cy="150.20529"
       fx="697.32141"
       fy="150.20529"
       r="12.67143"
       gradientTransform="matrix(1,0,0,1.6799658,0,-102.13446)"
       gradientUnits="userSpaceOnUse" />
  </defs>
  <sodipodi:namedview
     id="base"
     pagecolor="#ffffff"
     bordercolor="#666666"
     borderopacity="1.0"
     inkscape:pageopacity="0.0"
     inkscape:pageshadow="2"
     inkscape:zoom="0.49497475"
     inkscape:cx="136.24497"
     inkscape:cy="511.82673"
     inkscape:document-units="px"
     inkscape:current-layer="layer2"
     showgrid="false"
     inkscape:window-width="1357"
     inkscape:window-height="791"
     inkscape:window-x="362"
     inkscape:window-y="168"
     inkscape:window-maximized="0"
     showguides="true"
     inkscape:guide-bbox="true" />
  <metadata
     id="metadata7">
    <rdf:RDF>
      <cc:Work
         rdf:about="">
        <dc:format>image/svg+xml</dc:format>
        <dc:type
           rdf:resource="http://purl.org/dc/dcmitype/StillImage" />
        <dc:title></dc:title>
      </cc:Work>
    </rdf:RDF>
  </metadata>
  <g
     inkscape:groupmode="layer"
     id="layer2"
     inkscape:label="Блокнот"
     style="display:inline">
    <rect
       ry="30"
       y="178.63234"
       x="184.0406"
       height="818.57147"
       width="592.85718"
       id="rect3910"
       style="fill:#eae5df;fill-opacity:1;stroke:#000000;stroke-width:2;stroke-linejoin:round;stroke-miterlimit:4.5999999;stroke-opacity:1;stroke-dasharray:none" />
    <rect
       style="fill:#eae5df;fill-opacity:1;stroke:#000000;stroke-width:2;stroke-linejoin:round;stroke-miterlimit:4.5999999;stroke-opacity:1;stroke-dasharray:none"
       id="rect3780"
       width="592.85718"
       height="818.57147"
       x="180"
       y="172.57143"
       ry="30" />
    <path
       style="fill:none;stroke:#000000;stroke-width:1px;stroke-linecap:butt;stroke-linejoin:miter;stroke-opacity:1"
       d="m 242.43661,337.09627 c 3.36718,-1.34687 6.73435,-2.69374 10.10153,-4.04061 0.67343,-1.34687 0.67343,-3.36718 2.0203,-4.04061 1.80702,-0.90351 4.10093,0.49 6.06092,0 0.2836,-0.0709 3.45391,-3.64948 4.04061,-4.04061 1.25294,-0.83529 2.97581,-0.95551 4.04061,-2.02031 0.47619,-0.47619 -0.47619,-1.54411 0,-2.0203 0.95238,-0.95238 3.08823,0.95238 4.04061,0 0.47619,-0.47619 -0.47619,-1.54412 0,-2.02031 0.47619,-0.47619 1.54411,0.47619 2.0203,0 0.47619,-0.47619 0,-1.34687 0,-2.0203 1.34687,0 2.76286,0.42592 4.04061,0 3.26886,-1.08962 0.6299,-4.04061 6.06092,-4.04061 0.67343,0 1.54411,-0.47619 2.0203,0 0.47619,0.47619 -0.30117,1.41796 0,2.0203 0.42592,0.85184 1.34687,1.34687 2.02031,2.02031 0,1.34687 -0.32667,2.73395 0,4.04061 2.43898,9.75594 0.96009,-0.10013 4.04061,6.06091 0.60234,1.20468 -0.60234,2.83594 0,4.04061 0.42592,0.85184 1.34687,1.34687 2.0203,2.02031 0.67344,0.67343 1.16847,1.59439 2.02031,2.0203 0.60234,0.30117 1.34687,0 2.0203,0 0.67344,0 1.39504,0.25011 2.02031,0 2.79629,-1.11851 5.38748,-2.69374 8.08122,-4.04061 2.69374,-1.34687 5.44853,-2.578 8.08122,-4.04061 3.43261,-1.907 6.58932,-4.30481 10.10152,-6.06091 3.2437,-1.62185 6.78754,-2.56773 10.10153,-4.04061 2.75212,-1.22317 5.26128,-2.98314 8.08122,-4.04061 2.59985,-0.97495 5.52908,-0.92653 8.08122,-2.02031 3.3398,-1.43134 9.39768,-8.43314 14.14214,-6.06091 0.33362,0.16681 0,5.5234 0,6.06091 0,2.69374 0,5.38748 0,8.08122 0,0.67344 0,1.34687 0,2.02031 0,0.67343 -0.30117,1.41797 0,2.0203 0.42591,0.85184 1.59438,1.16847 2.0203,2.02031 1.39336,2.78672 -2.4467,1.80711 2.02031,4.04061 0.0386,0.0193 13.76306,0.0948 14.14213,0 3.51828,-0.87957 6.70587,-2.76724 10.10153,-4.04061 1.99399,-0.74775 4.15615,-1.06793 6.06091,-2.02031 3.51221,-1.7561 6.58932,-4.30481 10.10153,-6.06091 1.90476,-0.95238 4.06692,-1.27256 6.06091,-2.02031 3.39566,-1.27337 6.66107,-2.89379 10.10153,-4.04061 2.63415,-0.87805 5.48137,-1.04536 8.08122,-2.0203 2.81994,-1.05748 5.1854,-3.21324 8.08122,-4.04061 1.94257,-0.55502 4.07984,0.39621 6.06091,0 1.47661,-0.29532 2.61204,-1.54412 4.04062,-2.02031 0.63887,-0.21296 1.34687,0 2.0203,0 0.67344,0 1.54411,-0.47619 2.02031,0 0.47619,0.47619 -0.21296,1.38143 0,2.02031 0.47619,1.42857 1.18501,2.78767 2.0203,4.04061 0.52829,0.79243 1.78932,1.09636 2.02031,2.0203 0.48999,1.95999 0,4.04061 0,6.06092 0,0.67343 -0.30117,1.41797 0,2.0203 4.62307,9.24615 -0.83736,-8.57299 4.04061,6.06092 0.75518,2.26554 -1.54455,4.87263 2.0203,6.06091 4.23478,1.4116 13.89634,-2.6118 18.18275,-4.04061 4.04061,-1.34687 8.01273,-2.91994 12.12183,-4.04061 3.31286,-0.9035 6.84388,-0.93442 10.10152,-2.0203 2.85715,-0.95238 5.31304,-2.85425 8.08122,-4.04061 1.9574,-0.83889 4.15616,-1.06793 6.06092,-2.02031 0.85183,-0.42591 1.16847,-1.59438 2.0203,-2.0203 0.60234,-0.30117 1.34687,0 2.02031,0 0.67343,0 1.54411,-0.47619 2.0203,0 0.47619,0.47619 -0.30117,1.41796 0,2.0203 0.42592,0.85184 1.59439,1.16847 2.02031,2.02031 0.60234,1.20468 -0.60234,2.83593 0,4.04061 1.48634,2.97268 3.16993,2.0203 6.06091,2.0203 0.67344,0 1.38143,0.21296 2.02031,0 1.42857,-0.47619 2.64247,-1.46104 4.04061,-2.0203 3.95455,-1.58182 8.31231,-2.13585 12.12183,-4.04061 2.17176,-1.08588 3.75741,-3.27278 6.06091,-4.04061 1.91663,-0.63888 4.0681,0.33213 6.06092,0 4.20123,-0.70021 7.98982,-3.00761 12.12183,-4.04061 1.72144,-0.43036 4.2797,0 6.06092,0 0.67343,0 1.54411,-0.47619 2.0203,0 0.47619,0.47619 -0.16333,1.36698 0,2.0203 0.5165,2.06601 1.50381,3.99491 2.02031,6.06092 0.63173,2.52692 -0.82449,5.60776 0,8.08122 2.102,6.30602 1.34687,-0.67344 4.04061,2.0203 4.18008,4.18009 -6.38772,-0.1634 2.0203,4.04061 0.60234,0.30117 1.34687,0 2.02031,0 3.00149,0 5.56912,0.4918 8.08122,-2.0203 0.47619,-0.47619 -0.47619,-1.54412 0,-2.02031 1.71693,-1.71693 4.16488,-2.52378 6.06091,-4.04061 1.48737,-1.18989 2.33694,-3.18877 4.04061,-4.04061 1.20468,-0.60233 2.69374,0 4.04061,0 2.02031,-1.34687 3.97884,-2.79136 6.06092,-4.04061 3.86912,-2.32147 2.88083,-2.0203 6.06091,-2.0203 0.67344,0 1.71914,-0.60234 2.02031,0 0.37895,0.7579 0,10.91899 0,12.12183 0,1.34687 0,2.69374 0,4.04061 0,0.67343 -0.67344,2.0203 0,2.0203 0.95238,0 1.34687,-1.34687 2.0203,-2.0203 1.34687,-1.34687 2.33694,-3.18878 4.04061,-4.04061 1.20468,-0.60234 3.08823,0.95238 4.04061,0 1.50585,-1.50585 0.31664,-4.78316 2.02031,-6.06092 1.61624,-1.21218 4.10093,0.49 6.06091,0 0.92395,-0.23098 1.22788,-1.49202 2.02031,-2.0203 1.25294,-0.83529 2.83593,-1.1168 4.04061,-2.02031 5.26224,-3.94668 2.21295,-4.10482 8.08122,-6.06091 0.63888,-0.21296 1.34687,0 2.0203,0 0.67344,0 1.54412,-0.47619 2.02031,0 1.37245,1.37244 -2.06572,4.0179 2.0203,6.06091 0.60234,0.30117 1.34687,0 2.02031,0 0.67343,0 1.34687,0 2.02031,0 4.04061,0 8.08122,0 12.12183,0 0.67343,0 1.34687,0 2.0203,0 0.67344,0 1.54412,0.47619 2.02031,0 0.47619,-0.47619 0,-1.34687 0,-2.0203"
       id="path3914"
       inkscape:connector-curvature="0" />
    <path
       style="fill:none;stroke:#000000;stroke-width:1px;stroke-linecap:butt;stroke-linejoin:miter;stroke-opacity:1"
       d="m 252.53814,428.01 c 11.44839,0 22.89679,0 34.34518,0 4.71405,0 9.44438,0.39148 14.14214,0 3.422,-0.28517 6.73435,-1.34687 10.10152,-2.02031 3.36718,-0.67343 6.73435,-1.34687 10.10153,-2.0203 2.0203,-0.67344 3.97268,-1.60266 6.06091,-2.02031 1.98108,-0.39621 4.04061,0 6.06092,0 0.67343,0 1.34687,0 2.0203,0 0.67344,0 1.41797,-0.30117 2.02031,0 2.42437,1.21219 3.63655,4.84874 6.06092,6.06092 0.60233,0.30117 1.54411,-0.47619 2.0203,0 2.69374,2.69374 -4.28571,1.9386 2.02031,4.04061 1.27775,0.42592 2.69374,0 4.04061,0 0.67343,0 1.41796,-0.30117 2.0203,0 0.85184,0.42592 1.1168,1.71913 2.02031,2.0203 1.27775,0.42592 2.69374,0 4.04061,0 8.83755,0 4.10093,0.49 14.14213,-2.0203 9.64797,-2.41199 9.382,-2.12599 20.20305,-6.06092 3.40822,-1.23935 6.66107,-2.89379 10.10153,-4.04061 3.88385,-1.29461 10.25085,-2.09497 14.14213,-4.04061 0.85184,-0.42591 1.16847,-1.59438 2.02031,-2.0203 0.60234,-0.30117 1.54411,0.47619 2.0203,0 0.47619,-0.47619 -0.47619,-1.54412 0,-2.02031 0.18131,-0.18131 6.00912,-0.1036 6.06092,0 0.60234,1.20468 -0.42592,2.76286 0,4.04061 0.30117,0.90351 1.59439,1.16847 2.0203,2.02031 0.60234,1.20468 -0.95238,3.08823 0,4.04061 0.47619,0.47619 1.34687,0 2.02031,0 0.67343,0 1.34687,0 2.0203,0 2.02031,0 4.0681,0.33213 6.06092,0 7.61714,-1.26952 5.14102,-2.57051 12.12183,-6.06092 10.77496,-5.38748 1.5301,2.34711 14.14214,-6.06091 1.58485,-1.05657 2.5168,-2.89776 4.04061,-4.04061 3.53057,-2.64794 6.02707,-2.00339 10.10152,-4.04061 0.85184,-0.42592 1.16847,-1.59439 2.02031,-2.02031 0.10569,-0.0528 5.95522,-0.0528 6.06091,0 4.46701,2.23351 0.62695,1.25389 2.02031,4.04061 0.42591,0.85184 1.59438,1.16847 2.0203,2.02031 0.30117,0.60234 -0.47619,1.54411 0,2.0203 0.47619,0.47619 1.71914,-0.60234 2.02031,0 0.60234,1.20468 -0.60234,2.83594 0,4.04061 0.30117,0.60234 1.54411,-0.47619 2.0203,0 0.47619,0.47619 -0.47619,1.54412 0,2.02031 0.47619,0.47619 1.34687,0 2.02031,0 1.85868,0 4.24264,0.36365 6.06091,0 2.72273,-0.54455 5.59772,-0.77855 8.08122,-2.02031 1.70367,-0.85183 2.40729,-3.06062 4.04061,-4.04061 1.82611,-1.09566 4.08364,-1.22939 6.06092,-2.0203 1.39814,-0.55926 2.57972,-1.65509 4.04061,-2.02031 0.0675,-0.0169 6.05018,0.0107 6.06091,0 0.47619,-0.47619 -0.47619,-1.54411 0,-2.0203 0.47619,-0.47619 1.54412,-0.47619 2.02031,0 0.47619,0.47619 -0.30117,1.41796 0,2.0203 0.42592,0.85184 1.59439,1.16847 2.0203,2.02031 0.60234,1.20467 -0.60233,2.83593 0,4.04061 0.85184,1.70367 3.43828,2.23359 4.04061,4.04061 0.42592,1.27775 -0.60233,2.83593 0,4.04061 0.30117,0.60234 1.54412,-0.47619 2.02031,0 0.47619,0.47619 -0.47619,1.54411 0,2.0203 0.47619,0.47619 1.34687,0 2.0203,0 1.55485,0 9.43347,0.33403 10.10153,0 1.70367,-0.85183 2.28986,-3.29028 4.04061,-4.04061 3.15621,-1.35266 6.8863,-0.81459 10.10153,-2.0203 4.54701,-1.70513 7.7783,-5.90946 12.12183,-8.08122 4.58727,-2.29364 9.55486,-3.76728 14.14213,-6.06092 1.33598,-0.66799 9.01532,-5.12682 10.10153,-4.04061 0.47619,0.47619 -0.47619,1.54412 0,2.02031 0.47619,0.47619 1.54411,-0.47619 2.0203,0 0.47619,0.47619 0,1.34687 0,2.0203 0,1.34687 -0.60234,2.83594 0,4.04061 0.30117,0.60234 1.71914,-0.60234 2.02031,0 0.65352,1.30704 -0.72573,7.3555 0,8.08122 0.17205,0.17206 5.05812,0.33427 6.06091,0 1.42857,-0.47619 2.64247,-1.46104 4.04061,-2.0203 1.97728,-0.79091 4.08364,-1.2294 6.06092,-2.02031 4.13908,-1.65563 7.89581,-4.65224 12.12183,-6.06091 0.63887,-0.21296 1.34687,0 2.0203,0 0.67344,-0.67344 1.16847,-1.59439 2.02031,-2.02031 0.60234,-0.30117 1.54411,0.47619 2.0203,0 0.47619,-0.47619 -0.47619,-1.54411 0,-2.0203 0.47619,-0.47619 1.54412,-0.47619 2.02031,0 0.47619,0.47619 -0.30117,1.41796 0,2.0203 0.85183,1.70367 3.18877,2.33694 4.04061,4.04061 0.30117,0.60234 -0.30117,1.41797 0,2.02031 0.42592,0.85183 1.49202,1.22787 2.0203,2.0203 0.8353,1.25294 1.1168,2.83594 2.02031,4.04061 1.14286,1.52381 2.69374,2.69374 4.04061,4.04061 1.34687,1.34687 2.55324,2.85072 4.04061,4.04061 1.89603,1.51683 4.11843,2.58375 6.06091,4.04061 0.76191,0.57143 1.16847,1.59439 2.02031,2.02031 0.73061,0.3653 8.69632,0 10.10153,0"
       id="path3916"
       inkscape:connector-curvature="0" />
    <path
       style="fill:none;stroke:#000000;stroke-width:1px;stroke-linecap:butt;stroke-linejoin:miter;stroke-opacity:1"
       d="m 252.53814,535.08617 c 3.84326,-8.49313 11.00634,-1.97817 16.16244,-4.04061 1.76852,-0.70741 2.40729,-3.06062 4.04061,-4.04061 1.8261,-1.09567 4.08364,-1.2294 6.06091,-2.02031 1.39815,-0.55925 2.64247,-1.46104 4.04061,-2.0203 1.97728,-0.79091 4.08364,-1.2294 6.06092,-2.02031 1.39814,-0.55925 2.57972,-1.65508 4.04061,-2.0203 1.30665,-0.32667 2.73395,0.32666 4.04061,0 1.46088,-0.36522 2.61204,-1.54412 4.04061,-2.02031 0.25995,-0.0866 5.8936,-0.0837 6.06091,0 0.85184,0.42592 1.16847,1.59439 2.02031,2.02031 2.78672,1.39336 1.80711,-2.4467 4.04061,2.0203 0.30117,0.60234 -0.30117,1.41797 0,2.02031 0.42592,0.85183 1.59439,1.16847 2.0203,2.0203 0.30117,0.60234 -0.30117,1.41797 0,2.02031 0.42592,0.85183 1.49202,1.22787 2.02031,2.0203 0.83529,1.25294 0.95551,2.97582 2.0203,4.04061 0.47619,0.47619 1.34687,0 2.02031,0 1.34687,0 2.69374,0 4.04061,0 3.65121,0 10.96748,0.45353 14.14214,0 1.81246,-0.25892 11.83953,-2.88931 14.14213,-4.04061 0.85184,-0.42591 1.13604,-1.6666 2.02031,-2.0203 2.57804,-1.03122 5.50317,-0.98909 8.08122,-2.02031 0.88426,-0.3537 1.22787,-1.49202 2.0203,-2.0203 1.25294,-0.8353 2.69374,-1.34687 4.04061,-2.02031 1.34687,-0.67343 2.61204,-1.54411 4.04061,-2.0203 0.63888,-0.21296 1.34687,0 2.02031,0 0.67343,0 1.34687,0 2.0203,0 0.67344,0 1.71914,-0.60234 2.02031,0 0.60234,1.20467 -0.42592,2.76285 0,4.04061 0.60234,1.80701 3.18877,2.33694 4.04061,4.04061 0.30117,0.60234 -0.47619,1.54411 0,2.0203 0.47619,0.47619 1.34687,0 2.0203,0 1.34687,0 2.69374,0 4.04061,0 1.34687,0 2.73396,0.32667 4.04061,0 13.18976,-3.29744 -7.63306,-1.08484 10.10153,-4.04061 1.99281,-0.33213 4.14428,0.63888 6.06091,0 2.30351,-0.76783 4.11843,-2.58374 6.06092,-4.04061 0.7619,-0.57143 1.1168,-1.71913 2.0203,-2.0203 1.27776,-0.42592 2.69374,0 4.04061,0 0.67344,0 1.41797,0.30117 2.02031,0 0.85183,-0.42592 1.16847,-1.59439 2.0203,-2.02031 0.60234,-0.30117 1.54412,-0.47619 2.02031,0 0.95238,0.95238 -0.60234,2.83594 0,4.04061 0.42592,0.85184 1.16847,1.59439 2.0203,2.02031 0.1057,0.0528 5.95523,0.0528 6.06092,0 0.85183,-0.42592 1.16847,-1.59439 2.0203,-2.02031 0.80104,-0.40051 5.6479,0.41303 6.06092,0 0.47619,-0.47619 -0.47619,-1.54411 0,-2.0203 0.47619,-0.47619 1.34687,0 2.0203,0 0.67344,0 1.54412,-0.47619 2.02031,0 0.95238,0.95238 -0.95238,3.08823 0,4.04061 0.47619,0.47619 1.54411,-0.47619 2.0203,0 0.4762,0.47619 -0.47619,1.54411 0,2.0203 0.4762,0.47619 1.34688,0 2.02031,0 4.04061,0 8.08122,0 12.12183,0 0.67344,0 1.41797,0.30117 2.02031,0 0.85183,-0.42591 1.16847,-1.59438 2.0203,-2.0203 0.60234,-0.30117 1.54412,0.47619 2.02031,0 0.47619,-0.47619 -0.47619,-1.54412 0,-2.02031 0.47619,-0.47619 1.54411,-0.47619 2.0203,0 0.47619,0.47619 -0.47619,1.54412 0,2.02031 0.47619,0.47619 1.54412,-0.47619 2.02031,0 0.95238,0.95238 -0.95238,3.08823 0,4.04061 0.47619,0.47619 1.34687,0 2.0203,0 0.67344,0 1.34687,0 2.02031,0 1.75076,0 6.9109,0.3901 8.08122,0 14.63391,-4.87797 -3.18523,0.58246 6.06091,-4.04061 1.20468,-0.60234 3.08823,0.95238 4.04061,0 0.47619,-0.47619 -0.47619,-1.54412 0,-2.02031 0.47619,-0.47619 1.34687,0 2.02031,0 0.67343,0 1.41796,-0.30117 2.0203,0 0.85184,0.42592 1.34687,1.34687 2.02031,2.02031"
       id="path3918"
       inkscape:connector-curvature="0" />
    <path
       style="fill:none;stroke:#000000;stroke-width:1px;stroke-linecap:butt;stroke-linejoin:miter;stroke-opacity:1"
       d="m 254.55844,632.06081 c 5.29724,-1.26984 10.82911,0.76191 16.16244,0 5.49748,-0.78535 10.7414,-2.83593 16.16244,-4.04061 3.35209,-0.74491 6.72306,-1.40604 10.10153,-2.0203 4.03027,-0.73278 8.14779,-1.0268 12.12183,-2.02031 4.13201,-1.033 7.97172,-3.08289 12.12183,-4.04061 6.27491,-5.4345 13.56654,-0.693 20.20305,-2.0203 1.4766,-0.29532 2.53476,-2.02031 4.04061,-2.02031 0.95238,0 1.71914,1.1168 2.02031,2.02031 0.39401,1.18203 0,10.38774 0,12.12183 0,0.67343 0,1.34687 0,2.0203 0,0.67344 -0.30117,1.41797 0,2.02031 2.2335,4.467 1.25388,0.62694 4.04061,2.0203 1.70367,0.85184 2.23359,3.43827 4.04061,4.04061 1.27775,0.42592 2.69374,0 4.04061,0 4.04061,0 8.08122,0 12.12183,0 2.69374,0 5.39854,0.24388 8.08122,0 4.74235,-0.43112 9.42809,-1.34687 14.14213,-2.0203 14.44973,-2.06425 14.24366,-1.38071 28.28427,-6.06092 3.44046,-1.14682 6.85784,-2.41876 10.10153,-4.04061 2.17176,-1.08588 3.72623,-3.37356 6.06091,-4.04061 2.5901,-0.74003 5.4398,0.52829 8.08122,0 0.93389,-0.18678 1.06793,-2.0203 2.02031,-2.0203 0.67343,0 0,1.34687 0,2.0203 0,2.69374 0,5.38748 0,8.08122 0,0.67344 -0.60234,1.71914 0,2.02031 1.20468,0.60234 2.69374,0 4.04061,0 3.36718,0 6.75494,0.37184 10.10153,0 4.07129,-0.45237 8.09156,-1.28753 12.12183,-2.02031 25.62526,-4.65914 -7.23068,1.3026 22.22335,-6.06091 7.94808,-1.98702 16.24606,-2.26337 24.24366,-4.04061 2.07888,-0.46198 3.99491,-1.50381 6.06092,-2.02031 5.61423,-1.40356 -2.76341,6.24669 6.06091,4.04061 1.46089,-0.36522 2.69374,-1.34687 4.04061,-2.0203 2.02031,0 4.07985,0.39621 6.06092,0 1.4766,-0.29532 2.64247,-1.46105 4.04061,-2.02031 1.97727,-0.79091 4.04061,-1.34687 6.06091,-2.0203 2.02031,-0.67344 3.99492,-1.50381 6.06092,-2.02031 2.69374,-0.67343 2.0203,0 2.0203,2.02031 0,0.67343 0,1.34687 0,2.0203 0,0.67344 -0.60233,1.71914 0,2.02031 1.80702,0.90351 4.04062,0 6.06092,0 2.02031,0 4.0681,0.33213 6.06092,0 2.10061,-0.35011 4.04061,-1.34687 6.06091,-2.02031 2.02031,-0.67343 4.04061,-1.34687 6.06092,-2.0203 2.0203,-0.67344 4.2348,-0.92464 6.06091,-2.02031 1.63332,-0.97999 2.33694,-3.18877 4.04061,-4.04061 1.20468,-0.60234 2.83593,0.60234 4.04061,0 0.60234,-0.30117 -0.47619,-1.54411 0,-2.0203 0.47619,-0.47619 1.34687,0 2.02031,0 1.34687,0 2.83593,-0.60234 4.04061,0 0.60234,0.30117 -0.47619,1.54411 0,2.0203 0.47619,0.47619 1.54411,-0.47619 2.0203,0 0.47619,0.47619 -0.47619,1.54412 0,2.02031 0.47619,0.47619 1.71914,-0.60234 2.02031,0 0.60234,1.20467 0,2.69374 0,4.04061 0,0.67343 -0.47619,1.54411 0,2.0203 0.065,0.065 5.57093,0 6.06091,0 1.71049,0 6.99509,0.36204 8.08122,0 0.90351,-0.30117 1.16847,-1.59439 2.02031,-2.0203 0.60234,-0.30117 1.34687,0 2.0203,0 1.34687,0 2.76286,0.42591 4.04061,0 0.90351,-0.30117 1.22788,-1.49202 2.02031,-2.02031 1.45488,-0.96992 5.13269,-2.94852 6.06091,-2.0203 0.47619,0.47619 0,1.34687 0,2.0203 0,3.36718 0,6.73435 0,10.10153 0,0.67343 -0.47619,1.54411 0,2.0203 0.47619,0.47619 1.34687,0 2.02031,0 2.13712,0 13.10133,0.34694 14.14213,0 0.90351,-0.30117 1.1168,-1.71913 2.02031,-2.0203 1.27775,-0.42592 2.83593,0.60234 4.04061,0 0.60234,-0.30117 -0.47619,-1.54412 0,-2.02031 0.47619,-0.47619 1.34687,0 2.0203,0 3.36718,0 6.73435,0 10.10153,0 2.02031,0 4.07984,0.39622 6.06092,0 5.47224,-1.09445 3.31991,-3.20413 8.08122,-6.06091 4.20401,-2.52241 9.93812,-1.5182 14.14213,-4.04061 1.29125,-0.77475 0.95551,-2.97582 2.02031,-4.04061 0.47619,-0.47619 1.34687,0 2.0203,0 0.67344,0 1.34687,0 2.02031,0"
       id="path3920"
       inkscape:connector-curvature="0" />
    <path
       sodipodi:type="arc"
       style="fill:#a8a8a8;fill-opacity:1;stroke:#8d8d8d;stroke-width:5.69999981;stroke-linecap:round;stroke-linejoin:round;stroke-miterlimit:4;stroke-opacity:1;stroke-dasharray:none"
       id="path3922"
       sodipodi:cx="465.68033"
       sodipodi:cy="818.93903"
       sodipodi:rx="102.02541"
       sodipodi:ry="102.02541"
       d="m 567.70574,818.93903 a 102.02541,102.02541 0 1 1 -204.05083,0 102.02541,102.02541 0 1 1 204.05083,0 z" />
    <path
       style="fill:none;stroke:#000000;stroke-width:1px;stroke-linecap:butt;stroke-linejoin:miter;stroke-opacity:1"
       d="m 462.64987,688.62936 c 6.06091,0 12.12183,0 18.18274,0 0.67344,0 1.54412,-0.4762 2.02031,0 0.47619,0.47619 0.47619,1.54411 0,2.0203 -0.47619,0.47619 -1.38143,-0.21296 -2.02031,0 -1.42857,0.47619 -2.78767,1.18501 -4.04061,2.02031 -1.66949,1.11299 -3.49991,4.31095 -4.04061,4.04061 -3.85685,-1.92843 -6.01072,-9.44483 -10.10152,-8.08122 -3.44046,1.14681 1.77511,7.26965 4.04061,10.10152 0.84138,1.05173 2.76285,-0.42592 4.04061,0 0.9035,0.30117 1.16847,1.59439 2.0203,2.02031 1.20468,0.60233 3.08823,-0.95239 4.04061,0 2.69374,2.69374 -3.36717,2.0203 2.02031,2.0203"
       id="path3926"
       inkscape:connector-curvature="0" />
    <path
       style="fill:none;stroke:#000000;stroke-width:1px;stroke-linecap:butt;stroke-linejoin:miter;stroke-opacity:1"
       d="m 581.84787,735.09637 c 4.80199,-2.04953 7.63551,-2.0203 12.12183,-2.0203 0.67343,0 1.54411,-0.47619 2.0203,0 1.57658,1.57658 -3.96004,6.07434 -4.04061,6.06091 -3.57721,-0.5962 -8.08987,-7.05809 -10.10152,-4.04061 -9.13531,13.70296 7.58409,9.26238 10.10152,10.10153 0.90351,0.30117 1.1168,1.71913 2.02031,2.0203 1.91663,0.63888 4.04061,0 6.06091,0"
       id="path3928"
       inkscape:connector-curvature="0" />
    <path
       style="fill:none;stroke:#000000;stroke-width:1px;stroke-linecap:butt;stroke-linejoin:miter;stroke-opacity:1"
       d="m 357.594,941.16749 c 2.69374,0 5.38748,0 8.08122,0 2.69374,0 5.38748,0 8.08122,0 0.67344,0 2.02031,-0.67343 2.02031,0 0,0.67344 -1.41797,-0.30117 -2.02031,0 -2.26096,1.13048 -2.8613,5.10715 -6.06091,4.04061 -3.44046,-1.14682 -8.08988,-7.05809 -10.10153,-4.04061 -2.17818,3.26727 3.60788,7.03524 6.06092,10.10153 0.2405,0.30063 5.71232,-0.3486 6.06091,0 0.47619,0.47619 -0.47619,1.54411 0,2.0203 0.47619,0.47619 1.34687,0 2.02031,0 0.67343,0 1.34687,0 2.0203,0 0.67344,0 1.54412,-0.47619 2.02031,0 0.47619,0.47619 0.67343,2.02031 0,2.02031 -0.67344,0 0,-1.34687 0,-2.02031"
       id="path3932"
       inkscape:connector-curvature="0" />
    <path
       d="m 567.70574,818.93903 a 102.02541,102.02541 0 1 1 -204.05083,0 102.02541,102.02541 0 1 1 204.05083,0 z"
       sodipodi:ry="102.02541"
       sodipodi:rx="102.02541"
       sodipodi:cy="818.93903"
       sodipodi:cx="465.68033"
       id="path3940"
       style="fill:#a8a8a8;fill-opacity:1;stroke:#8d8d8d;stroke-width:5.69999981;stroke-linecap:round;stroke-linejoin:round;stroke-miterlimit:4;stroke-opacity:1;stroke-dasharray:none"
       sodipodi:type="arc"
       transform="matrix(0.59545898,0,0,0.59545898,186.3665,331.29443)" />
    <path
       style="fill:none;stroke:#000000;stroke-width:1px;stroke-linecap:butt;stroke-linejoin:miter;stroke-opacity:1"
       d="m 313.14729,815.90858 c 325.26912,0 323.24881,0 323.24881,0"
       id="path3938"
       inkscape:connector-curvature="0" />
    <path
       style="fill:none;stroke:#000000;stroke-width:1px;stroke-linecap:butt;stroke-linejoin:miter;stroke-opacity:1"
       d="m 466.69048,664.38569 0,292.94424"
       id="path3936"
       inkscape:connector-curvature="0" />
    <path
       style="fill:none;stroke:#000000;stroke-width:1px;stroke-linecap:butt;stroke-linejoin:miter;stroke-opacity:1"
       d="m 567.70573,870.45681 c -1.61967,8.51536 -7.03019,0.48464 -10.10153,2.02031 -0.85183,0.42592 -2.95419,2.20708 -2.0203,2.0203 13.86706,-2.77341 11.75599,-10.00596 18.18275,6.06092 0.2501,0.62527 -1.41797,-0.30117 -2.02031,0 -8.40803,4.20401 2.15978,-0.13947 -2.0203,4.04061 -1.20374,1.20373 -6.06092,-2.0164 -6.06092,2.0203 0,0.67344 1.34687,0 2.02031,0"
       id="path3944"
       inkscape:connector-curvature="0" />
    <path
       style="fill:none;stroke:#000000;stroke-width:1px;stroke-linecap:butt;stroke-linejoin:miter;stroke-opacity:1"
       d="m 585.88848,900.76139 c 1.03244,12.19497 -7.67342,-0.4078 -10.10153,2.0203 -0.47619,0.4762 0,1.34687 0,2.02031 0,0.67343 0.47619,1.54411 0,2.0203 -0.47619,0.4762 -1.54411,-0.47619 -2.0203,0 -0.95239,0.95239 0.95238,3.08823 0,4.04061 -0.4762,0.4762 -1.41797,-0.30116 -2.02031,0 -0.85184,0.42592 -1.34687,1.34688 -2.0203,2.02031 -2.93308,2.93307 -2.02031,2.18706 -2.02031,6.06092 0,0.67343 -0.47619,1.54411 0,2.0203 0.47619,0.47619 1.34687,0 2.02031,0 0.67343,0 1.34687,0 2.0203,0 1.34687,0 2.69374,0 4.04061,0 0.67344,0 1.54412,0.47619 2.02031,0 1.01015,-1.01015 -1.01016,-5.05076 0,-6.06091 0.47619,-0.4762 1.34687,0 2.0203,0"
       id="path3948"
       inkscape:connector-curvature="0" />
    <path
       style="fill:none;stroke:#000000;stroke-width:1px;stroke-linecap:butt;stroke-linejoin:miter;stroke-opacity:1"
       d="m 618.21336,918.94414 c -2.69374,1.34687 -5.28494,2.92209 -8.08122,4.04061 -1.25054,0.50021 -2.83594,-0.60234 -4.04061,0 -1.34687,0.67343 -3.36718,3.36717 -2.02031,4.04061 1.20468,0.60233 2.8712,0.66823 4.04061,0 3.74394,-2.1394 6.24468,-10.00965 10.10153,-8.08122 3.5122,1.7561 -4.30481,6.58931 -6.06092,10.10152 -0.30117,0.60234 0.47619,1.54412 0,2.02031 -0.47619,0.47619 -1.54411,-0.47619 -2.0203,0 -0.20203,0.20203 -0.20203,5.85888 0,6.06091 0.47619,0.47619 2.0203,-0.67343 2.0203,0 0,1.90807 -9.42809,-3.81613 2.02031,0 7.48948,2.4965 -2.46266,2.02031 4.04061,2.02031"
       id="path3950"
       inkscape:connector-curvature="0" />
    <path
       style="fill:none;stroke:#000000;stroke-width:1px;stroke-linecap:butt;stroke-linejoin:miter;stroke-opacity:1"
       d="m 604.07122,882.57864 c 8.73455,-2.18363 5.30458,-2.0203 10.10153,-2.0203 0.67343,0 1.54411,-0.47619 2.0203,0 0.47619,0.47619 0.47619,1.54411 0,2.0203 -2.42436,2.42437 -16.16244,-12.12183 -12.12183,0 2.1207,6.36209 9.18497,6.06092 14.14214,6.06092 0.67343,0 1.41796,-0.30117 2.0203,0 0.52599,0.26299 3.41367,2.64725 2.02031,4.04061 -0.95238,0.95238 -2.83594,-0.60234 -4.04061,0 -0.85184,0.42592 -1.16847,1.59439 -2.02031,2.0203 -5.94537,2.97269 2.6599,-4.6802 -4.04061,2.02031 -1.51742,1.51743 -4.04061,4.46957 -4.04061,2.0203 0,-0.67343 2.02031,-0.67343 2.02031,0 0,0.67344 -1.34687,0 -2.02031,0"
       id="path3954"
       inkscape:connector-curvature="0" />
  </g>
  <g
     inkscape:groupmode="layer"
     id="layer3"
     inkscape:label="Дырки"
     style="display:inline">
    <path
       sodipodi:type="arc"
       style="fill:#000000;fill-opacity:1;stroke:#7e714e;stroke-width:2;stroke-linejoin:round;stroke-miterlimit:4.5999999;stroke-opacity:1;stroke-dasharray:none"
       id="path3785"
       sodipodi:cx="254.05336"
       sodipodi:cy="214.1102"
       sodipodi:rx="16.162441"
       sodipodi:ry="14.89975"
       d="m 270.2158,214.1102 a 16.162441,14.89975 0 1 1 -32.32488,0 16.162441,14.89975 0 1 1 32.32488,0 z"
       transform="translate(0,0.99005127)" />
    <path
       d="m 270.2158,214.1102 a 16.162441,14.89975 0 1 1 -32.32488,0 16.162441,14.89975 0 1 1 32.32488,0 z"
       sodipodi:ry="14.89975"
       sodipodi:rx="16.162441"
       sodipodi:cy="214.1102"
       sodipodi:cx="254.05336"
       id="path3787"
       style="fill:#000000;fill-opacity:1;stroke:#7e714e;stroke-width:2;stroke-linejoin:round;stroke-miterlimit:4.5999999;stroke-opacity:1;stroke-dasharray:none"
       sodipodi:type="arc"
       transform="translate(54.548237,0.99005127)" />
    <path
       transform="translate(109.60155,0.99005127)"
       d="m 270.2158,214.1102 a 16.162441,14.89975 0 1 1 -32.32488,0 16.162441,14.89975 0 1 1 32.32488,0 z"
       sodipodi:ry="14.89975"
       sodipodi:rx="16.162441"
       sodipodi:cy="214.1102"
       sodipodi:cx="254.05336"
       id="path3789"
       style="fill:#000000;fill-opacity:1;stroke:#7e714e;stroke-width:2;stroke-linejoin:round;stroke-miterlimit:4.5999999;stroke-opacity:1;stroke-dasharray:none"
       sodipodi:type="arc" />
    <path
       transform="translate(164.14978,0.99005127)"
       sodipodi:type="arc"
       style="fill:#000000;fill-opacity:1;stroke:#7e714e;stroke-width:2;stroke-linejoin:round;stroke-miterlimit:4.5999999;stroke-opacity:1;stroke-dasharray:none"
       id="path3791"
       sodipodi:cx="254.05336"
       sodipodi:cy="214.1102"
       sodipodi:rx="16.162441"
       sodipodi:ry="14.89975"
       d="m 270.2158,214.1102 a 16.162441,14.89975 0 1 1 -32.32488,0 16.162441,14.89975 0 1 1 32.32488,0 z" />
    <path
       transform="translate(216.17264,0.99005127)"
       d="m 270.2158,214.1102 a 16.162441,14.89975 0 1 1 -32.32488,0 16.162441,14.89975 0 1 1 32.32488,0 z"
       sodipodi:ry="14.89975"
       sodipodi:rx="16.162441"
       sodipodi:cy="214.1102"
       sodipodi:cx="254.05336"
       id="path3793"
       style="fill:#000000;fill-opacity:1;stroke:#7e714e;stroke-width:2;stroke-linejoin:round;stroke-miterlimit:4.5999999;stroke-opacity:1;stroke-dasharray:none"
       sodipodi:type="arc" />
    <path
       transform="translate(270.72088,0.99005127)"
       sodipodi:type="arc"
       style="fill:#000000;fill-opacity:1;stroke:#7e714e;stroke-width:2;stroke-linejoin:round;stroke-miterlimit:4.5999999;stroke-opacity:1;stroke-dasharray:none"
       id="path3795"
       sodipodi:cx="254.05336"
       sodipodi:cy="214.1102"
       sodipodi:rx="16.162441"
       sodipodi:ry="14.89975"
       d="m 270.2158,214.1102 a 16.162441,14.89975 0 1 1 -32.32488,0 16.162441,14.89975 0 1 1 32.32488,0 z" />
    <path
       sodipodi:type="arc"
       style="fill:#000000;fill-opacity:1;stroke:#7e714e;stroke-width:2;stroke-linejoin:round;stroke-miterlimit:4.5999999;stroke-opacity:1;stroke-dasharray:none"
       id="path3797"
       sodipodi:cx="254.05336"
       sodipodi:cy="214.1102"
       sodipodi:rx="16.162441"
       sodipodi:ry="14.89975"
       d="m 270.2158,214.1102 a 16.162441,14.89975 0 1 1 -32.32488,0 16.162441,14.89975 0 1 1 32.32488,0 z"
       transform="translate(325.77419,0.99005127)" />
    <path
       d="m 270.2158,214.1102 a 16.162441,14.89975 0 1 1 -32.32488,0 16.162441,14.89975 0 1 1 32.32488,0 z"
       sodipodi:ry="14.89975"
       sodipodi:rx="16.162441"
       sodipodi:cy="214.1102"
       sodipodi:cx="254.05336"
       id="path3799"
       style="fill:#000000;fill-opacity:1;stroke:#7e714e;stroke-width:2;stroke-linejoin:round;stroke-miterlimit:4.5999999;stroke-opacity:1;stroke-dasharray:none"
       sodipodi:type="arc"
       transform="translate(380.32242,0.99005127)" />
    <path
       transform="translate(432.34528,0.99005127)"
       sodipodi:type="arc"
       style="fill:#000000;fill-opacity:1;stroke:#7e714e;stroke-width:2;stroke-linejoin:round;stroke-miterlimit:4.5999999;stroke-opacity:1;stroke-dasharray:none"
       id="path3801"
       sodipodi:cx="254.05336"
       sodipodi:cy="214.1102"
       sodipodi:rx="16.162441"
       sodipodi:ry="14.89975"
       d="m 270.2158,214.1102 a 16.162441,14.89975 0 1 1 -32.32488,0 16.162441,14.89975 0 1 1 32.32488,0 z" />
  </g>
  <g
     inkscape:groupmode="layer"
     id="layer4"
     inkscape:label="Сшивка"
     style="display:inline">
    <path
       style="fill:none;stroke:url(#radialGradient3896);stroke-width:5.69999981;stroke-linecap:round;stroke-linejoin:round;stroke-miterlimit:4;stroke-opacity:1;stroke-dasharray:none"
       d="m 687.5,168.64286 c 1.34262,-16.11746 -5.72612,-38.46556 19.64286,-36.78572"
       id="path3852"
       inkscape:connector-curvature="0"
       sodipodi:nodetypes="cc" />
    <path
       style="fill:none;stroke:url(#radialGradient3894);stroke-width:5.69999981;stroke-linecap:round;stroke-linejoin:round;stroke-miterlimit:4;stroke-opacity:1;stroke-dasharray:none;display:inline"
       d="m 631.48667,169.01791 c -0.37499,-16.18599 -3.46103,-32.3093 7.51488,-35.46738 4.48732,-3.27193 12.55205,-1.64334 26.43728,-0.8876 11.81282,1.50305 11.05366,14.34511 11.03989,35.28356"
       id="path3848"
       inkscape:connector-curvature="0"
       sodipodi:nodetypes="cccc" />
    <path
       sodipodi:nodetypes="cccc"
       inkscape:connector-curvature="0"
       id="path3844"
       d="m 576.84382,169.37505 c 1.41072,-15.11456 -1.67532,-32.66644 9.30059,-35.82452 4.48732,-3.27193 12.19491,-1.2862 26.08014,-0.53046 11.81282,1.50305 9.98223,14.34511 9.96846,35.28356"
       style="fill:none;stroke:url(#radialGradient3892);stroke-width:5.69999981;stroke-linecap:round;stroke-linejoin:round;stroke-miterlimit:4;stroke-opacity:1;stroke-dasharray:none;display:inline" />
    <path
       style="fill:none;stroke:url(#radialGradient3890);stroke-width:5.69999981;stroke-linecap:round;stroke-linejoin:round;stroke-miterlimit:4;stroke-opacity:1;stroke-dasharray:none;display:inline"
       d="m 523.62953,168.30362 c 1.41072,-15.11456 -2.38961,-36.23787 8.5863,-39.39595 4.48732,-3.27193 11.83777,-2.35763 25.723,-1.60189 11.81282,1.50305 7.83937,21.48797 11.03989,42.42642"
       id="path3840"
       inkscape:connector-curvature="0"
       sodipodi:nodetypes="cccc" />
    <path
       sodipodi:nodetypes="cccc"
       inkscape:connector-curvature="0"
       id="path3836"
       d="m 467.5581,170.08933 c 1.41072,-15.11456 -2.38961,-36.23787 8.5863,-39.39595 4.48732,-3.27193 15.4092,-3.7862 29.29443,-3.03046 11.81282,1.50305 8.9108,22.20225 12.11132,43.1407"
       style="fill:none;stroke:url(#radialGradient3888);stroke-width:5.69999981;stroke-linecap:round;stroke-linejoin:round;stroke-miterlimit:4;stroke-opacity:1;stroke-dasharray:none;display:inline" />
    <path
       style="fill:none;stroke:url(#radialGradient3886);stroke-width:5.69999981;stroke-linecap:round;stroke-linejoin:round;stroke-miterlimit:4;stroke-opacity:1;stroke-dasharray:none;display:inline"
       d="m 417.20096,170.80362 c 1.41072,-15.11456 -2.38961,-36.23787 8.5863,-39.39595 4.48732,-3.27193 15.4092,-3.7862 29.29443,-3.03046 11.81282,1.50305 8.55366,21.13082 9.61132,42.42641"
       id="path3832"
       inkscape:connector-curvature="0"
       sodipodi:nodetypes="cccc" />
    <path
       sodipodi:nodetypes="cccc"
       inkscape:connector-curvature="0"
       id="path3828"
       d="m 361.12953,172.94648 c 1.41072,-15.11456 -2.38961,-36.23787 8.5863,-39.39595 4.48732,-3.27193 15.4092,-3.7862 29.29443,-3.03046 15.79409,0.37335 13.22119,21.28386 18.18275,42.42641"
       style="fill:none;stroke:url(#radialGradient3884);stroke-width:5.69999981;stroke-linecap:round;stroke-linejoin:round;stroke-miterlimit:4;stroke-opacity:1;stroke-dasharray:none;display:inline" />
    <path
       style="fill:none;stroke:url(#radialGradient3882);stroke-width:5.69999981;stroke-linecap:round;stroke-linejoin:round;stroke-miterlimit:4;stroke-opacity:1;stroke-dasharray:none;display:inline"
       d="m 254.55844,173.45156 c -0.0489,-14.34959 -1.33127,-29.68601 5.05076,-38.89088 10.43824,-2.82643 20.87649,-2.20728 31.31473,-2.52538 13.51526,2.85462 12.55393,16.95681 11.11169,40.91118"
       id="path3808"
       inkscape:connector-curvature="0"
       sodipodi:nodetypes="cccc" />
    <path
       style="fill:none;stroke:url(#radialGradient3880);stroke-width:5.69999981;stroke-linecap:round;stroke-linejoin:round;stroke-miterlimit:4;stroke-opacity:1;stroke-dasharray:none"
       d="m 225.76909,136.58099 c 4.88241,-1.30321 9.76481,0.31252 14.64722,3.03046 4.04061,0.009 8.08122,39.26131 12.12183,68.18529"
       id="path3804"
       inkscape:connector-curvature="0"
       sodipodi:nodetypes="ccc" />
    <path
       style="fill:none;stroke:url(#radialGradient3878);stroke-width:5;stroke-linecap:round;stroke-linejoin:round;stroke-miterlimit:4;stroke-opacity:1;stroke-dasharray:none;display:inline"
       d="m 239.91123,138.60129 c -0.0305,-3.64479 4.24107,-5.44587 13.63706,-5.05076 11.4029,38.7595 11.26958,73.09718 10.6066,76.77159"
       id="path3806"
       inkscape:connector-curvature="0"
       sodipodi:nodetypes="ccc" />
    <path
       style="fill:none;stroke:url(#radialGradient3876);stroke-width:5.69999981;stroke-linecap:round;stroke-linejoin:round;stroke-miterlimit:4;stroke-opacity:1;stroke-dasharray:none;display:inline"
       d="m 310.11683,173.45156 c 1.41072,-15.11456 -4.40992,-39.26833 6.56599,-42.42641 l 28.78935,-1.51523 c 15.11696,4.03316 13.22718,27.28874 13.13199,43.43656"
       id="path3818"
       inkscape:connector-curvature="0"
       sodipodi:nodetypes="cccc" />
    <path
       style="fill:none;stroke:url(#radialGradient3874);stroke-width:5.69999981;stroke-linecap:round;stroke-linejoin:round;stroke-miterlimit:4;stroke-opacity:1;stroke-dasharray:none;display:inline"
       d="m 307.08637,212.84751 c -5.87006,-33.1217 -6.45784,-55.67881 -8.58629,-81.31728 3.62538,-2.33434 7.65948,-3.0338 12.6269,0 5.87607,22.47531 7.64576,51.7946 9.59645,80.8122"
       id="path3816"
       inkscape:connector-curvature="0"
       sodipodi:nodetypes="cccc" />
    <path
       sodipodi:nodetypes="cccc"
       inkscape:connector-curvature="0"
       id="path3826"
       d="m 356.07877,212.34243 c -5.87006,-33.1217 -7.46799,-60.72957 -6.56598,-80.8122 3.62538,-2.33434 5.63917,-3.53888 10.60659,-0.50508 5.37099,2.27226 5.12038,52.29968 9.59645,80.8122"
       style="fill:none;stroke:url(#radialGradient3872);stroke-width:5.69999981;stroke-linecap:round;stroke-linejoin:round;stroke-miterlimit:4;stroke-opacity:1;stroke-dasharray:none;display:inline" />
    <path
       style="fill:none;stroke:url(#radialGradient3870);stroke-width:5.69999981;stroke-linecap:round;stroke-linejoin:round;stroke-miterlimit:4;stroke-opacity:1;stroke-dasharray:none;display:inline"
       d="m 413.22163,210.55672 c -5.87006,-33.1217 -7.46799,-60.72957 -6.56598,-80.8122 3.62538,-2.33434 5.63917,-3.53888 10.60659,-0.50508 5.37099,2.27226 5.12038,52.29968 9.59645,80.8122"
       id="path3830"
       inkscape:connector-curvature="0"
       sodipodi:nodetypes="cccc" />
    <path
       sodipodi:nodetypes="cccc"
       inkscape:connector-curvature="0"
       id="path3834"
       d="m 461.07877,207.69958 c -5.87006,-33.1217 -7.46799,-60.72957 -6.56598,-80.8122 3.62538,-2.33434 6.35346,-3.18174 11.32088,-0.14794 5.37099,2.27226 2.62038,54.79968 9.59645,80.8122"
       style="fill:none;stroke:url(#radialGradient3868);stroke-width:5.69999981;stroke-linecap:round;stroke-linejoin:round;stroke-miterlimit:4;stroke-opacity:1;stroke-dasharray:none;display:inline" />
    <path
       style="fill:none;stroke:url(#radialGradient3866);stroke-width:5.69999981;stroke-linecap:round;stroke-linejoin:round;stroke-miterlimit:4;stroke-opacity:1;stroke-dasharray:none;display:inline"
       d="m 520.72163,209.48529 c -1.85657,-33.1217 -7.25529,-60.72957 -6.56598,-80.8122 3.62538,-2.33434 6.35346,-3.18174 11.32088,-0.14794 6.24291,3.64241 7.78618,62.91736 9.59645,80.8122"
       id="path3838"
       inkscape:connector-curvature="0"
       sodipodi:nodetypes="cccc" />
    <path
       sodipodi:nodetypes="cccc"
       inkscape:connector-curvature="0"
       id="path3842"
       d="m 571.07877,214.48529 c -3.26697,-33.1217 -7.97096,-60.01528 -6.92312,-80.09791 3.62538,-2.33434 6.7106,-3.89603 11.67802,-0.86223 5.53682,5.76067 8.39855,66.43738 9.59645,80.8122"
       style="fill:none;stroke:url(#radialGradient3864);stroke-width:5.69999981;stroke-linecap:round;stroke-linejoin:round;stroke-miterlimit:4;stroke-opacity:1;stroke-dasharray:none;display:inline" />
    <path
       style="fill:none;stroke:url(#radialGradient3862);stroke-width:5.69999981;stroke-linecap:round;stroke-linejoin:round;stroke-miterlimit:4;stroke-opacity:1;stroke-dasharray:none;display:inline"
       d="m 628.93591,213.05672 c -3.26697,-33.1217 -7.61382,-60.72957 -6.56598,-80.8122 3.62538,-2.33434 6.35346,-3.18174 11.32088,-0.14794 5.57131,5.76067 6.51987,67.50881 7.81074,81.88363"
       id="path3846"
       inkscape:connector-curvature="0"
       sodipodi:nodetypes="cccc" />
    <path
       sodipodi:nodetypes="cccc"
       inkscape:connector-curvature="0"
       id="path3850"
       d="m 684.6502,215.19957 c -3.26697,-33.1217 -6.18525,-61.08671 -5.13741,-81.16934 3.62538,-2.33434 6.35346,-3.18174 11.32088,-0.14794 5.57131,5.76067 5.80558,63.93738 7.09645,78.3122"
       style="fill:none;stroke:url(#radialGradient3860);stroke-width:5.69999981;stroke-linecap:round;stroke-linejoin:round;stroke-miterlimit:4;stroke-opacity:1;stroke-dasharray:none;display:inline" />
  </g>
</svg>
