<?xml version="1.0" encoding="UTF-8" standalone="no"?>
<!-- Created with Inkscape (http://www.inkscape.org/) -->

<svg
   xmlns:dc="http://purl.org/dc/elements/1.1/"
   xmlns:cc="http://creativecommons.org/ns#"
   xmlns:rdf="http://www.w3.org/1999/02/22-rdf-syntax-ns#"
   xmlns:svg="http://www.w3.org/2000/svg"
   xmlns="http://www.w3.org/2000/svg"
   xmlns:xlink="http://www.w3.org/1999/xlink"
   xmlns:sodipodi="http://sodipodi.sourceforge.net/DTD/sodipodi-0.dtd"
   xmlns:inkscape="http://www.inkscape.org/namespaces/inkscape"
   width="1024"
   height="1024"
   id="svg2"
   version="1.1"
   inkscape:version="0.48.2 r9819"
   sodipodi:docname="openDatabaseIcon.svg">
  <defs
     id="defs4">
    <linearGradient
       id="linearGradient3933">
      <stop
         style="stop-color:#f3f3f3;stop-opacity:1;"
         offset="0"
         id="stop3935" />
      <stop
         style="stop-color:#b3b3b3;stop-opacity:1;"
         offset="1"
         id="stop3937" />
    </linearGradient>
    <linearGradient
       id="linearGradient3887">
      <stop
         id="stop3889"
         offset="0"
         style="stop-color:#d8d2d8;stop-opacity:1;" />
      <stop
         id="stop3891"
         offset="1"
         style="stop-color:#8b788c;stop-opacity:1;" />
    </linearGradient>
    <linearGradient
       id="linearGradient3853">
      <stop
         style="stop-color:#c1b7c1;stop-opacity:1;"
         offset="0"
         id="stop3855" />
      <stop
         style="stop-color:#746474;stop-opacity:1;"
         offset="1"
         id="stop3857" />
    </linearGradient>
    <linearGradient
       id="linearGradient3843">
      <stop
         style="stop-color:#e8e6e8;stop-opacity:1;"
         offset="0"
         id="stop3845" />
      <stop
         style="stop-color:#867387;stop-opacity:1;"
         offset="1"
         id="stop3847" />
    </linearGradient>
    <inkscape:path-effect
       effect="spiro"
       id="path-effect3814"
       is_visible="true" />
    <inkscape:path-effect
       effect="spiro"
       id="path-effect3841"
       is_visible="true" />
    <linearGradient
       id="linearGradient3932">
      <stop
         style="stop-color:#b99800;stop-opacity:1;"
         offset="0"
         id="stop3934" />
      <stop
         style="stop-color:#ffdd55;stop-opacity:1;"
         offset="1"
         id="stop3936" />
    </linearGradient>
    <linearGradient
       id="linearGradient3904">
      <stop
         id="stop3922"
         offset="0"
         style="stop-color:#c59b00;stop-opacity:0.49803922;" />
      <stop
         style="stop-color:#c59b00;stop-opacity:0;"
         offset="1"
         id="stop3908" />
    </linearGradient>
    <linearGradient
       inkscape:collect="always"
       id="linearGradient3878">
      <stop
         style="stop-color:#000000;stop-opacity:1;"
         offset="0"
         id="stop3880" />
      <stop
         style="stop-color:#000000;stop-opacity:0;"
         offset="1"
         id="stop3882" />
    </linearGradient>
    <linearGradient
       inkscape:collect="always"
       xlink:href="#linearGradient3878"
       id="linearGradient3884"
       x1="543.79047"
       y1="565.4007"
       x2="386.94315"
       y2="804.25452"
       gradientUnits="userSpaceOnUse" />
    <linearGradient
       inkscape:collect="always"
       xlink:href="#linearGradient3932"
       id="linearGradient3862"
       x1="334.52603"
       y1="504.67084"
       x2="169.37529"
       y2="295.37439"
       gradientUnits="userSpaceOnUse"
       gradientTransform="matrix(1.0156022,0,0,1.1460442,-4.9419418,-45.099246)" />
    <linearGradient
       inkscape:collect="always"
       xlink:href="#linearGradient3932"
       id="linearGradient3872"
       x1="384.98538"
       y1="798.52704"
       x2="389.2316"
       y2="426.9577"
       gradientUnits="userSpaceOnUse"
       gradientTransform="matrix(1.0163485,0,0,1.0523491,-9.783226,-33.086317)" />
    <linearGradient
       inkscape:collect="always"
       xlink:href="#linearGradient3853"
       id="linearGradient3859"
       x1="91.924393"
       y1="478.62579"
       x2="344.31323"
       y2="478.62579"
       gradientUnits="userSpaceOnUse"
       gradientTransform="matrix(1.0585396,0,0,1.011409,-19.621142,97.766265)" />
    <linearGradient
       inkscape:collect="always"
       xlink:href="#linearGradient3853"
       id="linearGradient3873"
       x1="92.206429"
       y1="596.09149"
       x2="344.53763"
       y2="596.09149"
       gradientUnits="userSpaceOnUse"
       gradientTransform="matrix(1.0568964,0,0,1.0060935,-20.304794,95.47312)" />
    <linearGradient
       inkscape:collect="always"
       xlink:href="#linearGradient3853"
       id="linearGradient3883"
       x1="92.206444"
       y1="714.88312"
       x2="344.53763"
       y2="714.88312"
       gradientUnits="userSpaceOnUse"
       gradientTransform="matrix(1.0565312,0,0,0.99873687,-19.78433,96.983539)" />
    <linearGradient
       inkscape:collect="always"
       xlink:href="#linearGradient3843"
       id="linearGradient3885"
       x1="88.077408"
       y1="408.65869"
       x2="348.79803"
       y2="408.65869"
       gradientUnits="userSpaceOnUse" />
    <linearGradient
       inkscape:collect="always"
       xlink:href="#linearGradient3933"
       id="linearGradient3939"
       x1="633.37415"
       y1="816.59528"
       x2="633.90894"
       y2="908.15588"
       gradientUnits="userSpaceOnUse"
       gradientTransform="translate(-416.96478,-86.380599)" />
  </defs>
  <sodipodi:namedview
     id="base"
     pagecolor="#ffffff"
     bordercolor="#666666"
     borderopacity="1.0"
     inkscape:pageopacity="0.0"
     inkscape:pageshadow="2"
     inkscape:zoom="0.22203125"
     inkscape:cx="-1766.9051"
     inkscape:cy="82.168846"
     inkscape:document-units="px"
     inkscape:current-layer="layer3"
     showgrid="false"
     inkscape:window-width="1920"
     inkscape:window-height="1032"
     inkscape:window-x="0"
     inkscape:window-y="0"
     inkscape:window-maximized="1"
     showguides="true"
     inkscape:guide-bbox="true" />
  <metadata
     id="metadata7">
    <rdf:RDF>
      <cc:Work
         rdf:about="">
        <dc:format>image/svg+xml</dc:format>
        <dc:type
           rdf:resource="http://purl.org/dc/dcmitype/StillImage" />
        <dc:title />
      </cc:Work>
    </rdf:RDF>
  </metadata>
  <g
     inkscape:groupmode="layer"
     id="layer1"
     inkscape:label="Папка"
     style="display:inline">
    <path
       style="fill:url(#linearGradient3862);fill-opacity:1;fill-rule:nonzero;stroke:#aa8800;stroke-width:21.8655777;stroke-linecap:butt;stroke-linejoin:round;stroke-miterlimit:4;stroke-opacity:0;stroke-dasharray:none;stroke-dashoffset:0"
       d="M 48.810399,854.11762 C 48.740329,848.43981 45.3414,719.23765 41.257228,567.00168 37.173054,414.7657 33.830435,288.64143 33.829185,286.72555 l -0.0022,-3.48343 27.355014,-0.38781 c 26.658431,-0.3779 27.425526,-0.46259 30.124056,-3.32571 1.732555,-1.83824 10.433985,-23.20237 23.246455,-57.07579 l 20.47735,-54.13786 77.18863,0.12659 c 141.79803,0.23257 326.85234,1.74871 327.6811,2.68466 0.45056,0.50888 7.42451,24.02659 15.49763,52.26156 8.0731,28.23498 15.27455,52.5986 16.00321,54.14135 0.72863,1.54279 2.67395,3.21238 4.32295,3.71025 1.64898,0.49785 75.4268,0.78783 163.95072,0.64438 l 160.95257,-0.26077 0,22.03612 0,22.03613 -22.01306,0.0956 c -12.10716,0.0525 -45.23363,0.51871 -73.61438,1.03581 -45.17758,0.82312 -51.96098,1.2061 -54.49048,3.07634 -1.58902,1.17492 -16.6461,20.45205 -33.46012,42.83811 l -30.57103,40.70194 -231.79623,0 c -127.48792,0 -252.79143,0.38606 -278.4522,0.85791 -45.11758,0.82962 -46.74422,0.94663 -49.33192,3.54861 -2.45015,2.46368 -5.76747,20.9833 -39.314283,219.47939 -20.151068,119.23378 -37.089836,219.11142 -37.641702,221.95033 -0.890827,4.58257 -1.017687,4.00349 -1.130792,-5.16165 l 0,0 z"
       id="path3854"
       inkscape:connector-curvature="0" />
    <path
       style="fill:url(#linearGradient3872);fill-opacity:1;fill-rule:nonzero;stroke:#aa8800;stroke-width:20.96040344;stroke-linecap:butt;stroke-linejoin:round;stroke-miterlimit:4;stroke-opacity:0;stroke-dasharray:none;stroke-dashoffset:0"
       d="m 50.771582,875.98273 c 0.02869,-3.22205 85.721298,-465.80089 86.424398,-466.52911 0.39826,-0.4125 123.88764,-0.88178 274.42081,-1.04284 174.38423,-0.18659 275.15006,-0.71426 277.70202,-1.45424 3.35761,-0.97356 9.00189,-7.28865 34.90345,-39.05165 16.99398,-20.83965 31.67061,-38.13859 32.6147,-38.44209 0.94411,-0.30349 33.45481,-0.91442 72.24599,-1.35762 l 70.52939,-0.80583 20.12187,40.7768 c 11.06703,22.4272 21.17472,41.76332 22.46153,42.96912 2.17033,2.0337 4.56591,2.17292 33.1036,1.92373 l 30.76396,-0.26863 -1.6839,9.25829 c -24.58722,135.17592 -82.73216,452.18998 -82.98246,452.4311 -0.18813,0.18126 -182.89859,0.65554 -406.02321,1.05398 -223.12462,0.39842 -418.941581,1.04472 -435.148804,1.43624 -24.402178,0.58946 -29.465208,0.43524 -29.453344,-0.89725 z"
       id="path3864"
       inkscape:connector-curvature="0" />
    <path
       style="fill:none;stroke:#aa8800;stroke-width:18;stroke-linecap:butt;stroke-linejoin:round;stroke-miterlimit:4;stroke-opacity:1;stroke-dasharray:none"
       d="m 46.164673,874.2463 -18.015482,-597.88881 60.802252,0 42.786767,-100.21111 412.10415,2.25193 31.5271,97.95918 325.40464,-1.12596 0,57.42435 41.6608,82.19563 68.684,-1.12596 -86.69948,458.26882 z"
       id="path3850"
       inkscape:connector-curvature="0"
       sodipodi:nodetypes="cccccccccccc" />
    <path
       style="fill:none;stroke:#aa8800;stroke-width:18;stroke-linecap:butt;stroke-linejoin:round;stroke-miterlimit:4;stroke-opacity:1;stroke-dasharray:none"
       d="m 49.542576,864.1126 86.699504,-453.76496 549.47221,-1.12597 63.05418,-74.31386 153.1316,-2.25193"
       id="path3852"
       inkscape:connector-curvature="0" />
  </g>
  <g
     inkscape:groupmode="layer"
     id="layer2"
     inkscape:label="Database"
     style="display:inline">
    <path
       style="fill:url(#linearGradient3859);fill-opacity:1;stroke:none"
       d="m 175.4478,644.00212 c -51.50028,-1.98672 -89.632974,-6.84031 -96.288474,-12.25576 -1.3784,-1.12158 -1.47486,-4.85454 -1.47486,-57.06939 0,-54.96759 0.0263,-55.85587 1.62855,-55.03653 6.72545,3.43908 35.028814,7.391 70.429754,9.83389 20.45145,1.41131 103.47315,1.4245 123.46836,0.0196 32.11493,-2.2564 54.76796,-5.12824 65.26949,-8.27463 2.80678,-0.84093 5.38769,-1.53365 5.73535,-1.53937 0.34764,-0.006 0.63208,25.19459 0.63208,56.00068 l 0,56.01106 -3.96087,1.67409 c -8.4884,3.58764 -31.18639,6.8469 -63.68722,9.14502 -16.04351,1.13442 -84.85895,2.14302 -101.75216,1.49131 l 0,0 z"
       id="path3851"
       inkscape:connector-curvature="0" />
    <path
       sodipodi:type="arc"
       style="color:#000000;fill:url(#linearGradient3885);fill-opacity:1;fill-rule:nonzero;stroke:#564756;stroke-width:4;stroke-miterlimit:4;stroke-opacity:1;stroke-dasharray:none;marker:none;visibility:visible;display:inline;overflow:visible;enable-background:accumulate"
       id="path3778"
       sodipodi:cx="218.43771"
       sodipodi:cy="408.65869"
       sodipodi:rx="128.36031"
       sodipodi:ry="15.200563"
       d="m 346.79802,408.65869 a 128.36031,15.200563 0 1 1 -256.720612,0 128.36031,15.200563 0 1 1 256.720612,0 z"
       transform="matrix(1.0437233,0,0,0.970669,-17.428174,119.58403)" />
    <path
       style="fill:none;stroke:none"
       d="m 188.85596,756.87689 c -41.86931,-0.91814 -77.5314,-3.72764 -95.771714,-7.54502 -5.16153,-1.08022 -11.11338,-2.9255 -12.75552,-3.95466 l -1.37132,-0.85945 -0.10533,-54.80055 c -0.1002,-52.10406 -0.0694,-54.78656 0.62325,-54.51607 13.48162,5.26416 43.264594,8.78731 90.267814,10.67813 15.5621,0.62602 65.69649,0.6288 81.43712,0.005 46.64336,-1.84992 77.96475,-5.55015 90.2664,-10.66386 0.69059,-0.28709 0.72711,2.4548 0.72711,54.60421 l 0,54.90647 -2.47362,1.16126 c -10.24441,4.80941 -43.61459,8.7723 -87.89665,10.43819 -10.92684,0.41106 -52.62123,0.77326 -62.94756,0.54682 z"
       id="path3863"
       inkscape:connector-curvature="0" />
    <path
       style="fill:url(#linearGradient3873);fill-opacity:1;stroke:none"
       d="m 188.5829,758.22677 c -42.39776,-0.95166 -78.50994,-3.86368 -96.980464,-7.82039 -5.2267,-1.11963 -11.25366,-3.03225 -12.91651,-4.09897 l -1.38864,-0.89081 -0.10653,-56.80049 c -0.1014,-54.00561 -0.0703,-56.78599 0.63112,-56.50565 13.65178,5.4563 43.810634,9.108 91.407104,11.06784 15.75849,0.64888 66.52564,0.65176 82.46495,0.005 47.23205,-1.91743 78.94876,-5.75271 91.40565,-11.05305 0.69933,-0.29757 0.73631,2.54441 0.73631,56.597 l 0,56.91027 -2.50485,1.20366 c -10.37372,4.98492 -44.16506,9.09243 -89.006,10.81911 -11.06477,0.42609 -53.28539,0.80149 -63.74204,0.56678 z"
       id="path3865"
       inkscape:connector-curvature="0" />
    <path
       transform="matrix(1.0437233,0,0,0.970669,-17.428168,233.03735)"
       sodipodi:type="arc"
       style="color:#000000;fill:none;stroke:#564756;stroke-width:4;stroke-miterlimit:4;stroke-opacity:1;stroke-dasharray:none;marker:none;visibility:visible;display:inline;overflow:visible;enable-background:accumulate"
       id="path3778-8-4"
       sodipodi:cx="218.43771"
       sodipodi:cy="408.65869"
       sodipodi:rx="128.36031"
       sodipodi:ry="15.200563"
       d="m 346.79802,408.65869 a 128.36031,15.200563 0 1 1 -256.720612,0"
       sodipodi:start="0"
       sodipodi:end="3.1415927"
       sodipodi:open="true" />
    <path
       style="fill:url(#linearGradient3883);fill-opacity:1;fill-rule:nonzero;stroke:none"
       d="m 199.75631,874.12827 c -41.41778,-0.31528 -85.3343,-3.43888 -105.989724,-7.53864 -5.93861,-1.17872 -11.93935,-2.95168 -14.30018,-4.22511 l -1.68238,-0.90747 -0.10653,-56.98474 c -0.1014,-54.18172 -0.0703,-56.97032 0.63089,-56.69204 13.62911,5.4093 44.404504,9.10089 91.585804,10.98597 15.90385,0.63541 66.30049,0.63491 82.22614,-8.4e-4 46.8106,-1.86865 78.9812,-5.72945 91.37406,-10.96578 0.69909,-0.2954 0.73605,2.54204 0.73605,56.52482 0,53.62873 -0.0415,56.87074 -0.73605,57.45425 -1.88782,1.58614 -9.26254,3.73271 -18.61128,5.41722 -25.21589,4.54359 -75.19303,7.31245 -125.12675,6.93236 z"
       id="path3875"
       inkscape:connector-curvature="0" />
    <path
       style="fill:none;stroke:#564756;stroke-width:4.01680422;stroke-linecap:round;stroke-linejoin:miter;stroke-miterlimit:4;stroke-opacity:1;stroke-dasharray:none"
       d="m 344.53301,516.08132 0,344.66764"
       id="path3808"
       inkscape:connector-curvature="0" />
    <path
       style="fill:none;stroke:#564756;stroke-width:4.03250456;stroke-linecap:round;stroke-linejoin:miter;stroke-miterlimit:4;stroke-opacity:1;stroke-dasharray:none"
       d="m 76.379976,515.96369 0,344.27059"
       id="path3806"
       inkscape:connector-curvature="0" />
    <path
       transform="matrix(1.0437233,0,0,0.970669,-17.428168,347.79624)"
       sodipodi:type="arc"
       style="color:#000000;fill:none;stroke:#564756;stroke-width:4;stroke-miterlimit:4;stroke-opacity:1;stroke-dasharray:none;marker:none;visibility:visible;display:inline;overflow:visible;enable-background:accumulate"
       id="path3778-8-6"
       sodipodi:cx="218.43771"
       sodipodi:cy="408.65869"
       sodipodi:rx="128.36031"
       sodipodi:ry="15.200563"
       d="m 346.79802,408.65869 a 128.36031,15.200563 0 1 1 -256.720612,0"
       sodipodi:start="0"
       sodipodi:end="3.1415927"
       sodipodi:open="true" />
    <path
       transform="matrix(1.0437233,0,0,0.970669,-17.428167,463.56238)"
       sodipodi:type="arc"
       style="color:#000000;fill:none;stroke:#564756;stroke-width:4;stroke-miterlimit:4;stroke-opacity:1;stroke-dasharray:none;marker:none;visibility:visible;display:inline;overflow:visible;enable-background:accumulate"
       id="path3778-8"
       sodipodi:cx="218.43771"
       sodipodi:cy="408.65869"
       sodipodi:rx="128.36031"
       sodipodi:ry="15.200563"
       d="m 346.79802,408.65869 a 128.36031,15.200563 0 1 1 -256.720612,0"
       sodipodi:start="0"
       sodipodi:end="3.1415927"
       sodipodi:open="true" />
  </g>
  <g
     inkscape:groupmode="layer"
     id="layer3"
     inkscape:label="Мишень"
     style="display:inline">
    <rect
       style="fill:url(#linearGradient3939);fill-opacity:1;stroke:#000000;stroke-width:3.954;stroke-linejoin:bevel;stroke-miterlimit:4;stroke-opacity:1;stroke-dasharray:none"
       id="rect3163"
       width="315.84875"
       height="93.152954"
       x="51.984852"
       y="729.81659"
       ry="0" />
    <g
       transform="matrix(0.10081011,0,0,0.10081011,77.684985,696.88089)"
       id="layer1-4"
       inkscape:label="Layer 1">
      <path
         transform="matrix(1.0601064,0,0,1.1113547,52.086017,592.40412)"
         d="m 384.86813,182.72137 a 191.67645,182.83762 0 1 1 -383.3529017,0 191.67645,182.83762 0 1 1 383.3529017,0 z"
         sodipodi:ry="182.83762"
         sodipodi:rx="191.67645"
         sodipodi:cy="182.72137"
         sodipodi:cx="193.19168"
         id="path2987"
         style="fill:#141414;fill-opacity:1;stroke:#000000;stroke-opacity:1"
         sodipodi:type="arc" />
      <path
         transform="matrix(1.4893553,0,0,1.4683785,-70.333774,498.61504)"
         d="m 272.74118,202.16681 a 53.033009,53.790623 0 1 1 -106.06601,0 53.033009,53.790623 0 1 1 106.06601,0 z"
         sodipodi:ry="53.790623"
         sodipodi:rx="53.033009"
         sodipodi:cy="202.16681"
         sodipodi:cx="219.70818"
         id="path3769"
         style="color:#000000;fill:#000000;fill-opacity:1;stroke:#000000;stroke-width:1px;stroke-opacity:1;marker:none;visibility:visible;display:inline;overflow:visible;enable-background:accumulate"
         sodipodi:type="arc" />
    </g>
    <g
       inkscape:label="Layer 1"
       id="g3139"
       transform="matrix(0.10081011,0,0,0.10081011,132.93299,696.88089)">
      <path
         sodipodi:type="arc"
         style="fill:#141414;fill-opacity:1;stroke:#000000;stroke-opacity:1"
         id="path3141"
         sodipodi:cx="193.19168"
         sodipodi:cy="182.72137"
         sodipodi:rx="191.67645"
         sodipodi:ry="182.83762"
         d="m 384.86813,182.72137 a 191.67645,182.83762 0 1 1 -383.3529017,0 191.67645,182.83762 0 1 1 383.3529017,0 z"
         transform="matrix(1.0601064,0,0,1.1113547,52.086017,592.40412)" />
      <path
         sodipodi:type="arc"
         style="color:#000000;fill:#000000;fill-opacity:1;stroke:#000000;stroke-width:1px;stroke-opacity:1;marker:none;visibility:visible;display:inline;overflow:visible;enable-background:accumulate"
         id="path3143"
         sodipodi:cx="219.70818"
         sodipodi:cy="202.16681"
         sodipodi:rx="53.033009"
         sodipodi:ry="53.790623"
         d="m 272.74118,202.16681 a 53.033009,53.790623 0 1 1 -106.06601,0 53.033009,53.790623 0 1 1 106.06601,0 z"
         transform="matrix(1.4893553,0,0,1.4683785,-70.333774,498.61504)" />
    </g>
    <g
       inkscape:label="Layer 1"
       id="g3145"
       transform="matrix(0.10081011,0,0,0.10081011,185.96538,696.88089)">
      <path
         sodipodi:type="arc"
         style="fill:#141414;fill-opacity:1;stroke:#000000;stroke-opacity:1"
         id="path3147"
         sodipodi:cx="193.19168"
         sodipodi:cy="182.72137"
         sodipodi:rx="191.67645"
         sodipodi:ry="182.83762"
         d="m 384.86813,182.72137 a 191.67645,182.83762 0 1 1 -383.3529017,0 191.67645,182.83762 0 1 1 383.3529017,0 z"
         transform="matrix(1.0601064,0,0,1.1113547,52.086017,592.40412)" />
      <path
         sodipodi:type="arc"
         style="color:#000000;fill:#000000;fill-opacity:1;stroke:#000000;stroke-width:1px;stroke-opacity:1;marker:none;visibility:visible;display:inline;overflow:visible;enable-background:accumulate"
         id="path3149"
         sodipodi:cx="219.70818"
         sodipodi:cy="202.16681"
         sodipodi:rx="53.033009"
         sodipodi:ry="53.790623"
         d="m 272.74118,202.16681 a 53.033009,53.790623 0 1 1 -106.06601,0 53.033009,53.790623 0 1 1 106.06601,0 z"
         transform="matrix(1.4893553,0,0,1.4683785,-70.333774,498.61504)" />
    </g>
    <g
       transform="matrix(0.10081011,0,0,0.10081011,239.62102,696.88089)"
       id="g3151"
       inkscape:label="Layer 1">
      <path
         transform="matrix(1.0601064,0,0,1.1113547,52.086017,592.40412)"
         d="m 384.86813,182.72137 a 191.67645,182.83762 0 1 1 -383.3529017,0 191.67645,182.83762 0 1 1 383.3529017,0 z"
         sodipodi:ry="182.83762"
         sodipodi:rx="191.67645"
         sodipodi:cy="182.72137"
         sodipodi:cx="193.19168"
         id="path3153"
         style="fill:#141414;fill-opacity:1;stroke:#000000;stroke-opacity:1"
         sodipodi:type="arc" />
      <path
         transform="matrix(1.4893553,0,0,1.4683785,-70.333774,498.61504)"
         d="m 272.74118,202.16681 a 53.033009,53.790623 0 1 1 -106.06601,0 53.033009,53.790623 0 1 1 106.06601,0 z"
         sodipodi:ry="53.790623"
         sodipodi:rx="53.033009"
         sodipodi:cy="202.16681"
         sodipodi:cx="219.70818"
         id="path3155"
         style="color:#000000;fill:#000000;fill-opacity:1;stroke:#000000;stroke-width:1px;stroke-opacity:1;marker:none;visibility:visible;display:inline;overflow:visible;enable-background:accumulate"
         sodipodi:type="arc" />
    </g>
    <g
       inkscape:label="Layer 1"
       id="g3157"
       transform="matrix(0.10081011,0,0,0.10081011,292.16885,696.88089)">
      <path
         sodipodi:type="arc"
         style="fill:#141414;fill-opacity:1;stroke:#000000;stroke-opacity:1"
         id="path3159"
         sodipodi:cx="193.19168"
         sodipodi:cy="182.72137"
         sodipodi:rx="191.67645"
         sodipodi:ry="182.83762"
         d="m 384.86813,182.72137 a 191.67645,182.83762 0 1 1 -383.3529017,0 191.67645,182.83762 0 1 1 383.3529017,0 z"
         transform="matrix(1.0601064,0,0,1.1113547,52.086017,592.40412)" />
      <path
         sodipodi:type="arc"
         style="color:#000000;fill:#000000;fill-opacity:1;stroke:#000000;stroke-width:1px;stroke-opacity:1;marker:none;visibility:visible;display:inline;overflow:visible;enable-background:accumulate"
         id="path3161"
         sodipodi:cx="219.70818"
         sodipodi:cy="202.16681"
         sodipodi:rx="53.033009"
         sodipodi:ry="53.790623"
         d="m 272.74118,202.16681 a 53.033009,53.790623 0 1 1 -106.06601,0 53.033009,53.790623 0 1 1 106.06601,0 z"
         transform="matrix(1.4893553,0,0,1.4683785,-70.333774,498.61504)" />
    </g>
  </g>
</svg>
