<?xml version="1.0" encoding="UTF-8" standalone="no"?>
<!-- Created with Inkscape (http://www.inkscape.org/) -->

<svg
   xmlns:dc="http://purl.org/dc/elements/1.1/"
   xmlns:cc="http://creativecommons.org/ns#"
   xmlns:rdf="http://www.w3.org/1999/02/22-rdf-syntax-ns#"
   xmlns:svg="http://www.w3.org/2000/svg"
   xmlns="http://www.w3.org/2000/svg"
   xmlns:xlink="http://www.w3.org/1999/xlink"
   xmlns:sodipodi="http://sodipodi.sourceforge.net/DTD/sodipodi-0.dtd"
   xmlns:inkscape="http://www.inkscape.org/namespaces/inkscape"
   width="1024"
   height="1024"
   id="svg2"
   version="1.1"
   inkscape:version="0.48.2 r9819"
   sodipodi:docname="Новый документ 1">
  <defs
     id="defs4">
    <linearGradient
       id="linearGradient3948">
      <stop
         id="stop3950"
         offset="0"
         style="stop-color:#f2e58a;stop-opacity:1;" />
      <stop
         id="stop3952"
         offset="1"
         style="stop-color:#efe28a;stop-opacity:0;" />
    </linearGradient>
    <linearGradient
       id="linearGradient3930">
      <stop
         style="stop-color:#f8c30d;stop-opacity:1;"
         offset="0"
         id="stop3932" />
      <stop
         style="stop-color:#bf9506;stop-opacity:1;"
         offset="1"
         id="stop3934" />
    </linearGradient>
    <linearGradient
       id="linearGradient3906">
      <stop
         style="stop-color:#585858;stop-opacity:1;"
         offset="0"
         id="stop3908" />
      <stop
         style="stop-color:#323232;stop-opacity:1;"
         offset="1"
         id="stop3910" />
    </linearGradient>
    <linearGradient
       id="linearGradient3896">
      <stop
         style="stop-color:#f49e58;stop-opacity:1;"
         offset="0"
         id="stop3898" />
      <stop
         style="stop-color:#dc6a0f;stop-opacity:1;"
         offset="1"
         id="stop3900" />
    </linearGradient>
    <inkscape:path-effect
       effect="spiro"
       id="path-effect3878"
       is_visible="true" />
    <inkscape:path-effect
       effect="spiro"
       id="path-effect3104"
       is_visible="true" />
    <linearGradient
       inkscape:collect="always"
       xlink:href="#linearGradient3896"
       id="linearGradient3902"
       x1="501.11569"
       y1="474.14395"
       x2="563.31787"
       y2="534.75311"
       gradientUnits="userSpaceOnUse" />
    <linearGradient
       inkscape:collect="always"
       xlink:href="#linearGradient3906"
       id="linearGradient3912"
       x1="482.95966"
       y1="492.91489"
       x2="545.74103"
       y2="552.51385"
       gradientUnits="userSpaceOnUse" />
    <linearGradient
       inkscape:collect="always"
       xlink:href="#linearGradient3930"
       id="linearGradient3922"
       x1="436.89096"
       y1="541.65216"
       x2="493.9646"
       y2="599.23083"
       gradientUnits="userSpaceOnUse" />
    <linearGradient
       inkscape:collect="always"
       xlink:href="#linearGradient3948"
       id="linearGradient3946"
       x1="409.54807"
       y1="644.52838"
       x2="385.62885"
       y2="620.28473"
       gradientUnits="userSpaceOnUse" />
    <linearGradient
       inkscape:collect="always"
       xlink:href="#linearGradient3906"
       id="linearGradient3960"
       x1="360.16376"
       y1="659.31018"
       x2="393.12796"
       y2="659.31018"
       gradientUnits="userSpaceOnUse" />
  </defs>
  <sodipodi:namedview
     id="base"
     pagecolor="#ffffff"
     bordercolor="#666666"
     borderopacity="1.0"
     inkscape:pageopacity="0.0"
     inkscape:pageshadow="2"
     inkscape:zoom="0.7"
     inkscape:cx="193.74251"
     inkscape:cy="475.39862"
     inkscape:document-units="px"
     inkscape:current-layer="layer2"
     showgrid="false"
     inkscape:window-width="1332"
     inkscape:window-height="800"
     inkscape:window-x="266"
     inkscape:window-y="117"
     inkscape:window-maximized="0" />
  <metadata
     id="metadata7">
    <rdf:RDF>
      <cc:Work
         rdf:about="">
        <dc:format>image/svg+xml</dc:format>
        <dc:type
           rdf:resource="http://purl.org/dc/dcmitype/StillImage" />
        <dc:title></dc:title>
      </cc:Work>
    </rdf:RDF>
  </metadata>
  <g
     inkscape:label="Layer 1"
     inkscape:groupmode="layer"
     id="layer1"
     transform="translate(0,-28.362183)"
     style="display:inline" />
  <g
     inkscape:groupmode="layer"
     id="layer2"
     inkscape:label="pencil"
     style="display:inline">
    <path
       style="fill:none;stroke:#000000;stroke-width:1px;stroke-linecap:butt;stroke-linejoin:miter;stroke-opacity:1"
       d="m 519.64286,453.28571 -133.92857,134.28572 -26.07143,88.57143 89.28571,-26.07143 134.64286,-133.92857 c 4.56243,-22.18125 -39.94361,-68.84161 -63.92857,-62.85715 z"
       id="path3880"
       inkscape:connector-curvature="0"
       sodipodi:nodetypes="cccccc" />
    <path
       style="fill:none;stroke:#000000;stroke-width:1px;stroke-linecap:butt;stroke-linejoin:miter;stroke-opacity:1;display:inline"
       d="m 479.64286,492.92857 63.92857,63.21428"
       id="path3888"
       inkscape:connector-curvature="0"
       sodipodi:nodetypes="cc" />
    <path
       style="fill:none;stroke:#000000;stroke-width:1px;stroke-linecap:butt;stroke-linejoin:miter;stroke-opacity:1;display:inline"
       d="m 385.625,587.57142 30.08929,1.78572 0.35714,30.35715 31.78571,0.71428 0.89286,29.73214"
       id="path3882"
       inkscape:connector-curvature="0"
       sodipodi:nodetypes="ccccc" />
    <path
       style="fill:none;stroke:#000000;stroke-width:1px;stroke-linecap:butt;stroke-linejoin:miter;stroke-opacity:1;display:inline"
       d="m 369.64286,641.76785 24.64285,24.37501"
       id="path3884"
       inkscape:connector-curvature="0"
       sodipodi:nodetypes="cc" />
    <path
       style="fill:none;stroke:#000000;stroke-width:1px;stroke-linecap:butt;stroke-linejoin:miter;stroke-opacity:1;display:inline"
       d="m 485.71429,487.92857 62.5,63.92857"
       id="path3886"
       inkscape:connector-curvature="0" />
    <path
       style="fill:url(#linearGradient3902);fill-opacity:1;fill-rule:nonzero;stroke:#000000;stroke-width:2.02030515999999993;stroke-linecap:round;stroke-linejoin:miter;stroke-miterlimit:4;stroke-opacity:1;stroke-dasharray:none;stroke-dashoffset:0"
       d="m 517.13402,518.91626 -30.66557,-31.36316 16.80317,-16.82005 16.80317,-16.82006 2.77951,-0.28687 c 6.21198,-0.64113 17.78518,3.9887 26.96559,10.78752 5.8621,4.34135 17.31557,15.80149 21.61164,21.62423 7.00275,9.49128 10.89741,18.25997 11.32878,25.50635 l 0.25557,4.29315 -17.60815,17.22102 -17.60815,17.22102 -30.66556,-31.36315 z"
       id="path3894"
       inkscape:connector-curvature="0" />
    <path
       style="fill:url(#linearGradient3912);fill-opacity:1;fill-rule:nonzero;stroke:#000000;stroke-width:2.02030515999999993;stroke-linecap:round;stroke-linejoin:miter;stroke-miterlimit:4;stroke-opacity:1;stroke-dasharray:none;stroke-dashoffset:0"
       d="m 511.96662,523.79232 -31.02727,-30.68338 2.09948,-2.15188 c 1.15472,-1.18353 2.22028,-2.09267 2.36793,-2.0203 0.14764,0.0724 10.48189,10.58665 22.965,23.36508 12.48311,12.77843 26.22521,26.80729 30.538,31.17525 l 7.84144,7.94173 -1.46434,1.52845 c -0.80539,0.84064 -1.65078,1.52844 -1.87865,1.52844 -0.22787,0 -14.37659,-13.80753 -31.44159,-30.68339 z"
       id="path3904"
       inkscape:connector-curvature="0" />
    <path
       style="fill:url(#linearGradient3922);fill-opacity:1;fill-rule:nonzero;stroke:#000000;stroke-width:2.02030515999999993;stroke-linecap:round;stroke-linejoin:miter;stroke-miterlimit:4;stroke-opacity:1;stroke-dasharray:none;stroke-dashoffset:0"
       d="m 449.37402,643.76361 c -0.15483,-2.3004 -0.40512,-8.59767 -0.55619,-13.99392 -0.15107,-5.39626 -0.32949,-9.86563 -0.39648,-9.93195 -0.067,-0.0663 -7.212,-0.28638 -15.8778,-0.48904 l -15.75601,-0.36848 -0.15389,-14.84609 c -0.11784,-11.36741 -0.30507,-14.93938 -0.79904,-15.24426 -0.35483,-0.219 -6.15058,-0.67706 -12.87945,-1.01792 -6.72886,-0.34085 -12.86361,-0.74034 -13.63276,-0.88777 -1.30753,-0.2506 1.57882,-3.26227 44.38679,-46.31402 25.18189,-25.3253 45.94603,-46.04599 46.14253,-46.04599 0.19651,0 14.3151,13.80003 31.37465,30.66674 l 31.01737,30.66674 -23.73858,23.7878 c -13.05622,13.08329 -33.88857,33.7807 -46.29411,45.99426 l -22.55551,22.20645 -0.28152,-4.18255 0,0 z"
       id="path3914"
       inkscape:connector-curvature="0" />
    <path
       style="fill:url(#linearGradient3960);fill-opacity:1.0;fill-rule:nonzero;stroke:#000000;stroke-width:2.02030515999999993;stroke-linecap:round;stroke-linejoin:miter;stroke-miterlimit:4;stroke-opacity:1;stroke-dasharray:none;stroke-dashoffset:0"
       d="m 361.1739,674.18967 c 0,-0.59425 8.61711,-29.9817 8.87046,-30.25145 0.0974,-0.10368 5.18784,4.65727 11.31212,10.57989 6.12429,5.92263 10.96394,10.92726 10.7548,11.12141 -0.34469,0.31996 -29.88497,9.04434 -30.62367,9.04434 -0.17254,0 -0.31371,-0.22239 -0.31371,-0.49419 z"
       id="path3936"
       inkscape:connector-curvature="0" />
    <path
       style="fill:url(#linearGradient3946);fill-opacity:1;fill-rule:nonzero;stroke:#000000;stroke-width:2.02030515999999993;stroke-linecap:round;stroke-linejoin:miter;stroke-miterlimit:4;stroke-opacity:1;stroke-dasharray:none;stroke-dashoffset:0"
       d="m 382.45276,653.28382 -11.79558,-11.8036 7.68983,-26.20339 c 4.2294,-14.41187 7.83459,-26.36173 8.01153,-26.55524 0.51093,-0.55878 28.04787,1.21174 28.47198,1.83064 0.20409,0.29783 0.37455,7.1531 0.37881,15.23393 l 0.008,14.69242 15.75209,0.34415 c 8.66366,0.18928 15.83123,0.42328 15.92796,0.52001 0.37056,0.37056 1.11594,27.81559 0.76369,28.11922 -0.32603,0.28101 -52.53708,15.62545 -53.16725,15.62545 -0.13487,0 -5.55323,-5.31162 -12.04079,-11.80359 z"
       id="path3938"
       inkscape:connector-curvature="0" />
  </g>
</svg>
