<?xml version="1.0" encoding="UTF-8" standalone="no"?>
<!-- Created with Inkscape (http://www.inkscape.org/) -->

<svg
   xmlns:dc="http://purl.org/dc/elements/1.1/"
   xmlns:cc="http://creativecommons.org/ns#"
   xmlns:rdf="http://www.w3.org/1999/02/22-rdf-syntax-ns#"
   xmlns:svg="http://www.w3.org/2000/svg"
   xmlns="http://www.w3.org/2000/svg"
   xmlns:xlink="http://www.w3.org/1999/xlink"
   xmlns:sodipodi="http://sodipodi.sourceforge.net/DTD/sodipodi-0.dtd"
   xmlns:inkscape="http://www.inkscape.org/namespaces/inkscape"
   width="1024"
   height="1024"
   id="svg2"
   version="1.1"
   inkscape:version="0.48.2 r9819"
   sodipodi:docname="добавитьТренировки.svg"
   inkscape:export-filename="/Users/pgalex/Documents/projects/NetBeans/JShooting/src/com/jshooting/resources/добавитьТренировки.png"
   inkscape:export-xdpi="8.0859375"
   inkscape:export-ydpi="8.0859375">
  <defs
     id="defs4">
    <linearGradient
       id="linearGradient4386">
      <stop
         id="stop4388"
         offset="0"
         style="stop-color:#00d300;stop-opacity:1;" />
      <stop
         id="stop4390"
         offset="1"
         style="stop-color:#00ab00;stop-opacity:1;" />
    </linearGradient>
    <inkscape:path-effect
       effect="spiro"
       id="path-effect3608"
       is_visible="true" />
    <linearGradient
       id="linearGradient3904">
      <stop
         style="stop-color:#9d9d9d;stop-opacity:1;"
         offset="0"
         id="stop3906" />
      <stop
         style="stop-color:#000000;stop-opacity:1;"
         offset="1"
         id="stop3908" />
    </linearGradient>
    <radialGradient
       inkscape:collect="always"
       xlink:href="#linearGradient3904"
       id="radialGradient3860"
       cx="688.61304"
       cy="173.56285"
       fx="688.61304"
       fy="173.56285"
       r="12.167078"
       gradientTransform="matrix(1.1475567,0,0,4.1958333,-30.453247,-658.17641)"
       gradientUnits="userSpaceOnUse" />
    <radialGradient
       inkscape:collect="always"
       xlink:href="#linearGradient3904"
       id="radialGradient3862"
       cx="631.85614"
       cy="172.06032"
       fx="631.85614"
       fy="172.06032"
       r="12.495392"
       gradientTransform="matrix(1.1475567,0,0,4.1115947,-30.453247,-639.10216)"
       gradientUnits="userSpaceOnUse" />
    <radialGradient
       inkscape:collect="always"
       xlink:href="#linearGradient3904"
       id="radialGradient3864"
       cx="574.71832"
       cy="173.16541"
       fx="574.71832"
       fy="173.16541"
       r="13.561798"
       gradientTransform="matrix(1.1475567,0,0,3.7375165,-30.453247,-577.60029)"
       gradientUnits="userSpaceOnUse" />
    <radialGradient
       inkscape:collect="always"
       xlink:href="#linearGradient3904"
       id="radialGradient3866"
       cx="524.58411"
       cy="168.02715"
       fx="524.58411"
       fy="168.02715"
       r="13.33887"
       gradientTransform="matrix(1.1475567,0,0,3.8118752,-30.453247,-576.78668)"
       gradientUnits="userSpaceOnUse" />
    <radialGradient
       inkscape:collect="always"
       xlink:href="#linearGradient3904"
       id="radialGradient3868"
       cx="464.85416"
       cy="166.24142"
       fx="464.85416"
       fy="166.24142"
       r="13.425952"
       gradientTransform="matrix(1.1475567,0,0,3.7871513,-30.453247,-567.91883)"
       gradientUnits="userSpaceOnUse" />
    <radialGradient
       inkscape:collect="always"
       xlink:href="#linearGradient3904"
       id="radialGradient3870"
       cx="416.63989"
       cy="168.99304"
       fx="416.63989"
       fy="168.99304"
       r="13.068807"
       gradientTransform="matrix(1.1475567,0,0,3.8999139,-30.453247,-594.23804)"
       gradientUnits="userSpaceOnUse" />
    <radialGradient
       inkscape:collect="always"
       xlink:href="#linearGradient3904"
       id="radialGradient3872"
       cx="359.49701"
       cy="170.77875"
       fx="359.49701"
       fy="170.77875"
       r="13.068807"
       gradientTransform="matrix(1.1475567,0,0,3.8999139,-30.453247,-599.15294)"
       gradientUnits="userSpaceOnUse" />
    <radialGradient
       inkscape:collect="always"
       xlink:href="#linearGradient3904"
       id="radialGradient3874"
       cx="309.61176"
       cy="171.17812"
       fx="309.61176"
       fy="171.17812"
       r="13.961675"
       gradientTransform="matrix(1.1475567,0,0,3.6591985,-30.453247,-559.04692)"
       gradientUnits="userSpaceOnUse" />
    <radialGradient
       inkscape:collect="always"
       xlink:href="#linearGradient3904"
       id="radialGradient3876"
       cx="334.2674"
       cy="151.48074"
       fx="334.2674"
       fy="151.48074"
       r="27.310163"
       gradientTransform="matrix(1.1475567,0,0,1.042956,-30.453247,-113.26385)"
       gradientUnits="userSpaceOnUse" />
    <radialGradient
       inkscape:collect="always"
       xlink:href="#linearGradient3904"
       id="radialGradient3878"
       cx="252.15608"
       cy="171.90955"
       fx="252.15608"
       fy="171.90955"
       r="14.745015"
       gradientTransform="matrix(1.1475567,0,0,3.1840934,-30.453247,-479.20893)"
       gradientUnits="userSpaceOnUse" />
    <radialGradient
       inkscape:collect="always"
       xlink:href="#linearGradient3904"
       id="radialGradient3880"
       cx="239.15363"
       cy="171.95934"
       fx="239.15363"
       fy="171.95934"
       r="16.234526"
       gradientTransform="matrix(1.1475567,0,0,2.7346648,-30.453247,-402.0269)"
       gradientUnits="userSpaceOnUse" />
    <radialGradient
       inkscape:collect="always"
       xlink:href="#linearGradient3904"
       id="radialGradient3882"
       cx="278.62463"
       cy="152.74342"
       fx="278.62463"
       fy="152.74342"
       r="27.053082"
       gradientTransform="matrix(1.1475567,0,0,0.99930538,-30.453247,-106.46442)"
       gradientUnits="userSpaceOnUse" />
    <radialGradient
       inkscape:collect="always"
       xlink:href="#linearGradient3904"
       id="radialGradient3884"
       cx="389.16125"
       cy="151.58038"
       fx="389.16125"
       fy="151.58038"
       r="30.881741"
       gradientTransform="matrix(1.1475567,0,0,0.89986332,-30.453247,-91.563385)"
       gradientUnits="userSpaceOnUse" />
    <radialGradient
       inkscape:collect="always"
       xlink:href="#linearGradient3904"
       id="radialGradient3886"
       cx="440.94699"
       cy="149.43752"
       fx="440.94699"
       fy="149.43752"
       r="26.596025"
       gradientTransform="matrix(1.1475567,0,0,1.0448683,-30.453247,-113.76335)"
       gradientUnits="userSpaceOnUse" />
    <radialGradient
       inkscape:collect="always"
       xlink:href="#linearGradient3904"
       id="radialGradient3888"
       cx="492.55411"
       cy="149.08038"
       fx="492.55411"
       fy="149.08038"
       r="27.846025"
       gradientTransform="matrix(1.1475567,0,0,1.0126827,-30.453247,-109.00179)"
       gradientUnits="userSpaceOnUse" />
    <radialGradient
       inkscape:collect="always"
       xlink:href="#linearGradient3904"
       id="radialGradient3890"
       cx="546.30414"
       cy="148.15858"
       fx="546.30414"
       fy="148.15858"
       r="25.524595"
       gradientTransform="matrix(1.1475567,0,0,1.0980577,-30.453247,-121.77514)"
       gradientUnits="userSpaceOnUse" />
    <radialGradient
       inkscape:collect="always"
       xlink:href="#linearGradient3904"
       id="radialGradient3892"
       cx="599.57349"
       cy="150.55232"
       fx="599.57349"
       fy="150.55232"
       r="25.57967"
       gradientTransform="matrix(1.1475567,0,0,0.97228327,-30.453247,-102.72103)"
       gradientUnits="userSpaceOnUse" />
    <radialGradient
       inkscape:collect="always"
       xlink:href="#linearGradient3904"
       id="radialGradient3894"
       cx="653.64899"
       cy="150.30099"
       fx="653.64899"
       fy="150.30099"
       r="25.69389"
       gradientTransform="matrix(1.1475567,0,0,0.96323502,-30.453247,-101.40511)"
       gradientUnits="userSpaceOnUse" />
    <radialGradient
       inkscape:collect="always"
       xlink:href="#linearGradient3904"
       id="radialGradient3896"
       cx="697.32141"
       cy="150.20529"
       fx="697.32141"
       fy="150.20529"
       r="12.67143"
       gradientTransform="matrix(1.1475567,0,0,1.927856,-30.453247,-246.31392)"
       gradientUnits="userSpaceOnUse" />
    <radialGradient
       inkscape:collect="always"
       xlink:href="#linearGradient4386"
       id="radialGradient4384"
       cx="1165"
       cy="739"
       fx="1165"
       fy="739"
       r="195.5"
       gradientUnits="userSpaceOnUse"
       gradientTransform="matrix(0.70377637,0,0,0.70377637,36.313737,334.40818)" />
  </defs>
  <sodipodi:namedview
     id="base"
     pagecolor="#ffffff"
     bordercolor="#666666"
     borderopacity="1.0"
     inkscape:pageopacity="0.0"
     inkscape:pageshadow="2"
     inkscape:zoom="0.35"
     inkscape:cx="307.21643"
     inkscape:cy="281.90806"
     inkscape:document-units="px"
     inkscape:current-layer="layer2"
     showgrid="false"
     inkscape:window-width="1357"
     inkscape:window-height="791"
     inkscape:window-x="234"
     inkscape:window-y="224"
     inkscape:window-maximized="0"
     showguides="true"
     inkscape:guide-bbox="true" />
  <metadata
     id="metadata7">
    <rdf:RDF>
      <cc:Work
         rdf:about="">
        <dc:format>image/svg+xml</dc:format>
        <dc:type
           rdf:resource="http://purl.org/dc/dcmitype/StillImage" />
        <dc:title></dc:title>
      </cc:Work>
    </rdf:RDF>
  </metadata>
  <g
     inkscape:groupmode="layer"
     id="layer2"
     inkscape:label="Блокнот"
     style="display:inline">
    <rect
       ry="34.426697"
       y="75.881882"
       x="180.74377"
       height="939.35712"
       width="680.33716"
       id="rect3910"
       style="fill:#eae5df;fill-opacity:1;stroke:#000000;stroke-width:2.29511309;stroke-linejoin:round;stroke-miterlimit:4.5999999;stroke-opacity:1;stroke-dasharray:none" />
    <rect
       style="fill:#eae5df;fill-opacity:1;stroke:#000000;stroke-width:2.29511309;stroke-linejoin:round;stroke-miterlimit:4.5999999;stroke-opacity:1;stroke-dasharray:none"
       id="rect3780"
       width="680.33716"
       height="939.35712"
       x="176.10695"
       y="68.926643"
       ry="34.426697" />
    <path
       style="fill:none;stroke:#000000;stroke-width:1.14755654px;stroke-linecap:butt;stroke-linejoin:miter;stroke-opacity:1"
       d="m 247.75649,257.72822 c 3.86403,-1.54561 7.72805,-3.09121 11.59208,-4.63683 0.7728,-1.54561 0.7728,-3.86403 2.31841,-4.63682 2.07365,-1.03684 4.70604,0.56229 6.95524,0 0.32546,-0.0814 3.96356,-4.188 4.63683,-4.63683 1.43782,-0.95855 3.41492,-1.09651 4.63684,-2.31843 0.54645,-0.54645 -0.54646,-1.77195 0,-2.31841 1.09291,-1.09291 3.54391,1.09292 4.63683,0 0.54645,-0.54645 -0.54646,-1.77196 0,-2.31841 0.54645,-0.54646 1.77195,0.54645 2.3184,0 0.54645,-0.54646 0,-1.54562 0,-2.31842 1.54561,0 3.17054,0.48877 4.63683,0 3.7512,-1.25039 0.72285,-4.63682 6.95525,-4.63682 0.7728,0 1.77195,-0.54646 2.31841,0 0.54646,0.54645 -0.34561,1.62719 0,2.31841 0.48877,0.97753 1.5456,1.5456 2.31842,2.31841 0,1.54562 -0.37487,3.13737 0,4.63683 2.79886,11.19549 1.10175,-0.1149 4.63682,6.95524 0.69122,1.38244 -0.69121,3.2544 0,4.63683 0.48878,0.97753 1.54562,1.54561 2.31842,2.31842 0.77281,0.7728 1.34088,1.82965 2.31842,2.31841 0.69122,0.34561 1.5456,0 2.3184,0 0.77282,0 1.6009,0.28702 2.31843,0 3.20889,-1.28355 6.18244,-3.09122 9.27365,-4.63683 3.09122,-1.54561 6.2525,-2.9584 9.27366,-4.63683 3.93911,-2.18839 7.56161,-4.94001 11.59207,-6.95524 3.72232,-1.86116 7.78908,-2.94661 11.59207,-4.63683 3.15822,-1.40365 6.03762,-3.42332 9.27366,-4.63682 2.98348,-1.11882 6.34493,-1.06325 9.27366,-2.31843 3.8326,-1.64254 10.78437,-9.6775 16.22891,-6.95523 0.38284,0.19143 0,6.33842 0,6.95523 0,3.09123 0,6.18244 0,9.27367 0,0.77281 0,1.5456 0,2.31841 0,0.7728 -0.34562,1.6272 0,2.31841 0.48876,0.97754 1.82964,1.34089 2.3184,2.31843 1.59896,3.19791 -2.80773,2.07376 2.31843,4.63683 0.0443,0.0222 15.79389,0.10878 16.22889,0 4.03743,-1.00937 7.69537,-3.17558 11.59208,-4.63683 2.28822,-0.85809 4.76942,-1.22552 6.95523,-2.31843 4.03046,-2.01522 7.56162,-4.94001 11.59208,-6.95524 2.18582,-1.0929 4.66702,-1.46033 6.95524,-2.31841 3.89671,-1.46127 7.64395,-3.3208 11.59208,-4.63684 3.02284,-1.0076 6.29018,-1.1996 9.27365,-2.3184 3.23605,-1.21352 5.95055,-3.68738 9.27366,-4.63683 2.22921,-0.63692 4.68185,0.45467 6.95524,0 1.6945,-0.3389 2.99747,-1.77197 4.63684,-2.31842 0.73314,-0.24438 1.54561,0 2.31841,0 0.77281,0 1.77195,-0.54646 2.31841,0 0.54647,0.54645 -0.24437,1.58527 0,2.31842 0.54647,1.63936 1.35987,3.19901 2.31842,4.63683 0.60624,0.90935 2.05334,1.25813 2.31842,2.3184 0.56229,2.2492 0,4.63684 0,6.95525 0,0.7728 -0.34561,1.62721 0,2.31842 5.30523,10.61048 -0.96092,-9.838 4.63683,6.95525 0.86661,2.59982 -1.77246,5.59161 2.3184,6.95523 4.85965,1.6199 15.94685,-2.99718 20.86575,-4.63683 4.63682,-1.54561 9.19506,-3.3508 13.91048,-4.63683 3.80169,-1.03681 7.85374,-1.0723 11.59207,-2.31841 3.27874,-1.09291 6.097,-3.2754 9.27365,-4.63683 2.24622,-0.96267 4.76943,-1.2255 6.95525,-2.31841 0.97752,-0.48876 1.34088,-1.82965 2.31841,-2.31841 0.69122,-0.34561 1.54561,0 2.31842,0 0.7728,0 1.77195,-0.54646 2.3184,0 0.54647,0.54645 -0.3456,1.62719 0,2.31841 0.48878,0.97753 1.82966,1.34088 2.31843,2.31841 0.69122,1.38244 -0.69122,3.2544 0,4.63683 1.70566,3.41132 3.63768,2.31841 6.95524,2.31841 0.77281,0 1.58527,0.24438 2.31841,0 1.63937,-0.54645 3.03239,-1.67662 4.63684,-2.31841 4.53807,-1.81523 9.53884,-2.451 13.91048,-4.63683 2.49222,-1.24611 4.31185,-3.75569 6.95524,-4.63682 2.19944,-0.73316 4.66838,0.38113 6.95524,0 4.82115,-0.80353 9.16878,-3.45141 13.9105,-4.63683 1.97545,-0.49387 4.91119,0 6.95525,0 0.77279,0 1.77195,-0.54645 2.3184,0 0.54645,0.54645 -0.18743,1.56868 0,2.3184 0.59272,2.37087 1.72571,4.5844 2.31842,6.95525 0.72495,2.89979 -0.94614,6.43523 0,9.27367 2.41216,7.23651 1.54561,-0.77281 4.63683,2.3184 4.79688,4.79689 -7.33027,-0.18751 2.3184,4.63683 0.69122,0.34561 1.54562,0 2.31843,0 3.44438,0 6.39088,0.56437 9.27365,-2.3184 0.54647,-0.54647 -0.54645,-1.77198 0,-2.31843 1.97028,-1.97028 4.77944,-2.89618 6.95524,-4.63683 1.70685,-1.36546 2.68178,-3.65929 4.63683,-4.63682 1.38244,-0.69121 3.09123,0 4.63683,0 2.31842,-1.54562 4.56595,-3.20325 6.95525,-4.63683 4.44003,-2.66402 3.30592,-2.31841 6.95524,-2.31841 0.77281,0 1.97281,-0.69122 2.31841,0 0.43487,0.86974 0,12.53015 0,13.91049 0,1.5456 0,3.09121 0,4.63683 0,0.77279 -0.77281,2.3184 0,2.3184 1.09292,0 1.54562,-1.54561 2.31842,-2.3184 1.54561,-1.54562 2.68177,-3.65931 4.63683,-4.63683 1.38244,-0.69122 3.54392,1.0929 4.63682,0 1.72805,-1.72806 0.36336,-5.48896 2.31843,-6.95525 1.85472,-1.39105 4.70605,0.56229 6.95523,0 1.06029,-0.26506 1.40907,-1.71218 2.31842,-2.31842 1.43782,-0.95853 3.25439,-1.28159 4.63683,-2.31841 6.03872,-4.52905 2.53949,-4.71052 9.27365,-6.95524 0.73316,-0.24439 1.54562,0 2.31842,0 0.77281,0 1.77196,-0.54645 2.31842,0 1.57497,1.57495 -2.37053,4.61077 2.3184,6.95524 0.69122,0.3456 1.54562,0 2.31843,0 0.7728,0 1.5456,0 2.31841,0 4.63684,0 9.27367,0 13.91049,0 0.77281,0 1.54562,0 2.31841,0 0.77281,0 1.77197,0.54645 2.31842,0 0.54645,-0.54646 0,-1.54561 0,-2.31841"
       id="path3914"
       inkscape:connector-curvature="0" />
    <path
       style="fill:none;stroke:#000000;stroke-width:1.14755654px;stroke-linecap:butt;stroke-linejoin:miter;stroke-opacity:1"
       d="m 259.34857,362.05688 c 13.13768,0 26.27536,0 39.41304,0 5.40964,0 10.83796,0.44924 16.22891,0 3.92694,-0.32725 7.72804,-1.54562 11.59207,-2.31843 3.86402,-0.7728 7.72804,-1.54561 11.59206,-2.3184 2.31842,-0.77281 4.55889,-1.83915 6.95525,-2.31843 2.2734,-0.45467 4.63682,0 6.95525,0 0.7728,0 1.54561,0 2.3184,0 0.77281,0 1.6272,-0.3456 2.31842,0 2.78211,1.39106 4.17315,5.56421 6.95526,6.95526 0.69121,0.3456 1.77195,-0.54646 2.3184,0 3.09122,3.09121 -4.91809,2.22464 2.31842,4.63682 1.46629,0.48877 3.09122,0 4.63683,0 0.7728,0 1.62719,-0.34561 2.31841,0 0.97754,0.48877 1.28159,1.9728 2.31842,2.31841 1.4663,0.48877 3.09122,0 4.63682,0 10.1416,0 4.70605,0.5623 16.2289,-2.31841 11.07159,-2.7679 10.76638,-2.43969 23.18415,-6.95525 3.91112,-1.42222 7.64395,-3.32078 11.59208,-4.63683 4.45693,-1.48563 11.76343,-2.4041 16.22889,-4.63682 0.97753,-0.48876 1.34088,-1.82965 2.31843,-2.31842 0.6912,-0.3456 1.77195,0.54647 2.3184,0 0.54645,-0.54645 -0.54645,-1.77196 0,-2.31841 0.20806,-0.20806 6.8958,-0.11889 6.95525,0 0.69122,1.38244 -0.48877,3.17054 0,4.63683 0.3456,1.03682 1.82965,1.34088 2.3184,2.31841 0.69122,1.38244 -1.0929,3.54392 0,4.63684 0.54647,0.54645 1.54562,0 2.31843,0 0.7728,0 1.54561,0 2.3184,0 2.31842,0 4.66839,0.38113 6.95525,0 8.74111,-1.45685 5.89962,-2.94981 13.91049,-6.95525 12.36487,-6.18244 1.75588,2.69344 16.22891,-6.95524 1.8187,-1.21247 2.88817,-3.32534 4.63683,-4.63683 4.05153,-3.03866 6.9164,-2.299 11.59207,-4.63683 0.97753,-0.48876 1.34088,-1.82966 2.31841,-2.31842 0.12129,-0.0606 6.83395,-0.0606 6.95524,0 5.12614,2.56308 0.71946,1.43892 2.31842,4.63682 0.48876,0.97755 1.82964,1.3409 2.31841,2.31843 0.34561,0.69122 -0.54646,1.77195 0,2.31841 0.54645,0.54646 1.97281,-0.69122 2.31842,0 0.69122,1.38243 -0.69122,3.2544 0,4.63683 0.34561,0.69122 1.77195,-0.54645 2.3184,0 0.54646,0.54645 -0.54645,1.77196 0,2.31841 0.54646,0.54647 1.54562,0 2.31843,0 2.13294,0 4.86867,0.41732 6.95524,0 3.12448,-0.62489 6.4237,-0.89343 9.27365,-2.31841 1.95506,-0.97752 2.76251,-3.51224 4.63683,-4.63683 2.09556,-1.25734 4.68621,-1.41079 6.95525,-2.31841 1.60444,-0.64179 2.96037,-1.89931 4.63683,-2.31843 0.0774,-0.0194 6.94292,0.0123 6.95524,0 0.54645,-0.54645 -0.54646,-1.77195 0,-2.3184 0.54645,-0.54645 1.77196,-0.54645 2.31841,0 0.54646,0.54645 -0.3456,1.62718 0,2.3184 0.48877,0.97755 1.82966,1.3409 2.31842,2.31843 0.69122,1.38243 -0.69121,3.25439 0,4.63683 0.97753,1.95506 3.94562,2.56317 4.63683,4.63682 0.48876,1.4663 -0.69121,3.2544 0,4.63683 0.3456,0.69122 1.77196,-0.54645 2.31842,0 0.54645,0.54646 -0.54646,1.77196 0,2.31841 0.54645,0.54646 1.5456,0 2.3184,0 1.78428,0 10.82544,0.38333 11.59208,0 1.95505,-0.97752 2.62775,-3.77577 4.63683,-4.63682 3.62193,-1.55226 7.90242,-0.93479 11.59208,-2.31842 5.21794,-1.95673 8.92603,-6.78143 13.91048,-9.27365 5.26416,-2.63209 10.96474,-4.32317 16.22889,-6.95525 1.53313,-0.76655 10.3456,-5.88331 11.59208,-4.63683 0.54647,0.54645 -0.54645,1.77197 0,2.31842 0.54647,0.54646 1.77196,-0.54645 2.31842,0 0.54645,0.54646 0,1.54561 0,2.31841 0,1.54561 -0.69122,3.25441 0,4.63682 0.3456,0.69122 1.97281,-0.69122 2.31841,0 0.74995,1.49991 -0.83282,8.44086 0,9.27367 0.19744,0.19744 5.80449,0.3836 6.95524,0 1.63937,-0.54645 3.03239,-1.67663 4.63683,-2.31841 2.26904,-0.90761 4.68621,-1.41081 6.95525,-2.31842 4.74983,-1.89994 9.06088,-5.33871 13.91048,-6.95524 0.73315,-0.24439 1.54561,0 2.31842,0 0.77281,-0.77281 1.34088,-1.82966 2.31842,-2.31842 0.69122,-0.34561 1.77195,0.54645 2.3184,0 0.54646,-0.54646 -0.54645,-1.77195 0,-2.31841 0.54646,-0.54645 1.77197,-0.54645 2.31843,0 0.54645,0.54646 -0.34562,1.62719 0,2.31841 0.97752,1.95506 3.65929,2.68177 4.63682,4.63682 0.34561,0.69122 -0.34561,1.62721 0,2.31843 0.48877,0.97752 1.71218,1.40905 2.31841,2.31841 0.95855,1.43782 1.2816,3.2544 2.31842,4.63683 1.3115,1.74866 3.09122,3.09121 4.63683,4.63683 1.54561,1.54561 2.92999,3.27136 4.63683,4.63682 2.1758,1.74065 4.72613,2.965 6.95524,4.63683 0.87433,0.65575 1.34088,1.82966 2.31842,2.31843 0.83842,0.41919 9.97952,0 11.59208,0"
       id="path3916"
       inkscape:connector-curvature="0" />
    <path
       style="fill:none;stroke:#000000;stroke-width:1.14755654px;stroke-linecap:butt;stroke-linejoin:miter;stroke-opacity:1"
       d="m 259.34857,484.93284 c 4.41036,-9.74634 12.6304,-2.27006 18.54732,-4.63683 2.02947,-0.81178 2.7625,-3.51223 4.63683,-4.63682 2.09555,-1.25735 4.6862,-1.41081 6.95523,-2.31843 1.60446,-0.64176 3.03239,-1.67663 4.63684,-2.3184 2.26904,-0.90762 4.6862,-1.41081 6.95524,-2.31843 1.60444,-0.64176 2.96038,-1.89929 4.63682,-2.3184 1.49946,-0.37487 3.13737,0.37486 4.63684,0 1.67644,-0.41912 2.99746,-1.77197 4.63683,-2.31842 0.2983,-0.0994 6.76323,-0.096 6.95523,0 0.97754,0.48876 1.34089,1.82964 2.31842,2.31842 3.19792,1.59896 2.07376,-2.80773 4.63683,2.3184 0.34562,0.69122 -0.3456,1.62721 0,2.31843 0.48877,0.97752 1.82966,1.34088 2.31841,2.3184 0.34561,0.69122 -0.34561,1.62721 0,2.31843 0.48877,0.97752 1.71217,1.40904 2.31842,2.3184 0.95854,1.43782 1.0965,3.41493 2.31841,4.63684 0.54645,0.54645 1.54561,0 2.31841,0 1.54562,0 3.09123,0 4.63684,0 4.18997,0 12.5858,0.52044 16.22891,0 2.0799,-0.29713 13.58652,-3.31566 16.22889,-4.63684 0.97754,-0.48876 1.30367,-1.91251 2.31842,-2.3184 2.95845,-1.18338 6.3152,-1.13504 9.27366,-2.31843 1.01473,-0.40588 1.40905,-1.71218 2.31841,-2.3184 1.43782,-0.95856 3.09121,-1.54561 4.63682,-2.31843 1.54562,-0.7728 2.99747,-1.77195 4.63683,-2.3184 0.73315,-0.24439 1.54561,0 2.31842,0 0.77281,0 1.54562,0 2.31841,0 0.77281,0 1.97282,-0.69122 2.31842,0 0.69122,1.38242 -0.48876,3.17052 0,4.63683 0.69122,2.07364 3.6593,2.68176 4.63683,4.63683 0.34561,0.69122 -0.54645,1.77195 0,2.3184 0.54645,0.54646 1.54561,0 2.31841,0 1.5456,0 3.09122,0 4.63683,0 1.54561,0 3.13738,0.37487 4.63683,0 15.136,-3.784 -8.75937,-1.24491 11.59208,-4.63683 2.28686,-0.38113 4.7558,0.73316 6.95524,0 2.6434,-0.88112 4.72613,-2.96498 6.95524,-4.63683 0.87432,-0.65575 1.2816,-1.97279 2.31841,-2.3184 1.4663,-0.48878 3.09122,0 4.63683,0 0.77281,0 1.6272,0.34561 2.31842,0 0.97752,-0.48878 1.34088,-1.82966 2.31841,-2.31842 0.69122,-0.34562 1.77197,-0.54646 2.31842,0 1.09291,1.0929 -0.69122,3.25439 0,4.63682 0.48877,0.97754 1.34088,1.82966 2.3184,2.31843 0.1213,0.0606 6.83398,0.0606 6.95525,0 0.97753,-0.48877 1.34089,-1.82966 2.31842,-2.31843 0.91923,-0.4596 6.48128,0.47398 6.95524,0 0.54646,-0.54645 -0.54645,-1.77195 0,-2.3184 0.54646,-0.54646 1.54561,0 2.31841,0 0.77281,0 1.77196,-0.54646 2.31843,0 1.0929,1.09291 -1.09292,3.54391 0,4.63683 0.54645,0.54645 1.77195,-0.54645 2.3184,0 0.54646,0.54645 -0.54645,1.77195 0,2.3184 0.54646,0.54645 1.54562,0 2.31842,0 4.63683,0 9.27366,0 13.91049,0 0.77281,0 1.6272,0.34562 2.31842,0 0.97752,-0.48875 1.34088,-1.82964 2.3184,-2.3184 0.69122,-0.34562 1.77197,0.54645 2.31843,0 0.54645,-0.54645 -0.54646,-1.77197 0,-2.31843 0.54645,-0.54645 1.77195,-0.54645 2.3184,0 0.54646,0.54646 -0.54645,1.77198 0,2.31843 0.54646,0.54645 1.77197,-0.54645 2.31842,0 1.09291,1.0929 -1.0929,3.54392 0,4.63683 0.54646,0.54645 1.54562,0 2.31842,0 0.7728,0 1.5456,0 2.31841,0 2.0091,0 7.93065,0.44766 9.27367,0 16.79323,-5.59776 -3.65524,0.6684 6.95523,-4.63683 1.38244,-0.69122 3.54392,1.0929 4.63682,0 0.54646,-0.54645 -0.54645,-1.77197 0,-2.31843 0.54646,-0.54645 1.54562,0 2.31843,0 0.7728,0 1.62719,-0.3456 2.3184,0 0.97754,0.48877 1.54561,1.54562 2.31843,2.31843"
       id="path3918"
       inkscape:connector-curvature="0" />
    <path
       style="fill:none;stroke:#000000;stroke-width:1.14755654px;stroke-linecap:butt;stroke-linejoin:miter;stroke-opacity:1"
       d="m 261.66698,596.21674 c 6.07888,-1.45723 12.42701,0.87433 18.54731,0 6.30867,-0.90124 12.32637,-3.2544 18.54732,-4.63684 3.84671,-0.85482 7.71509,-1.6135 11.59208,-2.3184 4.62496,-0.84091 9.35004,-1.17831 13.91048,-2.31843 4.74172,-1.18542 9.14801,-3.53778 13.91048,-4.63683 7.20082,-6.23639 15.56838,-0.79525 23.18415,-2.3184 1.69449,-0.3389 2.90878,-2.31842 4.63683,-2.31842 1.09292,0 1.97281,1.28159 2.31842,2.31842 0.45215,1.35644 0,11.92052 0,13.91048 0,0.7728 0,1.54562 0,2.31842 0,0.77281 -0.34561,1.62719 0,2.31841 2.56307,5.12614 1.4389,0.71945 4.63683,2.31841 1.95506,0.97754 2.56317,3.94561 4.63683,4.63683 1.4663,0.48877 3.09122,0 4.63682,0 4.63684,0 9.27367,0 13.9105,0 3.09121,0 6.19512,0.27987 9.27365,0 5.44212,-0.49473 10.81927,-1.54561 16.2289,-2.31841 16.58188,-2.36885 16.34541,-1.58444 32.4578,-6.95524 3.94813,-1.31605 7.86976,-2.77567 11.59208,-4.63684 2.49221,-1.24611 4.27606,-3.87134 6.95524,-4.63683 2.97228,-0.84922 6.24247,0.60625 9.27365,0 1.0717,-0.21433 1.22551,-2.3184 2.31843,-2.3184 0.77279,0 0,1.54561 0,2.3184 0,3.09123 0,6.18244 0,9.27367 0,0.77281 -0.69122,1.97281 0,2.31841 1.38243,0.69122 3.09121,0 4.63682,0 3.86403,0 7.75168,0.42671 11.59208,0 4.67204,-0.51911 9.28552,-1.47751 13.91048,-2.31841 29.40644,-5.34663 -8.29761,1.4948 25.50255,-6.95524 9.12088,-2.28022 18.64329,-2.59735 27.82098,-4.63683 2.38563,-0.53015 4.58438,-1.72571 6.95525,-2.31843 6.44264,-1.61065 -3.17117,7.16843 6.95524,4.63683 1.67645,-0.4191 3.09122,-1.5456 4.63683,-2.3184 2.31841,0 4.68186,0.45467 6.95525,0 1.69447,-0.3389 3.03238,-1.67664 4.63683,-2.31843 2.26903,-0.9076 4.63682,-1.54561 6.95523,-2.3184 2.31842,-0.77281 4.5844,-1.72571 6.95525,-2.31842 3.09122,-0.7728 2.31841,0 2.31841,2.31842 0,0.77279 0,1.5456 0,2.3184 0,0.77282 -0.69121,1.97281 0,2.31843 2.07365,1.03682 4.63684,0 6.95524,0 2.31843,0 4.66838,0.38113 6.95525,0 2.41058,-0.40178 4.63683,-1.54561 6.95525,-2.31843 2.31841,-0.7728 4.63682,-1.54561 6.95525,-2.3184 2.3184,-0.77281 4.85967,-1.06108 6.95523,-2.31842 1.87432,-1.1246 2.68177,-3.6593 4.63682,-4.63683 1.38244,-0.69122 3.2544,0.69122 4.63684,0 0.69121,-0.34562 -0.54646,-1.77195 0,-2.31841 0.54646,-0.54646 1.5456,0 2.31842,0 1.54561,0 3.25438,-0.69122 4.63682,0 0.69122,0.34561 -0.54645,1.77196 0,2.31841 0.54647,0.54645 1.77196,-0.54645 2.31842,0 0.54645,0.54645 -0.54646,1.77196 0,2.31842 0.54645,0.54646 1.97281,-0.69122 2.31841,0 0.69122,1.38242 0,3.09122 0,4.63683 0,0.77279 -0.54645,1.77195 0,2.3184 0.0746,0.0746 6.39296,0 6.95524,0 1.96289,0 8.02726,0.41547 9.27366,0 1.03683,-0.3456 1.34089,-1.82964 2.31842,-2.3184 0.69122,-0.34561 1.54561,0 2.31841,0 1.54561,0 3.17053,0.48876 4.63683,0 1.03683,-0.34561 1.40906,-1.71218 2.31841,-2.31842 1.66957,-1.11304 5.89007,-3.3836 6.95525,-2.31841 0.54645,0.54646 0,1.54561 0,2.31841 0,3.86402 0,7.72805 0,11.59208 0,0.7728 -0.54646,1.77195 0,2.3184 0.54645,0.54646 1.54561,0 2.31842,0 2.45246,0 15.03452,0.39814 16.2289,0 1.03682,-0.34561 1.28158,-1.9728 2.31841,-2.3184 1.46629,-0.48877 3.25439,0.69122 4.63683,0 0.69122,-0.34561 -0.54646,-1.77196 0,-2.31843 0.54646,-0.54645 1.54561,0 2.31841,0 3.86403,0 7.72804,0 11.59208,0 2.31841,0 4.68184,0.45469 6.95525,0 6.2797,-1.25593 3.80978,-3.67692 9.27365,-6.95523 4.82435,-2.89461 11.40456,-1.74222 16.2289,-4.63683 1.48178,-0.88907 1.0965,-3.41492 2.31841,-4.63683 0.54647,-0.54646 1.54562,0 2.31842,0 0.77281,0 1.54561,0 2.31842,0"
       id="path3920"
       inkscape:connector-curvature="0" />
    <path
       sodipodi:type="arc"
       style="fill:#a8a8a8;fill-opacity:1;stroke:#8d8d8d;stroke-width:5.69999981;stroke-linecap:round;stroke-linejoin:round;stroke-miterlimit:4;stroke-opacity:1;stroke-dasharray:none"
       id="path3922"
       sodipodi:cx="465.68033"
       sodipodi:cy="818.93903"
       sodipodi:rx="102.02541"
       sodipodi:ry="102.02541"
       d="m 567.70574,818.93903 a 102.02541,102.02541 0 1 1 -204.05083,0 102.02541,102.02541 0 1 1 204.05083,0 z"
       transform="matrix(1.1475567,0,0,1.1475567,-30.453247,-129.10884)" />
    <path
       style="fill:none;stroke:#000000;stroke-width:1.14755654px;stroke-linecap:butt;stroke-linejoin:miter;stroke-opacity:1"
       d="m 500.46368,661.13235 c 6.95523,0 13.91048,0 20.86573,0 0.77281,0 1.77196,-0.54647 2.31841,0 0.54646,0.54645 0.54646,1.77195 0,2.3184 -0.54645,0.54646 -1.58527,-0.24437 -2.31841,0 -1.63937,0.54646 -3.19901,1.35987 -4.63683,2.31843 -1.91585,1.27722 -4.01635,4.94705 -4.63684,4.63682 -4.42595,-2.21297 -6.89763,-10.83847 -11.59206,-9.27365 -3.94813,1.31602 2.03703,8.34234 4.63683,11.59207 0.96553,1.20692 3.17053,-0.48878 4.63683,0 1.03681,0.3456 1.34088,1.82965 2.3184,2.31841 1.38244,0.69121 3.54392,-1.09291 4.63684,0 3.09121,3.09123 -3.86403,2.31842 2.31841,2.31842"
       id="path3926"
       inkscape:connector-curvature="0" />
    <path
       style="fill:none;stroke:#000000;stroke-width:1.14755654px;stroke-linecap:butt;stroke-linejoin:miter;stroke-opacity:1"
       d="m 637.25013,714.45587 c 5.51056,-2.35195 8.76218,-2.31841 13.91049,-2.31841 0.7728,0 1.77195,-0.54645 2.3184,0 1.80922,1.80922 -4.54436,6.97065 -4.63682,6.95524 -4.10505,-0.68418 -9.28359,-8.09955 -11.59207,-4.63683 -10.48328,15.72493 8.70317,10.6291 11.59207,11.59208 1.03683,0.34561 1.28159,1.9728 2.31842,2.31841 2.19944,0.73315 4.63683,0 6.95524,0"
       id="path3928"
       inkscape:connector-curvature="0" />
    <path
       style="fill:none;stroke:#000000;stroke-width:1.14755654px;stroke-linecap:butt;stroke-linejoin:miter;stroke-opacity:1"
       d="m 379.90612,950.93415 c 3.09122,0 6.18244,0 9.27366,0 3.09121,0 6.18244,0 9.27365,0 0.77281,0 2.31842,-0.77279 2.31842,0 0,0.77281 -1.6272,-0.34561 -2.31842,0 -2.59457,1.29729 -3.28349,5.86075 -6.95523,4.63683 -3.94813,-1.31604 -9.28359,-8.09956 -11.59208,-4.63683 -2.49958,3.74938 4.14025,8.07334 6.95525,11.59208 0.27599,0.34499 6.5552,-0.40004 6.95523,0 0.54646,0.54645 -0.54645,1.77196 0,2.31841 0.54646,0.54645 1.54562,0 2.31843,0 0.7728,0 1.54561,0 2.3184,0 0.77281,0 1.77197,-0.54645 2.31842,0 0.54646,0.54645 0.77281,2.31841 0,2.31841 -0.77281,0 0,-1.5456 0,-2.31841"
       id="path3932"
       inkscape:connector-curvature="0" />
    <path
       d="m 567.70574,818.93903 a 102.02541,102.02541 0 1 1 -204.05083,0 102.02541,102.02541 0 1 1 204.05083,0 z"
       sodipodi:ry="102.02541"
       sodipodi:rx="102.02541"
       sodipodi:cy="818.93903"
       sodipodi:cx="465.68033"
       id="path3940"
       style="fill:#a8a8a8;fill-opacity:1;stroke:#8d8d8d;stroke-width:5.69999981;stroke-linecap:round;stroke-linejoin:round;stroke-miterlimit:4;stroke-opacity:1;stroke-dasharray:none"
       sodipodi:type="arc"
       transform="matrix(0.6833229,0,0,0.6833229,183.41286,251.07028)" />
    <path
       style="fill:none;stroke:#000000;stroke-width:1.14755654px;stroke-linecap:butt;stroke-linejoin:miter;stroke-opacity:1"
       d="m 328.901,807.19246 c 373.26473,0 370.94632,0 370.94632,0"
       id="path3938"
       inkscape:connector-curvature="0" />
    <path
       style="fill:none;stroke:#000000;stroke-width:1.14755654px;stroke-linecap:butt;stroke-linejoin:miter;stroke-opacity:1"
       d="m 505.10051,633.31137 0,336.1701"
       id="path3936"
       inkscape:connector-curvature="0" />
    <path
       style="fill:none;stroke:#000000;stroke-width:1.14755654px;stroke-linecap:butt;stroke-linejoin:miter;stroke-opacity:1"
       d="m 621.02122,869.78964 c -1.85866,9.77186 -8.06754,0.55616 -11.59208,2.31842 -0.97752,0.48877 -3.39009,2.53275 -2.3184,2.31841 15.91323,-3.18265 13.49067,-11.48241 20.86573,6.95525 0.28701,0.71753 -1.6272,-0.34561 -2.31841,0 -9.64869,4.82434 2.47847,-0.16005 -2.31841,4.63683 -1.38137,1.38135 -6.95525,-2.31394 -6.95525,2.31841 0,0.77281 1.54561,0 2.31842,0"
       id="path3944"
       inkscape:connector-curvature="0" />
    <path
       style="fill:none;stroke:#000000;stroke-width:1.14755654px;stroke-linecap:butt;stroke-linejoin:miter;stroke-opacity:1"
       d="m 641.88697,904.56587 c 1.18478,13.99442 -8.80569,-0.46798 -11.59208,2.3184 -0.54647,0.54647 0,1.54561 0,2.31842 0,0.7728 0.54645,1.77195 0,2.31842 -0.54647,0.54646 -1.77196,-0.54647 -2.31842,0 -1.09291,1.09291 1.09292,3.54391 0,4.63682 -0.54646,0.54647 -1.6272,-0.3456 -2.31841,0 -0.97754,0.48877 -1.54561,1.54563 -2.31841,2.31842 -3.36588,3.36587 -2.31843,2.50978 -2.31843,6.95525 0,0.7728 -0.54645,1.77195 0,2.31841 0.54647,0.54646 1.54562,0 2.31843,0 0.7728,0 1.54561,0 2.31841,0 1.5456,0 3.09122,0 4.63683,0 0.77281,0 1.77196,0.54646 2.31841,0 1.15921,-1.15921 -1.15921,-5.79604 0,-6.95524 0.54645,-0.54646 1.54561,0 2.31842,0"
       id="path3948"
       inkscape:connector-curvature="0" />
    <path
       style="fill:none;stroke:#000000;stroke-width:1.14755654px;stroke-linecap:butt;stroke-linejoin:miter;stroke-opacity:1"
       d="m 678.9816,925.4316 c -3.09123,1.54561 -6.06477,3.35327 -9.27367,4.63683 -1.43507,0.57402 -3.2544,-0.69122 -4.63683,0 -1.5456,0.7728 -3.86402,3.86401 -2.31841,4.63682 1.38244,0.69121 3.29486,0.76684 4.63683,0 4.29638,-2.45508 7.16612,-11.48663 11.59208,-9.27365 4.03044,2.01522 -4.94003,7.56161 -6.95526,11.59207 -0.3456,0.69122 0.54646,1.77196 0,2.31842 -0.54645,0.54645 -1.77195,-0.54646 -2.31841,0 -0.23184,0.23184 -0.23184,6.7234 0,6.95523 0.54646,0.54645 2.31841,-0.7728 2.31841,0 0,2.18963 -10.81926,-4.37923 2.31843,0 8.5946,2.86488 -2.82604,2.31843 4.63683,2.31843"
       id="path3950"
       inkscape:connector-curvature="0" />
    <path
       style="fill:none;stroke:#000000;stroke-width:1.14755654px;stroke-linecap:butt;stroke-linejoin:miter;stroke-opacity:1"
       d="m 662.75269,883.70013 c 10.02338,-2.50584 6.0873,-2.31841 11.59208,-2.31841 0.77279,0 1.77195,-0.54645 2.3184,0 0.54645,0.54645 0.54645,1.77196 0,2.31841 -2.78208,2.7821 -18.54731,-13.91049 -13.91048,0 2.43361,7.30086 10.54027,6.95524 16.22891,6.95524 0.7728,0 1.62718,-0.3456 2.3184,0 0.6036,0.3018 3.91738,3.03788 2.31842,4.63684 -1.0929,1.09291 -3.25441,-0.69122 -4.63682,0 -0.97755,0.48877 -1.3409,1.82965 -2.31843,2.3184 -6.82265,3.41133 3.05239,-5.37079 -4.63683,2.31843 -1.74132,1.74134 -4.63682,5.12908 -4.63682,2.3184 0,-0.7728 2.31841,-0.7728 2.31841,0 0,0.77281 -1.5456,0 -2.31841,0"
       id="path3954"
       inkscape:connector-curvature="0" />
    <path
       style="fill:url(#radialGradient4384);fill-opacity:1;stroke:#005200;stroke-width:2.8151052;stroke-linecap:butt;stroke-linejoin:miter;stroke-miterlimit:4;stroke-opacity:1;stroke-dasharray:none"
       d="m 810.46775,717.26253 0,91.49094 -91.49093,0 0,91.49092 91.49093,0 0,91.49098 91.49092,0 0,-91.49098 91.49093,0 0,-91.49092 -91.49093,0 0,-91.49094 -91.49092,0"
       id="path3606"
       inkscape:path-effect="#path-effect3608"
       inkscape:original-d="m 810.46775,717.26253 0,91.49094 -91.49093,0 0,91.49092 91.49093,0 0,91.49098 91.49092,0 0,-91.49098 91.49093,0 0,-91.49092 -91.49093,0 0,-91.49094 z"
       inkscape:connector-curvature="0"
       sodipodi:nodetypes="ccccccccccccc" />
  </g>
  <g
     inkscape:groupmode="layer"
     id="layer3"
     inkscape:label="Дырки"
     style="display:inline">
    <path
       sodipodi:type="arc"
       style="fill:#000000;fill-opacity:1;stroke:#7e714e;stroke-width:2;stroke-linejoin:round;stroke-miterlimit:4.5999999;stroke-opacity:1;stroke-dasharray:none"
       id="path3785"
       sodipodi:cx="254.05336"
       sodipodi:cy="214.1102"
       sodipodi:rx="16.162441"
       sodipodi:ry="14.89975"
       d="m 270.2158,214.1102 a 16.162441,14.89975 0 1 1 -32.32488,0 16.162441,14.89975 0 1 1 32.32488,0 z"
       transform="matrix(1.1475567,0,0,1.1475567,-30.453247,-127.9727)" />
    <path
       d="m 270.2158,214.1102 a 16.162441,14.89975 0 1 1 -32.32488,0 16.162441,14.89975 0 1 1 32.32488,0 z"
       sodipodi:ry="14.89975"
       sodipodi:rx="16.162441"
       sodipodi:cy="214.1102"
       sodipodi:cx="254.05336"
       id="path3787"
       style="fill:#000000;fill-opacity:1;stroke:#7e714e;stroke-width:2;stroke-linejoin:round;stroke-miterlimit:4.5999999;stroke-opacity:1;stroke-dasharray:none"
       sodipodi:type="arc"
       transform="matrix(1.1475567,0,0,1.1475567,32.143945,-127.9727)" />
    <path
       transform="matrix(1.1475567,0,0,1.1475567,95.320735,-127.9727)"
       d="m 270.2158,214.1102 a 16.162441,14.89975 0 1 1 -32.32488,0 16.162441,14.89975 0 1 1 32.32488,0 z"
       sodipodi:ry="14.89975"
       sodipodi:rx="16.162441"
       sodipodi:cy="214.1102"
       sodipodi:cx="254.05336"
       id="path3789"
       style="fill:#000000;fill-opacity:1;stroke:#7e714e;stroke-width:2;stroke-linejoin:round;stroke-miterlimit:4.5999999;stroke-opacity:1;stroke-dasharray:none"
       sodipodi:type="arc" />
    <path
       transform="matrix(1.1475567,0,0,1.1475567,157.91792,-127.9727)"
       sodipodi:type="arc"
       style="fill:#000000;fill-opacity:1;stroke:#7e714e;stroke-width:2;stroke-linejoin:round;stroke-miterlimit:4.5999999;stroke-opacity:1;stroke-dasharray:none"
       id="path3791"
       sodipodi:cx="254.05336"
       sodipodi:cy="214.1102"
       sodipodi:rx="16.162441"
       sodipodi:ry="14.89975"
       d="m 270.2158,214.1102 a 16.162441,14.89975 0 1 1 -32.32488,0 16.162441,14.89975 0 1 1 32.32488,0 z" />
    <path
       transform="matrix(1.1475567,0,0,1.1475567,217.6171,-127.9727)"
       d="m 270.2158,214.1102 a 16.162441,14.89975 0 1 1 -32.32488,0 16.162441,14.89975 0 1 1 32.32488,0 z"
       sodipodi:ry="14.89975"
       sodipodi:rx="16.162441"
       sodipodi:cy="214.1102"
       sodipodi:cx="254.05336"
       id="path3793"
       style="fill:#000000;fill-opacity:1;stroke:#7e714e;stroke-width:2;stroke-linejoin:round;stroke-miterlimit:4.5999999;stroke-opacity:1;stroke-dasharray:none"
       sodipodi:type="arc" />
    <path
       transform="matrix(1.1475567,0,0,1.1475567,280.21429,-127.9727)"
       sodipodi:type="arc"
       style="fill:#000000;fill-opacity:1;stroke:#7e714e;stroke-width:2;stroke-linejoin:round;stroke-miterlimit:4.5999999;stroke-opacity:1;stroke-dasharray:none"
       id="path3795"
       sodipodi:cx="254.05336"
       sodipodi:cy="214.1102"
       sodipodi:rx="16.162441"
       sodipodi:ry="14.89975"
       d="m 270.2158,214.1102 a 16.162441,14.89975 0 1 1 -32.32488,0 16.162441,14.89975 0 1 1 32.32488,0 z" />
    <path
       sodipodi:type="arc"
       style="fill:#000000;fill-opacity:1;stroke:#7e714e;stroke-width:2;stroke-linejoin:round;stroke-miterlimit:4.5999999;stroke-opacity:1;stroke-dasharray:none"
       id="path3797"
       sodipodi:cx="254.05336"
       sodipodi:cy="214.1102"
       sodipodi:rx="16.162441"
       sodipodi:ry="14.89975"
       d="m 270.2158,214.1102 a 16.162441,14.89975 0 1 1 -32.32488,0 16.162441,14.89975 0 1 1 32.32488,0 z"
       transform="matrix(1.1475567,0,0,1.1475567,343.39109,-127.9727)" />
    <path
       d="m 270.2158,214.1102 a 16.162441,14.89975 0 1 1 -32.32488,0 16.162441,14.89975 0 1 1 32.32488,0 z"
       sodipodi:ry="14.89975"
       sodipodi:rx="16.162441"
       sodipodi:cy="214.1102"
       sodipodi:cx="254.05336"
       id="path3799"
       style="fill:#000000;fill-opacity:1;stroke:#7e714e;stroke-width:2;stroke-linejoin:round;stroke-miterlimit:4.5999999;stroke-opacity:1;stroke-dasharray:none"
       sodipodi:type="arc"
       transform="matrix(1.1475567,0,0,1.1475567,405.98827,-127.9727)" />
    <path
       transform="matrix(1.1475567,0,0,1.1475567,465.68745,-127.9727)"
       sodipodi:type="arc"
       style="fill:#000000;fill-opacity:1;stroke:#7e714e;stroke-width:2;stroke-linejoin:round;stroke-miterlimit:4.5999999;stroke-opacity:1;stroke-dasharray:none"
       id="path3801"
       sodipodi:cx="254.05336"
       sodipodi:cy="214.1102"
       sodipodi:rx="16.162441"
       sodipodi:ry="14.89975"
       d="m 270.2158,214.1102 a 16.162441,14.89975 0 1 1 -32.32488,0 16.162441,14.89975 0 1 1 32.32488,0 z" />
  </g>
  <g
     inkscape:groupmode="layer"
     id="layer4"
     inkscape:label="Сшивка"
     style="display:inline">
    <path
       style="fill:none;stroke:url(#radialGradient3896);stroke-width:6.54107237;stroke-linecap:round;stroke-linejoin:round;stroke-miterlimit:4;stroke-opacity:1;stroke-dasharray:none"
       d="M 758.49194,64.418388 C 760.03267,45.92269 751.92089,20.27698 781.03323,22.204692"
       id="path3852"
       inkscape:connector-curvature="0"
       sodipodi:nodetypes="cc" />
    <path
       style="fill:none;stroke:url(#radialGradient3894);stroke-width:6.54107237;stroke-linecap:round;stroke-linejoin:round;stroke-miterlimit:4;stroke-opacity:1;stroke-dasharray:none;display:inline"
       d="m 694.21347,64.848779 c -0.43032,-18.574339 -3.97173,-37.076751 8.62374,-40.700826 5.14946,-3.754726 14.40419,-1.885826 30.33828,-1.018572 13.55588,1.724835 12.68471,16.461826 12.66891,40.489884"
       id="path3848"
       inkscape:connector-curvature="0"
       sodipodi:nodetypes="cccc" />
    <path
       sodipodi:nodetypes="cccc"
       inkscape:connector-curvature="0"
       id="path3844"
       d="m 631.5077,65.258618 c 1.61888,-17.344814 -1.92252,-37.48659 10.67296,-41.110665 5.14945,-3.754726 13.99435,-1.475988 29.92843,-0.608734 13.55589,1.724836 11.45518,16.461827 11.43938,40.489884"
       style="fill:none;stroke:url(#radialGradient3892);stroke-width:6.54107237;stroke-linecap:round;stroke-linejoin:round;stroke-miterlimit:4;stroke-opacity:1;stroke-dasharray:none;display:inline" />
    <path
       style="fill:none;stroke:url(#radialGradient3890);stroke-width:6.54107237;stroke-linecap:round;stroke-linejoin:round;stroke-miterlimit:4;stroke-opacity:1;stroke-dasharray:none;display:inline"
       d="m 570.4413,64.029091 c 1.61888,-17.344813 -2.74222,-41.585008 9.85326,-45.209083 5.14945,-3.754725 13.58451,-2.705515 29.5186,-1.83826 13.55588,1.724835 8.99612,24.658662 12.66889,48.686719"
       id="path3840"
       inkscape:connector-curvature="0"
       sodipodi:nodetypes="cccc" />
    <path
       sodipodi:nodetypes="cccc"
       inkscape:connector-curvature="0"
       id="path3836"
       d="m 506.09615,66.078294 c 1.61888,-17.344813 -2.74221,-41.585008 9.85326,-45.209083 5.14946,-3.754725 17.68294,-4.344879 33.61703,-3.477625 13.55587,1.724835 10.22564,25.478339 13.89841,49.506397"
       style="fill:none;stroke:url(#radialGradient3888);stroke-width:6.54107237;stroke-linecap:round;stroke-linejoin:round;stroke-miterlimit:4;stroke-opacity:1;stroke-dasharray:none;display:inline" />
    <path
       style="fill:none;stroke:url(#radialGradient3886);stroke-width:6.54107237;stroke-linecap:round;stroke-linejoin:round;stroke-miterlimit:4;stroke-opacity:1;stroke-dasharray:none;display:inline"
       d="m 448.30848,66.897983 c 1.61889,-17.344814 -2.74221,-41.585008 9.85327,-45.209084 5.14945,-3.754725 17.68292,-4.344878 33.61701,-3.477624 13.55588,1.724835 9.81581,24.248812 11.02954,48.686708"
       id="path3832"
       inkscape:connector-curvature="0"
       sodipodi:nodetypes="cccc" />
    <path
       sodipodi:nodetypes="cccc"
       inkscape:connector-curvature="0"
       id="path3828"
       d="m 383.96334,69.357036 c 1.61888,-17.344813 -2.74221,-41.585008 9.85326,-45.209083 5.14946,-3.754726 17.68294,-4.344879 33.61703,-3.477625 18.1246,0.42844 15.17206,24.424435 20.86573,48.686708"
       style="fill:none;stroke:url(#radialGradient3884);stroke-width:6.54107237;stroke-linecap:round;stroke-linejoin:round;stroke-miterlimit:4;stroke-opacity:1;stroke-dasharray:none;display:inline" />
    <path
       style="fill:none;stroke:url(#radialGradient3882);stroke-width:6.54107237;stroke-linecap:round;stroke-linejoin:round;stroke-miterlimit:4;stroke-opacity:1;stroke-dasharray:none;display:inline"
       d="m 261.66698,69.936644 c -0.0561,-16.466967 -1.52771,-34.066378 5.79603,-44.629488 11.97847,-3.243488 23.95696,-2.532978 35.93543,-2.898016 15.50952,3.275838 14.40634,19.4589 12.75129,46.947896"
       id="path3808"
       inkscape:connector-curvature="0"
       sodipodi:nodetypes="cccc" />
    <path
       style="fill:none;stroke:url(#radialGradient3880);stroke-width:6.54107237;stroke-linecap:round;stroke-linejoin:round;stroke-miterlimit:4;stroke-opacity:1;stroke-dasharray:none"
       d="m 228.62957,27.625577 c 5.60284,-1.495507 11.20567,0.358634 16.80852,3.477625 4.63683,0.01033 9.27365,45.054576 13.91048,78.246478"
       id="path3804"
       inkscape:connector-curvature="0"
       sodipodi:nodetypes="ccc" />
    <path
       style="fill:none;stroke:url(#radialGradient3878);stroke-width:5.73778296;stroke-linecap:round;stroke-linejoin:round;stroke-miterlimit:4;stroke-opacity:1;stroke-dasharray:none;display:inline"
       d="m 244.85847,29.943986 c -0.035,-4.182604 4.86688,-6.249445 15.6493,-5.796033 13.08547,44.47872 12.93248,83.883157 12.17168,88.099747"
       id="path3806"
       inkscape:connector-curvature="0"
       sodipodi:nodetypes="ccc" />
    <path
       style="fill:none;stroke:url(#radialGradient3876);stroke-width:6.54107237;stroke-linecap:round;stroke-linejoin:round;stroke-miterlimit:4;stroke-opacity:1;stroke-dasharray:none;display:inline"
       d="m 325.42337,69.936644 c 1.61888,-17.344813 -5.06062,-45.062633 7.53485,-48.686708 l 33.03741,-1.738813 c 17.34756,4.62828 15.17894,31.315376 15.0697,49.845913"
       id="path3818"
       inkscape:connector-curvature="0"
       sodipodi:nodetypes="cccc" />
    <path
       style="fill:none;stroke:url(#radialGradient3874);stroke-width:6.54107237;stroke-linecap:round;stroke-linejoin:round;stroke-miterlimit:4;stroke-opacity:1;stroke-dasharray:none;display:inline"
       d="m 321.94575,115.14573 c -6.73622,-38.009029 -7.41073,-63.89459 -9.85325,-93.316186 4.16033,-2.678788 8.78968,-3.481457 14.49009,0 6.74312,25.791691 8.77394,59.437237 11.01246,92.736586"
       id="path3816"
       inkscape:connector-curvature="0"
       sodipodi:nodetypes="cccc" />
    <path
       sodipodi:nodetypes="cccc"
       inkscape:connector-curvature="0"
       id="path3826"
       d="m 378.1673,114.56613 c -6.73622,-38.009037 -8.56993,-69.690631 -7.53482,-92.736586 4.16033,-2.678788 6.47126,-4.061065 12.17165,-0.579608 6.16352,2.607547 5.87593,60.016845 11.01247,92.736574"
       style="fill:none;stroke:url(#radialGradient3872);stroke-width:6.54107237;stroke-linecap:round;stroke-linejoin:round;stroke-miterlimit:4;stroke-opacity:1;stroke-dasharray:none;display:inline" />
    <path
       style="fill:none;stroke:url(#radialGradient3870);stroke-width:6.54107237;stroke-linecap:round;stroke-linejoin:round;stroke-miterlimit:4;stroke-opacity:1;stroke-dasharray:none;display:inline"
       d="m 443.74197,112.51692 c -6.73622,-38.009031 -8.56993,-69.690624 -7.53483,-92.73658 4.16033,-2.678787 6.47126,-4.061065 12.17167,-0.579608 6.16351,2.607547 5.87592,60.016845 11.01246,92.736588"
       id="path3830"
       inkscape:connector-curvature="0"
       sodipodi:nodetypes="cccc" />
    <path
       sodipodi:nodetypes="cccc"
       inkscape:connector-curvature="0"
       id="path3834"
       d="m 498.66075,109.23819 c -6.73623,-38.00903 -8.56994,-69.690625 -7.53483,-92.736579 4.16033,-2.678788 7.29095,-3.651227 12.99135,-0.16977 6.16351,2.607547 3.00704,62.885736 11.01247,92.736579"
       style="fill:none;stroke:url(#radialGradient3868);stroke-width:6.54107237;stroke-linecap:round;stroke-linejoin:round;stroke-miterlimit:4;stroke-opacity:1;stroke-dasharray:none;display:inline" />
    <path
       style="fill:none;stroke:url(#radialGradient3866);stroke-width:6.54107237;stroke-linecap:round;stroke-linejoin:round;stroke-miterlimit:4;stroke-opacity:1;stroke-dasharray:none;display:inline"
       d="m 567.10431,111.28739 c -2.13052,-38.009027 -8.32585,-69.690621 -7.53484,-92.736577 4.16033,-2.678787 7.29096,-3.651226 12.99136,-0.169768 7.16409,4.179871 8.93508,72.201233 11.01247,92.736575"
       id="path3838"
       inkscape:connector-curvature="0"
       sodipodi:nodetypes="cccc" />
    <path
       sodipodi:nodetypes="cccc"
       inkscape:connector-curvature="0"
       id="path3842"
       d="m 624.89198,117.02517 c -3.74903,-38.009024 -9.14712,-68.870929 -7.94467,-91.916885 4.16033,-2.678787 7.7008,-4.470915 13.40119,-0.989458 6.35381,6.610696 9.63781,76.240663 11.01247,92.736573"
       style="fill:none;stroke:url(#radialGradient3864);stroke-width:6.54107237;stroke-linecap:round;stroke-linejoin:round;stroke-miterlimit:4;stroke-opacity:1;stroke-dasharray:none;display:inline" />
    <path
       style="fill:none;stroke:url(#radialGradient3862);stroke-width:6.54107237;stroke-linecap:round;stroke-linejoin:round;stroke-miterlimit:4;stroke-opacity:1;stroke-dasharray:none;display:inline"
       d="m 691.28633,115.38581 c -3.74904,-38.009029 -8.7373,-69.690623 -7.53484,-92.736578 4.16033,-2.678787 7.29096,-3.651227 12.99135,-0.16977 6.3934,6.610695 7.48193,77.470187 8.96327,93.966108"
       id="path3846"
       inkscape:connector-curvature="0"
       sodipodi:nodetypes="cccc" />
    <path
       sodipodi:nodetypes="cccc"
       inkscape:connector-curvature="0"
       id="path3850"
       d="m 755.22162,117.84486 c -3.74902,-38.009037 -7.09792,-70.10047 -5.89546,-93.146425 4.16033,-2.678788 7.29095,-3.651226 12.99135,-0.169769 6.3934,6.610695 6.66224,73.371766 8.14358,89.867684"
       style="fill:none;stroke:url(#radialGradient3860);stroke-width:6.54107237;stroke-linecap:round;stroke-linejoin:round;stroke-miterlimit:4;stroke-opacity:1;stroke-dasharray:none;display:inline" />
  </g>
</svg>
