<?xml version="1.0" encoding="UTF-8" standalone="no"?>
<!-- Created with Inkscape (http://www.inkscape.org/) -->

<svg
   xmlns:dc="http://purl.org/dc/elements/1.1/"
   xmlns:cc="http://creativecommons.org/ns#"
   xmlns:rdf="http://www.w3.org/1999/02/22-rdf-syntax-ns#"
   xmlns:svg="http://www.w3.org/2000/svg"
   xmlns="http://www.w3.org/2000/svg"
   xmlns:xlink="http://www.w3.org/1999/xlink"
   xmlns:sodipodi="http://sodipodi.sourceforge.net/DTD/sodipodi-0.dtd"
   xmlns:inkscape="http://www.inkscape.org/namespaces/inkscape"
   width="1024"
   height="1024"
   id="svg2"
   version="1.1"
   inkscape:version="0.48.2 r9819"
   sodipodi:docname="редактироватьТренировки.svg"
   inkscape:export-filename="/Users/pgalex/Documents/projects/NetBeans/JShooting/src/com/jshooting/resources/редактироватьТренировки.png"
   inkscape:export-xdpi="8.0859375"
   inkscape:export-ydpi="8.0859375">
  <defs
     id="defs4">
    <linearGradient
       id="linearGradient3904">
      <stop
         style="stop-color:#9d9d9d;stop-opacity:1;"
         offset="0"
         id="stop3906" />
      <stop
         style="stop-color:#000000;stop-opacity:1;"
         offset="1"
         id="stop3908" />
    </linearGradient>
    <radialGradient
       inkscape:collect="always"
       xlink:href="#linearGradient3904"
       id="radialGradient3860"
       cx="688.61304"
       cy="173.56285"
       fx="688.61304"
       fy="173.56285"
       r="12.167078"
       gradientTransform="matrix(1.1592085,0,0,4.238436,-39.926908,-673.36213)"
       gradientUnits="userSpaceOnUse" />
    <radialGradient
       inkscape:collect="always"
       xlink:href="#linearGradient3904"
       id="radialGradient3862"
       cx="631.85614"
       cy="172.06032"
       fx="631.85614"
       fy="172.06032"
       r="12.495392"
       gradientTransform="matrix(1.1592085,0,0,4.1533422,-39.926908,-654.09421)"
       gradientUnits="userSpaceOnUse" />
    <radialGradient
       inkscape:collect="always"
       xlink:href="#linearGradient3904"
       id="radialGradient3864"
       cx="574.71832"
       cy="173.16541"
       fx="574.71832"
       fy="173.16541"
       r="13.561798"
       gradientTransform="matrix(1.1592085,0,0,3.7754657,-39.926908,-591.96786)"
       gradientUnits="userSpaceOnUse" />
    <radialGradient
       inkscape:collect="always"
       xlink:href="#linearGradient3904"
       id="radialGradient3866"
       cx="524.58411"
       cy="168.02715"
       fx="524.58411"
       fy="168.02715"
       r="13.33887"
       gradientTransform="matrix(1.1592085,0,0,3.8505796,-39.926908,-591.14599)"
       gradientUnits="userSpaceOnUse" />
    <radialGradient
       inkscape:collect="always"
       xlink:href="#linearGradient3904"
       id="radialGradient3868"
       cx="464.85416"
       cy="166.24142"
       fx="464.85416"
       fy="166.24142"
       r="13.425952"
       gradientTransform="matrix(1.1592085,0,0,3.8256046,-39.926908,-582.1881)"
       gradientUnits="userSpaceOnUse" />
    <radialGradient
       inkscape:collect="always"
       xlink:href="#linearGradient3904"
       id="radialGradient3870"
       cx="416.63989"
       cy="168.99304"
       fx="416.63989"
       fy="168.99304"
       r="13.068807"
       gradientTransform="matrix(1.1592085,0,0,3.939512,-39.926908,-608.77454)"
       gradientUnits="userSpaceOnUse" />
    <radialGradient
       inkscape:collect="always"
       xlink:href="#linearGradient3904"
       id="radialGradient3872"
       cx="359.49701"
       cy="170.77875"
       fx="359.49701"
       fy="170.77875"
       r="13.068807"
       gradientTransform="matrix(1.1592085,0,0,3.939512,-39.926908,-613.73937)"
       gradientUnits="userSpaceOnUse" />
    <radialGradient
       inkscape:collect="always"
       xlink:href="#linearGradient3904"
       id="radialGradient3874"
       cx="309.61176"
       cy="171.17812"
       fx="309.61176"
       fy="171.17812"
       r="13.961675"
       gradientTransform="matrix(1.1592085,0,0,3.6963525,-39.926908,-573.22612)"
       gradientUnits="userSpaceOnUse" />
    <radialGradient
       inkscape:collect="always"
       xlink:href="#linearGradient3904"
       id="radialGradient3876"
       cx="334.2674"
       cy="151.48074"
       fx="334.2674"
       fy="151.48074"
       r="27.310163"
       gradientTransform="matrix(1.1592085,0,0,1.0535457,-39.926908,-122.91674)"
       gradientUnits="userSpaceOnUse" />
    <radialGradient
       inkscape:collect="always"
       xlink:href="#linearGradient3904"
       id="radialGradient3878"
       cx="252.15608"
       cy="171.90955"
       fx="252.15608"
       fy="171.90955"
       r="14.745015"
       gradientTransform="matrix(1.1592085,0,0,3.2164235,-39.926908,-492.57749)"
       gradientUnits="userSpaceOnUse" />
    <radialGradient
       inkscape:collect="always"
       xlink:href="#linearGradient3904"
       id="radialGradient3880"
       cx="239.15363"
       cy="171.95934"
       fx="239.15363"
       fy="171.95934"
       r="16.234526"
       gradientTransform="matrix(1.1592085,0,0,2.7624316,-39.926908,-414.61178)"
       gradientUnits="userSpaceOnUse" />
    <radialGradient
       inkscape:collect="always"
       xlink:href="#linearGradient3904"
       id="radialGradient3882"
       cx="278.62463"
       cy="152.74342"
       fx="278.62463"
       fy="152.74342"
       r="27.053082"
       gradientTransform="matrix(1.1592085,0,0,1.0094519,-39.926908,-116.04828)"
       gradientUnits="userSpaceOnUse" />
    <radialGradient
       inkscape:collect="always"
       xlink:href="#linearGradient3904"
       id="radialGradient3884"
       cx="389.16125"
       cy="151.58038"
       fx="389.16125"
       fy="151.58038"
       r="30.881741"
       gradientTransform="matrix(1.1592085,0,0,0.90900016,-39.926908,-100.99594)"
       gradientUnits="userSpaceOnUse" />
    <radialGradient
       inkscape:collect="always"
       xlink:href="#linearGradient3904"
       id="radialGradient3886"
       cx="440.94699"
       cy="149.43752"
       fx="440.94699"
       fy="149.43752"
       r="26.596025"
       gradientTransform="matrix(1.1592085,0,0,1.0554776,-39.926908,-123.42131)"
       gradientUnits="userSpaceOnUse" />
    <radialGradient
       inkscape:collect="always"
       xlink:href="#linearGradient3904"
       id="radialGradient3888"
       cx="492.55411"
       cy="149.08038"
       fx="492.55411"
       fy="149.08038"
       r="27.846025"
       gradientTransform="matrix(1.1592085,0,0,1.0229651,-39.926908,-118.6114)"
       gradientUnits="userSpaceOnUse" />
    <radialGradient
       inkscape:collect="always"
       xlink:href="#linearGradient3904"
       id="radialGradient3890"
       cx="546.30414"
       cy="148.15858"
       fx="546.30414"
       fy="148.15858"
       r="25.524595"
       gradientTransform="matrix(1.1592085,0,0,1.1092069,-39.926908,-131.51444)"
       gradientUnits="userSpaceOnUse" />
    <radialGradient
       inkscape:collect="always"
       xlink:href="#linearGradient3904"
       id="radialGradient3892"
       cx="599.57349"
       cy="150.55232"
       fx="599.57349"
       fy="150.55232"
       r="25.57967"
       gradientTransform="matrix(1.1592085,0,0,0.98215544,-39.926908,-112.26686)"
       gradientUnits="userSpaceOnUse" />
    <radialGradient
       inkscape:collect="always"
       xlink:href="#linearGradient3904"
       id="radialGradient3894"
       cx="653.64899"
       cy="150.30099"
       fx="653.64899"
       fy="150.30099"
       r="25.69389"
       gradientTransform="matrix(1.1592085,0,0,0.97301532,-39.926908,-110.9376)"
       gradientUnits="userSpaceOnUse" />
    <radialGradient
       inkscape:collect="always"
       xlink:href="#linearGradient3904"
       id="radialGradient3896"
       cx="697.32141"
       cy="150.20529"
       fx="697.32141"
       fy="150.20529"
       r="12.67143"
       gradientTransform="matrix(1.1592085,0,0,1.9474307,-39.926908,-257.31775)"
       gradientUnits="userSpaceOnUse" />
    <linearGradient
       gradientUnits="userSpaceOnUse"
       y2="659.31018"
       x2="393.12796"
       y1="659.31018"
       x1="360.16376"
       id="linearGradient3960"
       xlink:href="#linearGradient3906"
       inkscape:collect="always" />
    <linearGradient
       gradientUnits="userSpaceOnUse"
       y2="620.28473"
       x2="385.62885"
       y1="644.52838"
       x1="409.54807"
       id="linearGradient3946"
       xlink:href="#linearGradient3948"
       inkscape:collect="always" />
    <linearGradient
       gradientUnits="userSpaceOnUse"
       y2="599.23083"
       x2="493.9646"
       y1="541.65216"
       x1="436.89096"
       id="linearGradient3922"
       xlink:href="#linearGradient3930"
       inkscape:collect="always" />
    <linearGradient
       gradientUnits="userSpaceOnUse"
       y2="552.51385"
       x2="545.74103"
       y1="492.91489"
       x1="482.95966"
       id="linearGradient3912"
       xlink:href="#linearGradient3906"
       inkscape:collect="always" />
    <linearGradient
       gradientUnits="userSpaceOnUse"
       y2="534.75311"
       x2="563.31787"
       y1="474.14395"
       x1="501.11569"
       id="linearGradient3902"
       xlink:href="#linearGradient3896"
       inkscape:collect="always" />
    <inkscape:path-effect
       is_visible="true"
       id="path-effect3104"
       effect="spiro" />
    <inkscape:path-effect
       is_visible="true"
       id="path-effect3878"
       effect="spiro" />
    <linearGradient
       id="linearGradient3896">
      <stop
         id="stop3898"
         offset="0"
         style="stop-color:#f49e58;stop-opacity:1;" />
      <stop
         id="stop3900"
         offset="1"
         style="stop-color:#dc6a0f;stop-opacity:1;" />
    </linearGradient>
    <linearGradient
       id="linearGradient3906">
      <stop
         id="stop3908-9"
         offset="0"
         style="stop-color:#585858;stop-opacity:1;" />
      <stop
         id="stop3910"
         offset="1"
         style="stop-color:#323232;stop-opacity:1;" />
    </linearGradient>
    <linearGradient
       id="linearGradient3930">
      <stop
         id="stop3932"
         offset="0"
         style="stop-color:#f8c30d;stop-opacity:1;" />
      <stop
         id="stop3934"
         offset="1"
         style="stop-color:#bf9506;stop-opacity:1;" />
    </linearGradient>
    <linearGradient
       id="linearGradient3948">
      <stop
         style="stop-color:#f2e58a;stop-opacity:1;"
         offset="0"
         id="stop3950" />
      <stop
         style="stop-color:#efe28a;stop-opacity:0;"
         offset="1"
         id="stop3952" />
    </linearGradient>
  </defs>
  <sodipodi:namedview
     id="base"
     pagecolor="#ffffff"
     bordercolor="#666666"
     borderopacity="1.0"
     inkscape:pageopacity="0.0"
     inkscape:pageshadow="2"
     inkscape:zoom="0.49497475"
     inkscape:cx="206.56171"
     inkscape:cy="516.17743"
     inkscape:document-units="px"
     inkscape:current-layer="layer2"
     showgrid="false"
     inkscape:window-width="1357"
     inkscape:window-height="791"
     inkscape:window-x="82"
     inkscape:window-y="105"
     inkscape:window-maximized="0"
     showguides="true"
     inkscape:guide-bbox="true" />
  <metadata
     id="metadata7">
    <rdf:RDF>
      <cc:Work
         rdf:about="">
        <dc:format>image/svg+xml</dc:format>
        <dc:type
           rdf:resource="http://purl.org/dc/dcmitype/StillImage" />
        <dc:title></dc:title>
      </cc:Work>
    </rdf:RDF>
  </metadata>
  <g
     inkscape:groupmode="layer"
     id="layer2"
     inkscape:label="Блокнот"
     style="display:inline">
    <rect
       ry="34.776257"
       y="68.149521"
       x="173.41455"
       height="948.89508"
       width="687.24518"
       id="rect3910"
       style="fill:#eae5df;fill-opacity:1;stroke:#000000;stroke-width:2.31841707;stroke-linejoin:round;stroke-miterlimit:4.5999999;stroke-opacity:1;stroke-dasharray:none" />
    <rect
       style="fill:#eae5df;fill-opacity:1;stroke:#000000;stroke-width:2.31841707;stroke-linejoin:round;stroke-miterlimit:4.5999999;stroke-opacity:1;stroke-dasharray:none"
       id="rect3780"
       width="687.24518"
       height="948.89508"
       x="168.73062"
       y="61.123665"
       ry="34.776257" />
    <path
       style="fill:none;stroke:#000000;stroke-width:1.15920854px;stroke-linecap:butt;stroke-linejoin:miter;stroke-opacity:1"
       d="m 241.10769,251.84228 c 3.90326,-1.56131 7.80653,-3.12262 11.70978,-4.68392 0.78065,-1.5613 0.78065,-3.90326 2.34195,-4.6839 2.09472,-1.04736 4.75384,0.56801 7.02588,0 0.32874,-0.0823 4.0038,-4.23052 4.6839,-4.68392 1.45243,-0.96827 3.44959,-1.10763 4.68391,-2.34196 0.55201,-0.552 -0.55201,-1.78994 0,-2.34195 1.10401,-1.104 3.57991,1.10401 4.68391,0 0.552,-0.552 -0.55199,-1.78995 0,-2.34195 0.552,-0.55201 1.78995,0.552 2.34196,0 0.55199,-0.55201 0,-1.56131 0,-2.34195 1.56129,0 3.20272,0.49372 4.6839,0 3.78929,-1.2631 0.73019,-4.68392 7.02587,-4.68392 0.78065,0 1.78994,-0.552 2.34195,0 0.552,0.552 -0.34912,1.64371 0,2.34195 0.49373,0.98746 1.5613,1.56131 2.34196,2.34197 0,1.5613 -0.37868,3.16921 0,4.6839 2.8273,11.30917 1.11295,-0.11607 4.68392,7.02586 0.69823,1.39648 -0.69825,3.28745 0,4.68392 0.49372,0.98745 1.56129,1.56129 2.34194,2.34195 0.78066,0.78064 1.35449,1.84824 2.34196,2.34195 0.69824,0.34912 1.5613,0 2.34195,0 0.78066,0 1.61714,0.28993 2.34195,0 3.24149,-1.29658 6.24523,-3.12261 9.36783,-4.6839 3.12261,-1.56131 6.31599,-2.98845 9.36782,-4.68392 3.97912,-2.21061 7.6384,-4.99017 11.70977,-7.02586 3.76012,-1.88006 7.86817,-2.97653 11.70979,-4.6839 3.19027,-1.41791 6.09891,-3.45808 9.3678,-4.68392 3.01378,-1.13017 6.40937,-1.07404 9.36783,-2.34196 3.87152,-1.65922 10.89387,-9.77576 16.39369,-7.02585 0.38674,0.19336 0,6.40277 0,7.02585 0,3.12261 0,6.24522 0,9.36783 0,0.78066 0,1.56129 0,2.34195 0,0.78065 -0.34911,1.64373 0,2.34195 0.49371,0.98747 1.84822,1.35451 2.34195,2.34196 1.6152,3.23039 -2.83624,2.09482 2.34196,4.68392 0.0448,0.0224 15.95426,0.10989 16.39368,0 4.07842,-1.01961 7.77349,-3.20781 11.70978,-4.68392 2.31145,-0.86679 4.81784,-1.23794 7.02586,-2.34196 4.07138,-2.03568 7.63839,-4.99017 11.70979,-7.02585 2.208,-1.10402 4.7144,-1.47517 7.02585,-2.34197 3.93627,-1.4761 7.72156,-3.3545 11.70978,-4.68391 3.05352,-1.01785 6.35405,-1.21178 9.36782,-2.34195 3.26889,-1.22584 6.01095,-3.72481 9.36781,-4.6839 2.25185,-0.64339 4.72939,0.45929 7.02586,0 1.71171,-0.34235 3.02791,-1.78995 4.68392,-2.34197 0.74059,-0.24686 1.56131,0 2.34196,0 0.78065,0 1.78995,-0.552 2.34196,0 0.552,0.55202 -0.24687,1.60136 0,2.34197 0.552,1.65601 1.37367,3.23148 2.34195,4.6839 0.61239,0.9186 2.07419,1.27092 2.34195,2.34195 0.568,2.27204 0,4.68391 0,7.02588 0,0.78064 -0.34912,1.64372 0,2.34195 5.35911,10.71821 -0.97067,-9.93789 4.68392,7.02586 0.87541,2.62624 -1.79046,5.64839 2.34194,7.02587 4.90899,1.63633 16.10875,-3.02763 21.0776,-4.68392 4.68392,-1.5613 9.28844,-3.38481 14.05173,-4.68391 3.8403,-1.04734 7.93349,-1.08319 11.70977,-2.34195 3.31203,-1.104 6.15893,-3.30867 9.36783,-4.6839 2.26903,-0.97246 4.81784,-1.23796 7.02587,-2.34197 0.98744,-0.49371 1.35449,-1.84822 2.34194,-2.34195 0.69823,-0.34911 1.5613,0 2.34196,0 0.78065,0 1.78994,-0.552 2.34195,0 0.552,0.552 -0.34912,1.64371 0,2.34195 0.49373,0.98746 1.84824,1.3545 2.34195,2.34197 0.69825,1.39647 -0.69823,3.28742 0,4.6839 1.72298,3.44597 3.67462,2.34195 7.02587,2.34195 0.78066,0 1.60136,0.24687 2.34196,0 1.65602,-0.552 3.06317,-1.69365 4.6839,-2.34195 4.58415,-1.83365 9.63571,-2.4759 14.05174,-4.6839 2.51752,-1.25877 4.35562,-3.79385 7.02585,-4.68392 2.22179,-0.74059 4.71579,0.38501 7.02588,0 4.8701,-0.81168 9.26187,-3.48644 14.05174,-4.68391 1.99549,-0.49887 4.96106,0 7.02586,0 0.78064,0 1.78994,-0.552 2.34195,0 0.55201,0.55201 -0.18933,1.58462 0,2.34195 0.59873,2.39493 1.74323,4.63094 2.34196,7.02588 0.73231,2.92922 -0.95576,6.50055 0,9.36781 2.43666,7.30999 1.56131,-0.78066 4.68391,2.34195 4.84558,4.8456 -7.40471,-0.18941 2.34195,4.68392 0.69824,0.34912 1.5613,0 2.34196,0 3.47936,0 6.45577,0.57008 9.36781,-2.34195 0.55201,-0.552 -0.55199,-1.78996 0,-2.34197 1.99029,-1.99028 4.82797,-2.92558 7.02587,-4.68391 1.72416,-1.37933 2.709,-3.69646 4.68391,-4.6839 1.39648,-0.69823 3.1226,0 4.6839,0 2.34198,-1.56131 4.61232,-3.23577 7.02588,-4.68392 4.48511,-2.69106 3.33949,-2.34195 7.02586,-2.34195 0.78066,0 1.99284,-0.69823 2.34196,0 0.43928,0.87856 0,12.65739 0,14.05173 0,1.56131 0,3.12261 0,4.68392 0,0.78064 -0.78065,2.34195 0,2.34195 1.104,0 1.56131,-1.56131 2.34194,-2.34195 1.56131,-1.56131 2.709,-3.69647 4.68392,-4.68392 1.39647,-0.69823 3.57989,1.10401 4.68391,0 1.74559,-1.74558 0.36705,-5.54468 2.34196,-7.02586 1.87356,-1.40518 4.75383,0.568 7.02585,0 1.07106,-0.26776 1.42338,-1.72957 2.34197,-2.34195 1.45241,-0.96829 3.28743,-1.29461 4.68391,-2.34197 6.10003,-4.57502 2.56527,-4.75834 9.36782,-7.02586 0.74059,-0.24686 1.5613,0 2.34194,0 0.78066,0 1.78997,-0.552 2.34197,0 1.59095,1.59095 -2.39461,4.65759 2.34195,7.02586 0.69824,0.34912 1.56129,0 2.34195,0 0.78065,0 1.56131,0 2.34197,0 4.6839,0 9.36782,0 14.05173,0 0.78065,0 1.5613,0 2.34195,0 0.78066,0 1.78995,0.55201 2.34195,0 0.55201,-0.552 0,-1.5613 0,-2.34195"
       id="path3914"
       inkscape:connector-curvature="0" />
    <path
       style="fill:none;stroke:#000000;stroke-width:1.15920854px;stroke-linecap:butt;stroke-linejoin:miter;stroke-opacity:1"
       d="m 252.81747,357.23025 c 13.27107,0 26.54216,0 39.81323,0 5.46457,0 10.94801,0.4538 16.39368,0 3.96682,-0.33057 7.80652,-1.5613 11.70978,-2.34196 3.90327,-0.78064 7.80652,-1.56131 11.70978,-2.34195 2.34195,-0.78066 4.60517,-1.85782 7.02586,-2.34196 2.29649,-0.45929 4.68391,0 7.02586,0 0.78065,0 1.56131,0 2.34196,0 0.78066,0 1.64372,-0.34913 2.34197,0 2.81035,1.40518 4.2155,5.6207 7.02586,7.02587 0.69823,0.34912 1.78994,-0.552 2.34194,0 3.12262,3.12261 -4.96803,2.24725 2.34197,4.6839 1.48118,0.49374 3.1226,0 4.68391,0 0.78064,0 1.64371,-0.34912 2.34195,0 0.98746,0.49374 1.29461,1.99284 2.34196,2.34195 1.48118,0.49373 3.12261,0 4.68391,0 10.24457,0 4.75384,0.56802 16.39368,-2.34195 11.18401,-2.79599 10.87569,-2.46447 23.41954,-7.02586 3.95085,-1.43666 7.72158,-3.3545 11.70979,-4.68391 4.5022,-1.50073 11.88287,-2.42851 16.39368,-4.68391 0.98746,-0.49372 1.35449,-1.84823 2.34195,-2.34195 0.69824,-0.34912 1.78995,0.552 2.34195,0 0.55201,-0.552 -0.552,-1.78995 0,-2.34197 0.21018,-0.21017 6.96582,-0.12009 7.02588,0 0.69824,1.39648 -0.49373,3.20274 0,4.68392 0.34912,1.04736 1.84822,1.3545 2.34195,2.34196 0.69824,1.39647 -1.10401,3.5799 0,4.68391 0.552,0.55201 1.56129,0 2.34195,0 0.78065,0 1.5613,0 2.34196,0 2.34196,0 4.71577,0.38501 7.02586,0 8.82986,-1.47164 5.95951,-2.97976 14.05173,-7.02587 12.49043,-6.24521 1.77371,2.72078 16.3937,-7.02586 1.83716,-1.22479 2.9175,-3.3591 4.68391,-4.68391 4.09266,-3.06952 6.98662,-2.32235 11.70976,-4.68391 0.98746,-0.49372 1.3545,-1.84823 2.34196,-2.34197 0.12251,-0.0613 6.90335,-0.0613 7.02587,0 5.17819,2.58912 0.72676,1.45354 2.34196,4.68393 0.49371,0.98744 1.84821,1.35449 2.34195,2.34195 0.34911,0.69823 -0.55201,1.78995 0,2.34195 0.552,0.552 1.99283,-0.69824 2.34195,0 0.69824,1.39647 -0.69823,3.28745 0,4.6839 0.34912,0.69824 1.78995,-0.552 2.34195,0 0.552,0.55202 -0.552,1.78997 0,2.34197 0.552,0.552 1.56131,0 2.34196,0 2.15461,0 4.9181,0.42155 7.02587,0 3.1562,-0.63125 6.48891,-0.9025 9.36781,-2.34197 1.97491,-0.98744 2.79056,-3.54788 4.68392,-4.6839 2.11684,-1.27009 4.73378,-1.42512 7.02587,-2.34195 1.62073,-0.6483 2.99043,-1.91859 4.6839,-2.34195 0.0782,-0.0197 7.01342,0.0124 7.02587,0 0.55199,-0.55201 -0.55201,-1.78996 0,-2.34196 0.55199,-0.552 1.78995,-0.552 2.34196,0 0.552,0.552 -0.34912,1.64371 0,2.34196 0.49373,0.98744 1.84822,1.35449 2.34194,2.34195 0.69823,1.39646 -0.69823,3.28743 0,4.68391 0.98747,1.9749 3.98569,2.58919 4.68391,4.68391 0.49373,1.48118 -0.69822,3.28743 0,4.68391 0.34912,0.69824 1.78995,-0.552 2.34195,0 0.55202,0.552 -0.552,1.78995 0,2.34195 0.55202,0.55199 1.56132,0 2.34196,0 1.8024,0 10.93535,0.38721 11.70978,0 1.97491,-0.98745 2.65443,-3.81412 4.68391,-4.68391 3.65871,-1.56803 7.98266,-0.94427 11.70978,-2.34195 5.27093,-1.97661 9.01667,-6.85029 14.05173,-9.36782 5.3176,-2.6588 11.07608,-4.36706 16.39368,-7.02588 1.54868,-0.77434 10.45063,-5.94305 11.70977,-4.6839 0.55201,0.552 -0.55199,1.78995 0,2.34196 0.55201,0.552 1.78996,-0.55201 2.34196,0 0.552,0.552 0,1.5613 0,2.34194 0,1.56132 -0.69824,3.28746 0,4.68393 0.34912,0.69823 1.99285,-0.69825 2.34197,0 0.75755,1.51512 -0.84128,8.52654 0,9.3678 0.19943,0.19946 5.8634,0.3875 7.02585,0 1.65602,-0.552 3.06317,-1.69365 4.6839,-2.34194 2.29209,-0.91683 4.73381,-1.42513 7.02588,-2.34196 4.79805,-1.91922 9.15289,-5.39291 14.05173,-7.02586 0.74058,-0.24686 1.5613,0 2.34195,0 0.78065,-0.78065 1.3545,-1.84823 2.34195,-2.34197 0.69824,-0.34911 1.78996,0.55202 2.34196,0 0.552,-0.552 -0.552,-1.78994 0,-2.34194 0.552,-0.55201 1.78995,-0.55201 2.34196,0 0.552,0.552 -0.34912,1.64371 0,2.34194 0.98745,1.97493 3.69645,2.70901 4.6839,4.68393 0.34912,0.69823 -0.34912,1.6437 0,2.34195 0.49374,0.98745 1.72957,1.42335 2.34195,2.34195 0.9683,1.45243 1.29461,3.28745 2.34197,4.6839 1.32482,1.76643 3.1226,3.12262 4.68391,4.68392 1.5613,1.56131 2.95973,3.30458 4.6839,4.68391 2.1979,1.75832 4.77412,2.9951 7.02586,4.68391 0.88322,0.66241 1.3545,1.84823 2.34197,2.34196 0.84693,0.42346 10.08084,0 11.70977,0"
       id="path3916"
       inkscape:connector-curvature="0" />
    <path
       style="fill:none;stroke:#000000;stroke-width:1.15920854px;stroke-linecap:butt;stroke-linejoin:miter;stroke-opacity:1"
       d="m 252.81747,481.35387 c 4.45514,-9.84531 12.75865,-2.29312 18.73564,-4.68391 2.05008,-0.82004 2.79056,-3.5479 4.68391,-4.68391 2.11683,-1.27012 4.73379,-1.42513 7.02586,-2.34197 1.62075,-0.64828 3.06317,-1.69364 4.68391,-2.34195 2.29208,-0.91683 4.7338,-1.42512 7.02587,-2.34196 1.62074,-0.64829 2.99043,-1.91858 4.68392,-2.34195 1.51468,-0.37867 3.16921,0.37867 4.6839,0 1.69347,-0.42336 3.0279,-1.78995 4.6839,-2.34195 0.30134,-0.1004 6.83193,-0.0971 7.02587,0 0.98746,0.49373 1.3545,1.84822 2.34196,2.34195 3.23039,1.6152 2.09482,-2.83622 4.68391,2.34195 0.34911,0.69824 -0.34912,1.64373 0,2.34196 0.49373,0.98746 1.84823,1.35451 2.34195,2.34195 0.34911,0.69824 -0.34912,1.64372 0,2.34197 0.49372,0.98744 1.72957,1.42335 2.34196,2.34195 0.96828,1.4524 1.10764,3.44958 2.34194,4.6839 0.55201,0.55201 1.56131,0 2.34197,0 1.5613,0 3.12261,0 4.68391,0 4.23252,0 12.7136,0.52575 16.39369,0 2.10101,-0.30013 13.72449,-3.3493 16.39368,-4.6839 0.98746,-0.49373 1.31691,-1.93194 2.34196,-2.34195 2.98849,-1.1954 6.37932,-1.14656 9.36781,-2.34197 1.02506,-0.41001 1.42337,-1.72955 2.34196,-2.34195 1.45242,-0.96828 3.12261,-1.5613 4.68391,-2.34196 1.5613,-0.78065 3.0279,-1.78994 4.68391,-2.34195 0.74059,-0.24686 1.56129,0 2.34195,0 0.78065,0 1.56131,0 2.34195,0 0.78066,0 1.99285,-0.69823 2.34198,0 0.69823,1.39646 -0.49374,3.20273 0,4.68391 0.69823,2.09471 3.69643,2.70901 4.6839,4.68392 0.34912,0.69823 -0.552,1.78995 0,2.34195 0.552,0.552 1.5613,0 2.34195,0 1.5613,0 3.1226,0 4.68391,0 1.56131,0 3.16923,0.37867 4.6839,0 15.2897,-3.82243 -8.84831,-1.25757 11.70979,-4.68392 2.31009,-0.38501 4.80408,0.7406 7.02585,0 2.67026,-0.89007 4.77412,-2.99509 7.02588,-4.68391 0.8832,-0.6624 1.29461,-1.99283 2.34195,-2.34195 1.48119,-0.49373 3.1226,0 4.6839,0 0.78067,0 1.64373,0.34912 2.34197,0 0.98744,-0.49373 1.3545,-1.84822 2.34194,-2.34195 0.69824,-0.34912 1.78997,-0.55201 2.34197,0 1.104,1.104 -0.69824,3.28744 0,4.6839 0.49373,0.98747 1.3545,1.84823 2.34195,2.34196 0.12253,0.0613 6.90334,0.0613 7.02587,0 0.98744,-0.49373 1.3545,-1.84822 2.34194,-2.34196 0.92858,-0.46427 6.5471,0.4788 7.02587,0 0.55202,-0.552 -0.552,-1.78994 0,-2.34195 0.55202,-0.552 1.56131,0 2.34196,0 0.78066,0 1.78995,-0.552 2.34196,0 1.104,1.10401 -1.10401,3.57991 0,4.68391 0.552,0.55201 1.78994,-0.55201 2.34194,0 0.55202,0.55201 -0.552,1.78995 0,2.34195 0.55202,0.55201 1.56132,0 2.34196,0 4.68392,0 9.36783,0 14.05173,0 0.78066,0 1.64373,0.34912 2.34197,0 0.98744,-0.49371 1.3545,-1.84822 2.34194,-2.34195 0.69824,-0.34911 1.78997,0.55201 2.34197,0 0.55199,-0.55201 -0.552,-1.78996 0,-2.34196 0.55199,-0.552 1.78994,-0.552 2.34195,0 0.55199,0.552 -0.55201,1.78995 0,2.34196 0.55199,0.55201 1.78995,-0.55201 2.34195,0 1.10402,1.10401 -1.104,3.57991 0,4.68392 0.55201,0.55199 1.5613,0 2.34195,0 0.78066,0 1.56131,0 2.34197,0 2.02949,0 8.01117,0.45221 9.36781,0 16.96376,-5.65459 -3.69234,0.67519 7.02587,-4.68392 1.39646,-0.69823 3.57989,1.10401 4.6839,0 0.552,-0.55201 -0.552,-1.78996 0,-2.34196 0.552,-0.552 1.56131,0 2.34196,0 0.78064,0 1.64371,-0.34912 2.34195,0 0.98746,0.49374 1.56131,1.56131 2.34197,2.34196"
       id="path3918"
       inkscape:connector-curvature="0" />
    <path
       style="fill:none;stroke:#000000;stroke-width:1.15920854px;stroke-linecap:butt;stroke-linejoin:miter;stroke-opacity:1"
       d="m 255.15942,593.76769 c 6.14061,-1.472 12.55319,0.88322 18.73564,0 6.37273,-0.91037 12.45153,-3.28742 18.73564,-4.6839 3.88578,-0.86351 7.79343,-1.62989 11.70978,-2.34195 4.67193,-0.84944 9.44499,-1.19028 14.05173,-2.34195 4.78986,-1.19748 9.24089,-3.57372 14.05173,-4.68392 7.27393,-6.29973 15.72645,-0.80334 23.41955,-2.34194 1.71169,-0.34234 2.93831,-2.34197 4.6839,-2.34197 1.10402,0 1.99285,1.29461 2.34197,2.34197 0.45674,1.37021 0,12.04155 0,14.05172 0,0.78064 0,1.5613 0,2.34194 0,0.78066 -0.34912,1.64373 0,2.34198 2.58909,5.17817 1.45351,0.72675 4.68391,2.34195 1.97491,0.98744 2.5892,3.98567 4.68391,4.6839 1.48118,0.49373 3.12261,0 4.68391,0 4.6839,0 9.36782,0 14.05173,0 3.12261,0 6.25804,0.28271 9.36783,0 5.49736,-0.49976 10.9291,-1.5613 16.39366,-2.34195 16.75026,-2.3929 16.51139,-1.60053 32.78737,-7.02588 3.98821,-1.32939 7.94967,-2.80383 11.70978,-4.6839 2.51753,-1.25875 4.31948,-3.91066 7.02586,-4.6839 3.00248,-0.85786 6.30587,0.61239 9.36783,0 1.08256,-0.21653 1.23795,-2.34196 2.34196,-2.34196 0.78065,0 0,1.56131 0,2.34196 0,3.1226 0,6.24521 0,9.3678 0,0.78066 -0.69824,1.99285 0,2.34198 1.39648,0.69823 3.1226,0 4.6839,0 3.90327,0 7.83039,0.43103 11.70978,0 4.71948,-0.52441 9.37981,-1.49253 14.05173,-2.34198 29.70503,-5.4009 -8.38186,1.51 25.7615,-7.02585 9.21348,-2.30337 18.83258,-2.62372 28.10346,-4.68391 2.40986,-0.53553 4.63094,-1.74323 7.02587,-2.34196 6.50807,-1.62702 -3.20336,7.24122 7.02587,4.68392 1.69347,-0.42337 3.1226,-1.56132 4.6839,-2.34196 2.34196,0 4.7294,0.4593 7.02586,0 1.7117,-0.34234 3.06318,-1.69366 4.68393,-2.34196 2.29205,-0.91683 4.6839,-1.56131 7.02585,-2.34194 2.34196,-0.78066 4.63095,-1.74324 7.02587,-2.34197 3.1226,-0.78064 2.34194,0 2.34194,2.34197 0,0.78063 0,1.56129 0,2.34194 0,0.78065 -0.69822,1.99285 0,2.34196 2.09472,1.04736 4.68394,0 7.02588,0 2.34196,0 4.71578,0.38501 7.02586,0 2.43505,-0.40585 4.68393,-1.56131 7.02588,-2.34196 2.34195,-0.78065 4.6839,-1.56131 7.02586,-2.34194 2.34195,-0.78066 4.90901,-1.07186 7.02586,-2.34197 1.89335,-1.13601 2.70899,-3.69645 4.68391,-4.6839 1.39647,-0.69824 3.28743,0.69822 4.68391,0 0.69823,-0.34912 -0.55201,-1.78996 0,-2.34196 0.55201,-0.552 1.5613,0 2.34196,0 1.56131,0 3.28743,-0.69823 4.6839,0 0.69825,0.34912 -0.55199,1.78994 0,2.34196 0.55201,0.552 1.78996,-0.55202 2.34196,0 0.552,0.552 -0.552,1.78995 0,2.34195 0.552,0.55201 1.99285,-0.69824 2.34197,0 0.69823,1.39647 0,3.12261 0,4.68392 0,0.78063 -0.55202,1.78994 0,2.34194 0.0754,0.0754 6.45786,0 7.02585,0 1.98281,0 8.10877,0.41968 9.36782,0 1.04735,-0.34912 1.35449,-1.84823 2.34196,-2.34194 0.69824,-0.34913 1.5613,0 2.34195,0 1.56129,0 3.20273,0.49371 4.68391,0 1.04736,-0.34913 1.42337,-1.72957 2.34196,-2.34197 1.68652,-1.12434 5.94985,-3.41794 7.02586,-2.34195 0.55199,0.55201 0,1.56131 0,2.34195 0,3.90326 0,7.80651 0,11.70978 0,0.78065 -0.55201,1.78995 0,2.34195 0.55199,0.552 1.5613,0 2.34195,0 2.47738,0 15.18718,0.40218 16.39369,0 1.04735,-0.34912 1.2946,-1.99283 2.34196,-2.34195 1.48117,-0.49373 3.28743,0.69823 4.6839,0 0.69824,-0.34912 -0.552,-1.78995 0,-2.34195 0.55201,-0.55202 1.56131,0 2.34196,0 3.90326,0 7.80651,0 11.70977,0 2.34197,0 4.7294,0.4593 7.02587,0 6.34348,-1.26871 3.84848,-3.71426 9.36783,-7.02586 4.87333,-2.92401 11.52035,-1.75992 16.39368,-4.68392 1.49683,-0.8981 1.10762,-3.44959 2.34195,-4.68391 0.55201,-0.552 1.5613,0 2.34195,0 0.78066,0 1.5613,0 2.34197,0"
       id="path3920"
       inkscape:connector-curvature="0" />
    <path
       sodipodi:type="arc"
       style="fill:#a8a8a8;fill-opacity:1;stroke:#8d8d8d;stroke-width:5.69999981;stroke-linecap:round;stroke-linejoin:round;stroke-miterlimit:4;stroke-opacity:1;stroke-dasharray:none"
       id="path3922"
       sodipodi:cx="465.68033"
       sodipodi:cy="818.93903"
       sodipodi:rx="102.02541"
       sodipodi:ry="102.02541"
       d="m 567.70574,818.93903 a 102.02541,102.02541 0 1 1 -204.05083,0 102.02541,102.02541 0 1 1 204.05083,0 z"
       transform="matrix(1.1592086,0,0,1.1592086,-39.926909,-138.92262)" />
    <path
       style="fill:none;stroke:#000000;stroke-width:1.15920854px;stroke-linecap:butt;stroke-linejoin:miter;stroke-opacity:1"
       d="m 496.38079,659.34244 c 7.02586,0 14.05173,0 21.07759,0 0.78066,0 1.78996,-0.55201 2.34196,0 0.552,0.55201 0.552,1.78995 0,2.34196 -0.552,0.552 -1.60136,-0.24687 -2.34196,0 -1.65601,0.552 -3.23148,1.37368 -4.68391,2.34197 -1.93528,1.29017 -4.05712,4.99729 -4.6839,4.6839 -4.4709,-2.23545 -6.96768,-10.94853 -11.70978,-9.36783 -3.98821,1.3294 2.05772,8.42705 4.68392,11.70978 0.97532,1.21917 3.20271,-0.49373 4.68391,0 1.04734,0.34912 1.35449,1.84823 2.34195,2.34196 1.39647,0.69822 3.57989,-1.10402 4.6839,0 3.12262,3.12261 -3.90325,2.34195 2.34197,2.34195"
       id="path3926"
       inkscape:connector-curvature="0" />
    <path
       style="fill:none;stroke:#000000;stroke-width:1.15920854px;stroke-linecap:butt;stroke-linejoin:miter;stroke-opacity:1"
       d="m 634.55614,713.20741 c 5.56652,-2.37584 8.85115,-2.34195 14.05173,-2.34195 0.78064,0 1.78995,-0.55201 2.34195,0 1.82758,1.82758 -4.59051,7.04142 -4.68391,7.02586 -4.14673,-0.69113 -9.37785,-8.1818 -11.70977,-4.68391 -10.58973,15.88458 8.79154,10.73703 11.70977,11.70978 1.04736,0.34911 1.2946,1.99283 2.34196,2.34195 2.22178,0.74059 4.68391,0 7.02586,0"
       id="path3928"
       inkscape:connector-curvature="0" />
    <path
       style="fill:none;stroke:#000000;stroke-width:1.15920854px;stroke-linecap:butt;stroke-linejoin:miter;stroke-opacity:1"
       d="m 374.59913,952.08682 c 3.12261,0 6.24521,0 9.36782,0 3.12261,0 6.24521,0 9.36782,0 0.78066,0 2.34195,-0.78065 2.34195,0 0,0.78066 -1.64371,-0.34911 -2.34195,0 -2.62092,1.31045 -3.31685,5.92025 -7.02586,4.68391 -3.98821,-1.32941 -9.37786,-8.1818 -11.70978,-4.68391 -2.52497,3.78745 4.18228,8.15531 7.02586,11.70978 0.2788,0.34849 6.62178,-0.4041 7.02587,0 0.55201,0.552 -0.552,1.78994 0,2.34196 0.55201,0.552 1.5613,0 2.34196,0 0.78065,0 1.5613,0 2.34195,0 0.78066,0 1.78995,-0.55202 2.34195,0 0.55201,0.552 0.78065,2.34195 0,2.34195 -0.78066,0 0,-1.56131 0,-2.34195"
       id="path3932"
       inkscape:connector-curvature="0" />
    <path
       d="m 567.70574,818.93903 a 102.02541,102.02541 0 1 1 -204.05083,0 102.02541,102.02541 0 1 1 204.05083,0 z"
       sodipodi:ry="102.02541"
       sodipodi:rx="102.02541"
       sodipodi:cy="818.93903"
       sodipodi:cx="465.68033"
       id="path3940"
       style="fill:#a8a8a8;fill-opacity:1;stroke:#8d8d8d;stroke-width:5.69999981;stroke-linecap:round;stroke-linejoin:round;stroke-miterlimit:4;stroke-opacity:1;stroke-dasharray:none"
       sodipodi:type="arc"
       transform="matrix(0.69026116,0,0,0.69026116,176.11075,245.11673)" />
    <path
       style="fill:none;stroke:#000000;stroke-width:1.15920854px;stroke-linecap:butt;stroke-linejoin:miter;stroke-opacity:1"
       d="m 323.07612,806.88562 c 377.05476,0 374.71279,0 374.71279,0"
       id="path3938"
       inkscape:connector-curvature="0" />
    <path
       style="fill:none;stroke:#000000;stroke-width:1.15920854px;stroke-linecap:butt;stroke-linejoin:miter;stroke-opacity:1"
       d="m 501.06471,631.23898 0,339.58348"
       id="path3936"
       inkscape:connector-curvature="0" />
    <path
       style="fill:none;stroke:#000000;stroke-width:1.15920854px;stroke-linecap:butt;stroke-linejoin:miter;stroke-opacity:1"
       d="m 618.16245,870.11839 c -1.87753,9.87107 -8.14946,0.5618 -11.70978,2.34196 -0.98745,0.49373 -3.42452,2.55847 -2.34195,2.34194 16.07482,-3.21494 13.62764,-11.59898 21.07759,7.02588 0.28993,0.72483 -1.64371,-0.34912 -2.34195,0 -9.74666,4.87333 2.50364,-0.16168 -2.34195,4.68391 -1.39538,1.39537 -7.02587,-2.33743 -7.02587,2.34195 0,0.78066 1.5613,0 2.34197,0"
       id="path3944"
       inkscape:connector-curvature="0" />
    <path
       style="fill:none;stroke:#000000;stroke-width:1.15920854px;stroke-linecap:butt;stroke-linejoin:miter;stroke-opacity:1"
       d="m 639.24005,905.24772 c 1.19681,14.13651 -8.89509,-0.47272 -11.70979,2.34195 -0.55199,0.55201 0,1.5613 0,2.34195 0,0.78065 0.55201,1.78996 0,2.34196 -0.55199,0.55202 -1.78994,-0.552 -2.34195,0 -1.10401,1.10402 1.10402,3.5799 0,4.68391 -0.55201,0.55202 -1.64371,-0.34911 -2.34195,0 -0.98747,0.49374 -1.5613,1.56131 -2.34195,2.34196 -3.40005,3.40004 -2.34196,2.53526 -2.34196,7.02586 0,0.78066 -0.552,1.78995 0,2.34197 0.55201,0.55199 1.5613,0 2.34196,0 0.78065,0 1.5613,0 2.34195,0 1.56131,0 3.1226,0 4.6839,0 0.78066,0 1.78997,0.55199 2.34198,0 1.17097,-1.17099 -1.171,-5.85489 0,-7.02587 0.55199,-0.55202 1.5613,0 2.34195,0"
       id="path3948"
       inkscape:connector-curvature="0" />
    <path
       style="fill:none;stroke:#000000;stroke-width:1.15920854px;stroke-linecap:butt;stroke-linejoin:miter;stroke-opacity:1"
       d="m 676.71132,926.32531 c -3.1226,1.56132 -6.12635,3.38732 -9.3678,4.68392 -1.44965,0.57985 -3.28746,-0.69825 -4.68393,0 -1.56129,0.78064 -3.90325,3.90325 -2.34195,4.68391 1.39648,0.69823 3.32831,0.77461 4.68391,0 4.34001,-2.48001 7.23889,-11.60327 11.70977,-9.36783 4.07138,2.0357 -4.99017,7.6384 -7.02586,11.70977 -0.34912,0.69824 0.55201,1.78996 0,2.34197 -0.552,0.552 -1.78994,-0.55201 -2.34194,0 -0.23421,0.2342 -0.23421,6.79167 0,7.02586 0.552,0.55199 2.34194,-0.78065 2.34194,0 0,2.21185 -10.92912,-4.42369 2.34196,0 8.68187,2.89396 -2.85474,2.34196 4.6839,2.34196"
       id="path3950"
       inkscape:connector-curvature="0" />
    <path
       style="fill:none;stroke:#000000;stroke-width:1.15920854px;stroke-linecap:butt;stroke-linejoin:miter;stroke-opacity:1"
       d="m 660.31764,884.17012 c 10.12516,-2.53129 6.14912,-2.34195 11.70978,-2.34195 0.78065,0 1.78994,-0.552 2.34195,0 0.552,0.55201 0.552,1.78995 0,2.34195 -2.81035,2.81035 -18.73564,-14.05173 -14.05173,0 2.45833,7.37499 10.6473,7.02587 16.39368,7.02587 0.78065,0 1.64372,-0.34912 2.34195,0 0.60975,0.30486 3.95716,3.06872 2.34198,4.68391 -1.10402,1.104 -3.28746,-0.69824 -4.68393,0 -0.98744,0.49374 -1.35449,1.84823 -2.34195,2.34195 -6.89193,3.44597 3.08337,-5.42533 -4.68391,2.34196 -1.75902,1.75901 -4.68391,5.18116 -4.68391,2.34195 0,-0.78065 2.34197,-0.78065 2.34197,0 0,0.78066 -1.56132,0 -2.34197,0"
       id="path3954"
       inkscape:connector-curvature="0" />
    <g
       id="g4415"
       transform="matrix(1.0761045,0,0,1.0761045,325.18216,248.87943)">
      <g
         style="display:inline"
         transform="translate(0,-28.362183)"
         id="layer1"
         inkscape:label="Layer 1" />
      <g
         style="display:inline"
         inkscape:label="pencil"
         id="layer2-8">
        <path
           sodipodi:nodetypes="cccccc"
           inkscape:connector-curvature="0"
           id="path3880"
           d="m 519.64286,453.28571 -133.92857,134.28572 -26.07143,88.57143 89.28571,-26.07143 134.64286,-133.92857 c 4.56243,-22.18125 -39.94361,-68.84161 -63.92857,-62.85715 z"
           style="fill:none;stroke:#000000;stroke-width:1px;stroke-linecap:butt;stroke-linejoin:miter;stroke-opacity:1" />
        <path
           sodipodi:nodetypes="cc"
           inkscape:connector-curvature="0"
           id="path3888"
           d="m 479.64286,492.92857 63.92857,63.21428"
           style="fill:none;stroke:#000000;stroke-width:1px;stroke-linecap:butt;stroke-linejoin:miter;stroke-opacity:1;display:inline" />
        <path
           sodipodi:nodetypes="ccccc"
           inkscape:connector-curvature="0"
           id="path3882"
           d="m 385.625,587.57142 30.08929,1.78572 0.35714,30.35715 31.78571,0.71428 0.89286,29.73214"
           style="fill:none;stroke:#000000;stroke-width:1px;stroke-linecap:butt;stroke-linejoin:miter;stroke-opacity:1;display:inline" />
        <path
           sodipodi:nodetypes="cc"
           inkscape:connector-curvature="0"
           id="path3884"
           d="m 369.64286,641.76785 24.64285,24.37501"
           style="fill:none;stroke:#000000;stroke-width:1px;stroke-linecap:butt;stroke-linejoin:miter;stroke-opacity:1;display:inline" />
        <path
           inkscape:connector-curvature="0"
           id="path3886"
           d="m 485.71429,487.92857 62.5,63.92857"
           style="fill:none;stroke:#000000;stroke-width:1px;stroke-linecap:butt;stroke-linejoin:miter;stroke-opacity:1;display:inline" />
        <path
           inkscape:connector-curvature="0"
           id="path3894"
           d="m 517.13402,518.91626 -30.66557,-31.36316 16.80317,-16.82005 16.80317,-16.82006 2.77951,-0.28687 c 6.21198,-0.64113 17.78518,3.9887 26.96559,10.78752 5.8621,4.34135 17.31557,15.80149 21.61164,21.62423 7.00275,9.49128 10.89741,18.25997 11.32878,25.50635 l 0.25557,4.29315 -17.60815,17.22102 -17.60815,17.22102 -30.66556,-31.36315 z"
           style="fill:url(#linearGradient3902);fill-opacity:1;fill-rule:nonzero;stroke:#000000;stroke-width:2.02030516;stroke-linecap:round;stroke-linejoin:miter;stroke-miterlimit:4;stroke-opacity:1;stroke-dasharray:none;stroke-dashoffset:0" />
        <path
           inkscape:connector-curvature="0"
           id="path3904"
           d="m 511.96662,523.79232 -31.02727,-30.68338 2.09948,-2.15188 c 1.15472,-1.18353 2.22028,-2.09267 2.36793,-2.0203 0.14764,0.0724 10.48189,10.58665 22.965,23.36508 12.48311,12.77843 26.22521,26.80729 30.538,31.17525 l 7.84144,7.94173 -1.46434,1.52845 c -0.80539,0.84064 -1.65078,1.52844 -1.87865,1.52844 -0.22787,0 -14.37659,-13.80753 -31.44159,-30.68339 z"
           style="fill:url(#linearGradient3912);fill-opacity:1;fill-rule:nonzero;stroke:#000000;stroke-width:2.02030516;stroke-linecap:round;stroke-linejoin:miter;stroke-miterlimit:4;stroke-opacity:1;stroke-dasharray:none;stroke-dashoffset:0" />
        <path
           inkscape:connector-curvature="0"
           id="path3914-0"
           d="m 449.37402,643.76361 c -0.15483,-2.3004 -0.40512,-8.59767 -0.55619,-13.99392 -0.15107,-5.39626 -0.32949,-9.86563 -0.39648,-9.93195 -0.067,-0.0663 -7.212,-0.28638 -15.8778,-0.48904 l -15.75601,-0.36848 -0.15389,-14.84609 c -0.11784,-11.36741 -0.30507,-14.93938 -0.79904,-15.24426 -0.35483,-0.219 -6.15058,-0.67706 -12.87945,-1.01792 -6.72886,-0.34085 -12.86361,-0.74034 -13.63276,-0.88777 -1.30753,-0.2506 1.57882,-3.26227 44.38679,-46.31402 25.18189,-25.3253 45.94603,-46.04599 46.14253,-46.04599 0.19651,0 14.3151,13.80003 31.37465,30.66674 l 31.01737,30.66674 -23.73858,23.7878 c -13.05622,13.08329 -33.88857,33.7807 -46.29411,45.99426 l -22.55551,22.20645 -0.28152,-4.18255 0,0 z"
           style="fill:url(#linearGradient3922);fill-opacity:1;fill-rule:nonzero;stroke:#000000;stroke-width:2.02030516;stroke-linecap:round;stroke-linejoin:miter;stroke-miterlimit:4;stroke-opacity:1;stroke-dasharray:none;stroke-dashoffset:0" />
        <path
           inkscape:connector-curvature="0"
           id="path3936-5"
           d="m 361.1739,674.18967 c 0,-0.59425 8.61711,-29.9817 8.87046,-30.25145 0.0974,-0.10368 5.18784,4.65727 11.31212,10.57989 6.12429,5.92263 10.96394,10.92726 10.7548,11.12141 -0.34469,0.31996 -29.88497,9.04434 -30.62367,9.04434 -0.17254,0 -0.31371,-0.22239 -0.31371,-0.49419 z"
           style="fill:url(#linearGradient3960);fill-opacity:1;fill-rule:nonzero;stroke:#000000;stroke-width:2.02030516;stroke-linecap:round;stroke-linejoin:miter;stroke-miterlimit:4;stroke-opacity:1;stroke-dasharray:none;stroke-dashoffset:0" />
        <path
           inkscape:connector-curvature="0"
           id="path3938-2"
           d="m 382.45276,653.28382 -11.79558,-11.8036 7.68983,-26.20339 c 4.2294,-14.41187 7.83459,-26.36173 8.01153,-26.55524 0.51093,-0.55878 28.04787,1.21174 28.47198,1.83064 0.20409,0.29783 0.37455,7.1531 0.37881,15.23393 l 0.008,14.69242 15.75209,0.34415 c 8.66366,0.18928 15.83123,0.42328 15.92796,0.52001 0.37056,0.37056 1.11594,27.81559 0.76369,28.11922 -0.32603,0.28101 -52.53708,15.62545 -53.16725,15.62545 -0.13487,0 -5.55323,-5.31162 -12.04079,-11.80359 z"
           style="fill:url(#linearGradient3946);fill-opacity:1;fill-rule:nonzero;stroke:#000000;stroke-width:2.02030516;stroke-linecap:round;stroke-linejoin:miter;stroke-miterlimit:4;stroke-opacity:1;stroke-dasharray:none;stroke-dashoffset:0" />
      </g>
    </g>
  </g>
  <g
     inkscape:groupmode="layer"
     id="layer3"
     inkscape:label="Дырки"
     style="display:inline">
    <path
       sodipodi:type="arc"
       style="fill:#000000;fill-opacity:1;stroke:#7e714e;stroke-width:2;stroke-linejoin:round;stroke-miterlimit:4.5999999;stroke-opacity:1;stroke-dasharray:none"
       id="path3785"
       sodipodi:cx="254.05336"
       sodipodi:cy="214.1102"
       sodipodi:rx="16.162441"
       sodipodi:ry="14.89975"
       d="m 270.2158,214.1102 a 16.162441,14.89975 0 1 1 -32.32488,0 16.162441,14.89975 0 1 1 32.32488,0 z"
       transform="matrix(1.1592086,0,0,1.1592086,-39.926909,-137.77493)" />
    <path
       d="m 270.2158,214.1102 a 16.162441,14.89975 0 1 1 -32.32488,0 16.162441,14.89975 0 1 1 32.32488,0 z"
       sodipodi:ry="14.89975"
       sodipodi:rx="16.162441"
       sodipodi:cy="214.1102"
       sodipodi:cx="254.05336"
       id="path3787"
       style="fill:#000000;fill-opacity:1;stroke:#7e714e;stroke-width:2;stroke-linejoin:round;stroke-miterlimit:4.5999999;stroke-opacity:1;stroke-dasharray:none"
       sodipodi:type="arc"
       transform="matrix(1.1592086,0,0,1.1592086,23.305877,-137.77493)" />
    <path
       transform="matrix(1.1592086,0,0,1.1592086,87.124154,-137.77493)"
       d="m 270.2158,214.1102 a 16.162441,14.89975 0 1 1 -32.32488,0 16.162441,14.89975 0 1 1 32.32488,0 z"
       sodipodi:ry="14.89975"
       sodipodi:rx="16.162441"
       sodipodi:cy="214.1102"
       sodipodi:cx="254.05336"
       id="path3789"
       style="fill:#000000;fill-opacity:1;stroke:#7e714e;stroke-width:2;stroke-linejoin:round;stroke-miterlimit:4.5999999;stroke-opacity:1;stroke-dasharray:none"
       sodipodi:type="arc" />
    <path
       transform="matrix(1.1592086,0,0,1.1592086,150.35693,-137.77493)"
       sodipodi:type="arc"
       style="fill:#000000;fill-opacity:1;stroke:#7e714e;stroke-width:2;stroke-linejoin:round;stroke-miterlimit:4.5999999;stroke-opacity:1;stroke-dasharray:none"
       id="path3791"
       sodipodi:cx="254.05336"
       sodipodi:cy="214.1102"
       sodipodi:rx="16.162441"
       sodipodi:ry="14.89975"
       d="m 270.2158,214.1102 a 16.162441,14.89975 0 1 1 -32.32488,0 16.162441,14.89975 0 1 1 32.32488,0 z" />
    <path
       transform="matrix(1.1592086,0,0,1.1592086,210.66228,-137.77493)"
       d="m 270.2158,214.1102 a 16.162441,14.89975 0 1 1 -32.32488,0 16.162441,14.89975 0 1 1 32.32488,0 z"
       sodipodi:ry="14.89975"
       sodipodi:rx="16.162441"
       sodipodi:cy="214.1102"
       sodipodi:cx="254.05336"
       id="path3793"
       style="fill:#000000;fill-opacity:1;stroke:#7e714e;stroke-width:2;stroke-linejoin:round;stroke-miterlimit:4.5999999;stroke-opacity:1;stroke-dasharray:none"
       sodipodi:type="arc" />
    <path
       transform="matrix(1.1592086,0,0,1.1592086,273.89506,-137.77493)"
       sodipodi:type="arc"
       style="fill:#000000;fill-opacity:1;stroke:#7e714e;stroke-width:2;stroke-linejoin:round;stroke-miterlimit:4.5999999;stroke-opacity:1;stroke-dasharray:none"
       id="path3795"
       sodipodi:cx="254.05336"
       sodipodi:cy="214.1102"
       sodipodi:rx="16.162441"
       sodipodi:ry="14.89975"
       d="m 270.2158,214.1102 a 16.162441,14.89975 0 1 1 -32.32488,0 16.162441,14.89975 0 1 1 32.32488,0 z" />
    <path
       sodipodi:type="arc"
       style="fill:#000000;fill-opacity:1;stroke:#7e714e;stroke-width:2;stroke-linejoin:round;stroke-miterlimit:4.5999999;stroke-opacity:1;stroke-dasharray:none"
       id="path3797"
       sodipodi:cx="254.05336"
       sodipodi:cy="214.1102"
       sodipodi:rx="16.162441"
       sodipodi:ry="14.89975"
       d="m 270.2158,214.1102 a 16.162441,14.89975 0 1 1 -32.32488,0 16.162441,14.89975 0 1 1 32.32488,0 z"
       transform="matrix(1.1592086,0,0,1.1592086,337.71333,-137.77493)" />
    <path
       d="m 270.2158,214.1102 a 16.162441,14.89975 0 1 1 -32.32488,0 16.162441,14.89975 0 1 1 32.32488,0 z"
       sodipodi:ry="14.89975"
       sodipodi:rx="16.162441"
       sodipodi:cy="214.1102"
       sodipodi:cx="254.05336"
       id="path3799"
       style="fill:#000000;fill-opacity:1;stroke:#7e714e;stroke-width:2;stroke-linejoin:round;stroke-miterlimit:4.5999999;stroke-opacity:1;stroke-dasharray:none"
       sodipodi:type="arc"
       transform="matrix(1.1592086,0,0,1.1592086,400.9461,-137.77493)" />
    <path
       transform="matrix(1.1592086,0,0,1.1592086,461.25145,-137.77493)"
       sodipodi:type="arc"
       style="fill:#000000;fill-opacity:1;stroke:#7e714e;stroke-width:2;stroke-linejoin:round;stroke-miterlimit:4.5999999;stroke-opacity:1;stroke-dasharray:none"
       id="path3801"
       sodipodi:cx="254.05336"
       sodipodi:cy="214.1102"
       sodipodi:rx="16.162441"
       sodipodi:ry="14.89975"
       d="m 270.2158,214.1102 a 16.162441,14.89975 0 1 1 -32.32488,0 16.162441,14.89975 0 1 1 32.32488,0 z" />
  </g>
  <g
     inkscape:groupmode="layer"
     id="layer4"
     inkscape:label="Сшивка"
     style="display:inline">
    <path
       style="fill:none;stroke:url(#radialGradient3896);stroke-width:6.60748911;stroke-linecap:round;stroke-linejoin:round;stroke-miterlimit:4;stroke-opacity:1;stroke-dasharray:none"
       d="m 757.02899,56.569633 c 1.55638,-18.683497 -6.63776,-44.589607 22.77018,-42.642322"
       id="path3852"
       inkscape:connector-curvature="0"
       sodipodi:nodetypes="cc" />
    <path
       style="fill:none;stroke:url(#radialGradient3894);stroke-width:6.60748911;stroke-linecap:round;stroke-linejoin:round;stroke-miterlimit:4;stroke-opacity:1;stroke-dasharray:none;display:inline"
       d="m 692.09786,57.004395 c -0.4347,-18.762939 -4.01206,-37.453218 8.71132,-41.114092 5.20174,-3.792849 14.55044,-1.904974 30.64632,-1.028913 13.69352,1.742348 12.8135,16.628974 12.79754,40.901005"
       id="path3848"
       inkscape:connector-curvature="0"
       sodipodi:nodetypes="cccc" />
    <path
       sodipodi:nodetypes="cccc"
       inkscape:connector-curvature="0"
       id="path3844"
       d="m 628.7554,57.418394 c 1.63532,-17.520928 -1.94204,-37.867217 10.78132,-41.528091 5.20175,-3.792849 14.13645,-1.490974 30.23233,-0.614914 13.69352,1.742349 11.57149,16.628975 11.55552,40.901006"
       style="fill:none;stroke:url(#radialGradient3892);stroke-width:6.60748911;stroke-linecap:round;stroke-linejoin:round;stroke-miterlimit:4;stroke-opacity:1;stroke-dasharray:none;display:inline" />
    <path
       style="fill:none;stroke:url(#radialGradient3890);stroke-width:6.60748911;stroke-linecap:round;stroke-linejoin:round;stroke-miterlimit:4;stroke-opacity:1;stroke-dasharray:none;display:inline"
       d="m 567.06894,56.176383 c 1.63532,-17.520928 -2.77005,-42.00725 9.95332,-45.668124 5.20173,-3.7928493 13.72244,-2.7329843 29.81832,-1.8569237 13.69351,1.7423487 9.08746,24.9090397 12.79754,49.1810707"
       id="path3840"
       inkscape:connector-curvature="0"
       sodipodi:nodetypes="cccc" />
    <path
       sodipodi:nodetypes="cccc"
       inkscape:connector-curvature="0"
       id="path3836"
       d="m 502.07046,58.246394 c 1.63532,-17.520928 -2.77006,-42.007251 9.95331,-45.668124 5.20175,-3.7928499 17.86248,-4.3889957 33.95836,-3.512935 13.69351,1.742349 10.32947,25.737039 14.03955,50.00907"
       style="fill:none;stroke:url(#radialGradient3888);stroke-width:6.60748911;stroke-linecap:round;stroke-linejoin:round;stroke-miterlimit:4;stroke-opacity:1;stroke-dasharray:none;display:inline" />
    <path
       style="fill:none;stroke:url(#radialGradient3886);stroke-width:6.60748911;stroke-linecap:round;stroke-linejoin:round;stroke-miterlimit:4;stroke-opacity:1;stroke-dasharray:none;display:inline"
       d="m 443.69603,59.074405 c 1.63532,-17.520928 -2.77006,-42.00725 9.95331,-45.668124 5.20174,-3.7928495 17.86247,-4.3889953 33.95836,-3.5129346 13.69352,1.7423486 9.91547,24.4950276 11.14151,49.1810586"
       id="path3832"
       inkscape:connector-curvature="0"
       sodipodi:nodetypes="cccc" />
    <path
       sodipodi:nodetypes="cccc"
       inkscape:connector-curvature="0"
       id="path3828"
       d="m 378.69754,61.558427 c 1.63532,-17.520928 -2.77006,-42.00725 9.95332,-45.668124 5.20174,-3.792849 17.86247,-4.388995 33.95836,-3.512935 18.30865,0.43279 15.32611,24.672433 21.0776,49.181059"
       style="fill:none;stroke:url(#radialGradient3884);stroke-width:6.60748911;stroke-linecap:round;stroke-linejoin:round;stroke-miterlimit:4;stroke-opacity:1;stroke-dasharray:none;display:inline" />
    <path
       style="fill:none;stroke:url(#radialGradient3882);stroke-width:6.60748911;stroke-linecap:round;stroke-linejoin:round;stroke-miterlimit:4;stroke-opacity:1;stroke-dasharray:none;display:inline"
       d="m 255.15942,62.14392 c -0.0567,-16.634169 -1.54322,-34.412278 5.85489,-45.082643 12.10009,-3.276422 24.20021,-2.558698 36.30031,-2.927442 15.667,3.3091 14.55262,19.65648 12.88075,47.424592"
       id="path3808"
       inkscape:connector-curvature="0"
       sodipodi:nodetypes="cccc" />
    <path
       style="fill:none;stroke:url(#radialGradient3880);stroke-width:6.60748911;stroke-linecap:round;stroke-linejoin:round;stroke-miterlimit:4;stroke-opacity:1;stroke-dasharray:none"
       d="m 221.78656,19.403238 c 5.65974,-1.510692 11.31945,0.362276 16.97918,3.512935 4.68392,0.01043 9.36783,45.512048 14.05173,79.040977"
       id="path3804"
       inkscape:connector-curvature="0"
       sodipodi:nodetypes="ccc" />
    <path
       style="fill:none;stroke:url(#radialGradient3878);stroke-width:5.79604292;stroke-linecap:round;stroke-linejoin:round;stroke-miterlimit:4;stroke-opacity:1;stroke-dasharray:none;display:inline"
       d="m 238.18025,21.745188 c -0.0354,-4.225073 4.91628,-6.3129 15.8082,-5.854885 13.21834,44.930346 13.0638,84.734877 12.29526,88.994297"
       id="path3806"
       inkscape:connector-curvature="0"
       sodipodi:nodetypes="ccc" />
    <path
       style="fill:none;stroke:url(#radialGradient3876);stroke-width:6.60748911;stroke-linecap:round;stroke-linejoin:round;stroke-miterlimit:4;stroke-opacity:1;stroke-dasharray:none;display:inline"
       d="m 319.56319,62.14392 c 1.63532,-17.520929 -5.11201,-45.520186 7.61134,-49.18106 l 33.37286,-1.756467 c 17.52372,4.675275 15.33307,31.633342 15.22272,50.352034"
       id="path3818"
       inkscape:connector-curvature="0"
       sodipodi:nodetypes="cccc" />
    <path
       style="fill:none;stroke:url(#radialGradient3874);stroke-width:6.60748911;stroke-linecap:round;stroke-linejoin:round;stroke-miterlimit:4;stroke-opacity:1;stroke-dasharray:none;display:inline"
       d="m 316.05025,107.81205 c -6.80462,-38.394966 -7.48599,-64.543361 -9.95331,-94.263697 4.20258,-2.705986 8.87894,-3.516806 14.63722,0 6.81158,26.053573 8.86303,60.040745 11.12429,93.678197"
       id="path3816"
       inkscape:connector-curvature="0"
       sodipodi:nodetypes="cccc" />
    <path
       sodipodi:nodetypes="cccc"
       inkscape:connector-curvature="0"
       id="path3826"
       d="m 372.84266,107.22655 c -6.80462,-38.394959 -8.65696,-70.398239 -7.61133,-93.678197 4.20256,-2.705986 6.53696,-4.1022991 12.29524,-0.585493 6.2261,2.634024 5.93559,60.626238 11.12429,93.6782"
       style="fill:none;stroke:url(#radialGradient3872);stroke-width:6.60748911;stroke-linecap:round;stroke-linejoin:round;stroke-miterlimit:4;stroke-opacity:1;stroke-dasharray:none;display:inline" />
    <path
       style="fill:none;stroke:url(#radialGradient3870);stroke-width:6.60748911;stroke-linecap:round;stroke-linejoin:round;stroke-miterlimit:4;stroke-opacity:1;stroke-dasharray:none;display:inline"
       d="m 439.08315,105.15654 c -6.80463,-38.394959 -8.65695,-70.39824 -7.61133,-93.678197 4.20256,-2.7059859 6.53696,-4.1022995 12.29525,-0.585493 6.2261,2.634024 5.93559,60.626239 11.12428,93.6782"
       id="path3830"
       inkscape:connector-curvature="0"
       sodipodi:nodetypes="cccc" />
    <path
       sodipodi:nodetypes="cccc"
       inkscape:connector-curvature="0"
       id="path3834"
       d="m 494.55956,101.84452 c -6.80462,-38.394961 -8.65696,-70.39824 -7.61133,-93.6781973 4.20256,-2.7059879 7.36498,-3.6883009 13.12325,-0.1714933 6.2261,2.6340226 3.03757,63.5242596 11.12429,93.6782006"
       style="fill:none;stroke:url(#radialGradient3868);stroke-width:6.60748911;stroke-linecap:round;stroke-linejoin:round;stroke-miterlimit:4;stroke-opacity:1;stroke-dasharray:none;display:inline" />
    <path
       style="fill:none;stroke:url(#radialGradient3866);stroke-width:6.60748911;stroke-linecap:round;stroke-linejoin:round;stroke-miterlimit:4;stroke-opacity:1;stroke-dasharray:none;display:inline"
       d="m 563.69808,103.91453 c -2.15216,-38.39496 -8.41039,-70.39824 -7.61134,-93.678197 4.20257,-2.7059879 7.36498,-3.6883009 13.12326,-0.171493 7.23684,4.222313 9.02581,72.934346 11.12429,93.6782"
       id="path3838"
       inkscape:connector-curvature="0"
       sodipodi:nodetypes="cccc" />
    <path
       sodipodi:nodetypes="cccc"
       inkscape:connector-curvature="0"
       id="path3842"
       d="m 622.0725,109.71057 c -3.78709,-38.394957 -9.24,-69.570226 -8.02533,-92.850183 4.20257,-2.705987 7.77898,-4.516311 13.53726,-0.999505 6.41833,6.677819 9.73567,77.014786 11.12429,93.678208"
       style="fill:none;stroke:url(#radialGradient3864);stroke-width:6.60748911;stroke-linecap:round;stroke-linejoin:round;stroke-miterlimit:4;stroke-opacity:1;stroke-dasharray:none;display:inline" />
    <path
       style="fill:none;stroke:url(#radialGradient3862);stroke-width:6.60748911;stroke-linecap:round;stroke-linejoin:round;stroke-miterlimit:4;stroke-opacity:1;stroke-dasharray:none;display:inline"
       d="m 689.141,108.05457 c -3.7871,-38.394968 -8.82601,-70.398247 -7.61133,-93.678205 4.20256,-2.705987 7.36498,-3.6883 13.12325,-0.171494 6.45831,6.677819 7.55789,78.25679 9.05428,94.920199"
       id="path3846"
       inkscape:connector-curvature="0"
       sodipodi:nodetypes="cccc" />
    <path
       sodipodi:nodetypes="cccc"
       inkscape:connector-curvature="0"
       id="path3850"
       d="m 753.72548,110.53857 c -3.7871,-38.394958 -7.16999,-70.812237 -5.95533,-94.092195 4.20257,-2.705987 7.36499,-3.6883 13.12327,-0.171492 6.45831,6.677817 6.72988,74.11676 8.22625,90.780167"
       style="fill:none;stroke:url(#radialGradient3860);stroke-width:6.60748911;stroke-linecap:round;stroke-linejoin:round;stroke-miterlimit:4;stroke-opacity:1;stroke-dasharray:none;display:inline" />
  </g>
</svg>
